<?xml version="1.0" encoding="UTF-8" standalone="no"?>
<!-- Created with Inkscape (http://www.inkscape.org/) -->

<svg
   width="180"
   height="180"
   viewBox="0 0 180 180"
   version="1.1"
   id="svg1"
   inkscape:version="1.3.2 (091e20e, 2023-11-25, custom)"
   sodipodi:docname="qr.svg"
   xmlns:inkscape="http://www.inkscape.org/namespaces/inkscape"
   xmlns:sodipodi="http://sodipodi.sourceforge.net/DTD/sodipodi-0.dtd"
   xmlns="http://www.w3.org/2000/svg"
   xmlns:svg="http://www.w3.org/2000/svg">
  <sodipodi:namedview
     id="namedview1"
     pagecolor="#505050"
     bordercolor="#ffffff"
     borderopacity="1"
     inkscape:showpageshadow="0"
     inkscape:pageopacity="0"
     inkscape:pagecheckerboard="1"
     inkscape:deskcolor="#505050"
     inkscape:document-units="px"
     inkscape:zoom="1.6125963"
     inkscape:cx="-53.950266"
     inkscape:cy="173.9431"
     inkscape:window-width="1920"
     inkscape:window-height="1017"
     inkscape:window-x="2552"
     inkscape:window-y="-8"
     inkscape:window-maximized="1"
     inkscape:current-layer="layer1" />
  <defs
     id="defs1" />
  <g
     inkscape:label="Ebene 1"
     inkscape:groupmode="layer"
     id="layer1">
    <g
       inkscape:label="QR Code: https://digitale-oberlausitz.eu/events/2024/lpd_2024_05/"
       transform="translate(9.2750594,6.9041873)"
       id="g2">
      <rect
         x="0"
         y="0"
         width="164"
         height="164"
         style="fill:#ffffff;stroke:none"
         id="rect1" />
      <g
         style="fill:#000000;stroke:none"
         id="g1">
        <path
           d="m 16,16 m 2,2 c 1.10457,0 2,0.895431 2,2 0,1.10457 -0.895431,2 -2,2 -1.10457,0 -2,-0.895431 -2,-2 0,-1.10457 0.895431,-2 2,-2 z m 2,-2 m 2,2 c 1.10457,0 2,0.895431 2,2 0,1.10457 -0.895431,2 -2,2 -1.10457,0 -2,-0.895431 -2,-2 0,-1.10457 0.895431,-2 2,-2 z m 2,-2 m 2,2 c 1.10457,0 2,0.895431 2,2 0,1.10457 -0.895431,2 -2,2 -1.10457,0 -2,-0.895431 -2,-2 0,-1.10457 0.895431,-2 2,-2 z m 2,-2 m 2,2 c 1.10457,0 2,0.895431 2,2 0,1.10457 -0.895431,2 -2,2 -1.10457,0 -2,-0.895431 -2,-2 0,-1.10457 0.895431,-2 2,-2 z m 2,-2 m 2,2 c 1.10457,0 2,0.895431 2,2 0,1.10457 -0.895431,2 -2,2 -1.10457,0 -2,-0.895431 -2,-2 0,-1.10457 0.895431,-2 2,-2 z m 2,-2 m 2,2 c 1.10457,0 2,0.895431 2,2 0,1.10457 -0.895431,2 -2,2 -1.10457,0 -2,-0.895431 -2,-2 0,-1.10457 0.895431,-2 2,-2 z m 2,-2 m 2,2 c 1.10457,0 2,0.895431 2,2 0,1.10457 -0.895431,2 -2,2 -1.10457,0 -2,-0.895431 -2,-2 0,-1.10457 0.895431,-2 2,-2 z m 6,-2 m 2,2 c 1.10457,0 2,0.895431 2,2 0,1.10457 -0.895431,2 -2,2 -1.10457,0 -2,-0.895431 -2,-2 0,-1.10457 0.895431,-2 2,-2 z m 2,-2 m 2,2 c 1.10457,0 2,0.895431 2,2 0,1.10457 -0.895431,2 -2,2 -1.10457,0 -2,-0.895431 -2,-2 0,-1.10457 0.895431,-2 2,-2 z m 2,-2 m 2,2 c 1.10457,0 2,0.895431 2,2 0,1.10457 -0.895431,2 -2,2 -1.10457,0 -2,-0.895431 -2,-2 0,-1.10457 0.895431,-2 2,-2 z m 2,-2 m 2,2 c 1.10457,0 2,0.895431 2,2 0,1.10457 -0.895431,2 -2,2 -1.10457,0 -2,-0.895431 -2,-2 0,-1.10457 0.895431,-2 2,-2 z m 6,-2 m 2,2 c 1.10457,0 2,0.895431 2,2 0,1.10457 -0.895431,2 -2,2 -1.10457,0 -2,-0.895431 -2,-2 0,-1.10457 0.895431,-2 2,-2 z m 2,-2 m 2,2 c 1.10457,0 2,0.895431 2,2 0,1.10457 -0.895431,2 -2,2 -1.10457,0 -2,-0.895431 -2,-2 0,-1.10457 0.895431,-2 2,-2 z m 2,-2 m 2,2 c 1.10457,0 2,0.895431 2,2 0,1.10457 -0.895431,2 -2,2 -1.10457,0 -2,-0.895431 -2,-2 0,-1.10457 0.895431,-2 2,-2 z m 10,-2 m 2,2 c 1.10457,0 2,0.895431 2,2 0,1.10457 -0.895431,2 -2,2 -1.10457,0 -2,-0.895431 -2,-2 0,-1.10457 0.895431,-2 2,-2 z m 6,-2 m 2,2 c 1.10457,0 2,0.895431 2,2 0,1.10457 -0.895431,2 -2,2 -1.10457,0 -2,-0.895431 -2,-2 0,-1.10457 0.895431,-2 2,-2 z m 22,-2 m 2,2 c 1.10457,0 2,0.895431 2,2 0,1.10457 -0.89543,2 -2,2 -1.10457,0 -2,-0.895431 -2,-2 0,-1.10457 0.89543,-2 2,-2 z m 2,-2 m 2,2 c 1.10457,0 2,0.895431 2,2 0,1.10457 -0.89543,2 -2,2 -1.10457,0 -2,-0.895431 -2,-2 0,-1.10457 0.89543,-2 2,-2 z m 2,-2 m 2,2 c 1.10457,0 2,0.895431 2,2 0,1.10457 -0.89543,2 -2,2 -1.10457,0 -2,-0.895431 -2,-2 0,-1.10457 0.89543,-2 2,-2 z m 2,-2 m 2,2 c 1.10457,0 2,0.895431 2,2 0,1.10457 -0.89543,2 -2,2 -1.10457,0 -2,-0.895431 -2,-2 0,-1.10457 0.89543,-2 2,-2 z m 2,-2 m 2,2 c 1.10457,0 2,0.895431 2,2 0,1.10457 -0.89543,2 -2,2 -1.10457,0 -2,-0.895431 -2,-2 0,-1.10457 0.89543,-2 2,-2 z m 2,-2 m 2,2 c 1.10457,0 2,0.895431 2,2 0,1.10457 -0.89543,2 -2,2 -1.10457,0 -2,-0.895431 -2,-2 0,-1.10457 0.89543,-2 2,-2 z m 2,-2 m 2,2 c 1.10457,0 2,0.895431 2,2 0,1.10457 -0.89543,2 -2,2 -1.10457,0 -2,-0.895431 -2,-2 0,-1.10457 0.89543,-2 2,-2 z M 16,20 m 2,2 c 1.10457,0 2,0.895431 2,2 0,1.10457 -0.895431,2 -2,2 -1.10457,0 -2,-0.895431 -2,-2 0,-1.10457 0.895431,-2 2,-2 z m 22,-2 m 2,2 c 1.10457,0 2,0.895431 2,2 0,1.10457 -0.895431,2 -2,2 -1.10457,0 -2,-0.895431 -2,-2 0,-1.10457 0.895431,-2 2,-2 z m 18,-2 m 2,2 c 1.10457,0 2,0.895431 2,2 0,1.10457 -0.895431,2 -2,2 -1.10457,0 -2,-0.895431 -2,-2 0,-1.10457 0.895431,-2 2,-2 z m 2,-2 m 2,2 c 1.10457,0 2,0.895431 2,2 0,1.10457 -0.895431,2 -2,2 -1.10457,0 -2,-0.895431 -2,-2 0,-1.10457 0.895431,-2 2,-2 z m 2,-2 m 2,2 c 1.10457,0 2,0.895431 2,2 0,1.10457 -0.895431,2 -2,2 -1.10457,0 -2,-0.895431 -2,-2 0,-1.10457 0.895431,-2 2,-2 z m 2,-2 m 2,2 c 1.10457,0 2,0.895431 2,2 0,1.10457 -0.895431,2 -2,2 -1.10457,0 -2,-0.895431 -2,-2 0,-1.10457 0.895431,-2 2,-2 z m 2,-2 m 2,2 c 1.10457,0 2,0.895431 2,2 0,1.10457 -0.895431,2 -2,2 -1.10457,0 -2,-0.895431 -2,-2 0,-1.10457 0.895431,-2 2,-2 z m 6,-2 m 2,2 c 1.10457,0 2,0.895431 2,2 0,1.10457 -0.895431,2 -2,2 -1.10457,0 -2,-0.895431 -2,-2 0,-1.10457 0.895431,-2 2,-2 z m 6,-2 m 2,2 c 1.10457,0 2,0.895431 2,2 0,1.10457 -0.895431,2 -2,2 -1.10457,0 -2,-0.895431 -2,-2 0,-1.10457 0.895431,-2 2,-2 z m 2,-2 m 2,2 c 1.10457,0 2,0.895431 2,2 0,1.10457 -0.895431,2 -2,2 -1.10457,0 -2,-0.895431 -2,-2 0,-1.10457 0.895431,-2 2,-2 z m 2,-2 m 2,2 c 1.10457,0 2,0.895431 2,2 0,1.10457 -0.89543,2 -2,2 -1.10457,0 -2,-0.895431 -2,-2 0,-1.10457 0.89543,-2 2,-2 z m 10,-2 m 2,2 c 1.10457,0 2,0.895431 2,2 0,1.10457 -0.89543,2 -2,2 -1.10457,0 -2,-0.895431 -2,-2 0,-1.10457 0.89543,-2 2,-2 z m 6,-2 m 2,2 c 1.10457,0 2,0.895431 2,2 0,1.10457 -0.89543,2 -2,2 -1.10457,0 -2,-0.895431 -2,-2 0,-1.10457 0.89543,-2 2,-2 z m 22,-2 m 2,2 c 1.10457,0 2,0.895431 2,2 0,1.10457 -0.89543,2 -2,2 -1.10457,0 -2,-0.895431 -2,-2 0,-1.10457 0.89543,-2 2,-2 z M 16,24 m 2,2 c 1.10457,0 2,0.895431 2,2 0,1.10457 -0.895431,2 -2,2 -1.10457,0 -2,-0.895431 -2,-2 0,-1.10457 0.895431,-2 2,-2 z m 6,-2 m 2,2 c 1.10457,0 2,0.895431 2,2 0,1.10457 -0.895431,2 -2,2 -1.10457,0 -2,-0.895431 -2,-2 0,-1.10457 0.895431,-2 2,-2 z m 2,-2 m 2,2 c 1.10457,0 2,0.895431 2,2 0,1.10457 -0.895431,2 -2,2 -1.10457,0 -2,-0.895431 -2,-2 0,-1.10457 0.895431,-2 2,-2 z m 2,-2 m 2,2 c 1.10457,0 2,0.895431 2,2 0,1.10457 -0.895431,2 -2,2 -1.10457,0 -2,-0.895431 -2,-2 0,-1.10457 0.895431,-2 2,-2 z m 6,-2 m 2,2 c 1.10457,0 2,0.895431 2,2 0,1.10457 -0.895431,2 -2,2 -1.10457,0 -2,-0.895431 -2,-2 0,-1.10457 0.895431,-2 2,-2 z m 10,-2 m 2,2 c 1.10457,0 2,0.895431 2,2 0,1.10457 -0.895431,2 -2,2 -1.10457,0 -2,-0.895431 -2,-2 0,-1.10457 0.895431,-2 2,-2 z m 6,-2 m 2,2 c 1.10457,0 2,0.895431 2,2 0,1.10457 -0.895431,2 -2,2 -1.10457,0 -2,-0.895431 -2,-2 0,-1.10457 0.895431,-2 2,-2 z m 6,-2 m 2,2 c 1.10457,0 2,0.895431 2,2 0,1.10457 -0.895431,2 -2,2 -1.10457,0 -2,-0.895431 -2,-2 0,-1.10457 0.895431,-2 2,-2 z m 2,-2 m 2,2 c 1.10457,0 2,0.895431 2,2 0,1.10457 -0.895431,2 -2,2 -1.10457,0 -2,-0.895431 -2,-2 0,-1.10457 0.895431,-2 2,-2 z m 18,-2 m 2,2 c 1.10457,0 2,0.895431 2,2 0,1.10457 -0.895431,2 -2,2 -1.10457,0 -2,-0.895431 -2,-2 0,-1.10457 0.895431,-2 2,-2 z m 2,-2 m 2,2 c 1.10457,0 2,0.895431 2,2 0,1.10457 -0.895431,2 -2,2 -1.10457,0 -2,-0.895431 -2,-2 0,-1.10457 0.895431,-2 2,-2 z m 2,-2 m 2,2 c 1.10457,0 2,0.895431 2,2 0,1.10457 -0.89543,2 -2,2 -1.10457,0 -2,-0.895431 -2,-2 0,-1.10457 0.89543,-2 2,-2 z m 2,-2 m 2,2 c 1.10457,0 2,0.895431 2,2 0,1.10457 -0.89543,2 -2,2 -1.10457,0 -2,-0.895431 -2,-2 0,-1.10457 0.89543,-2 2,-2 z m 14,-2 m 2,2 c 1.10457,0 2,0.895431 2,2 0,1.10457 -0.89543,2 -2,2 -1.10457,0 -2,-0.895431 -2,-2 0,-1.10457 0.89543,-2 2,-2 z m 6,-2 m 2,2 c 1.10457,0 2,0.895431 2,2 0,1.10457 -0.89543,2 -2,2 -1.10457,0 -2,-0.895431 -2,-2 0,-1.10457 0.89543,-2 2,-2 z m 2,-2 m 2,2 c 1.10457,0 2,0.895431 2,2 0,1.10457 -0.89543,2 -2,2 -1.10457,0 -2,-0.895431 -2,-2 0,-1.10457 0.89543,-2 2,-2 z m 2,-2 m 2,2 c 1.10457,0 2,0.895431 2,2 0,1.10457 -0.89543,2 -2,2 -1.10457,0 -2,-0.895431 -2,-2 0,-1.10457 0.89543,-2 2,-2 z m 6,-2 m 2,2 c 1.10457,0 2,0.895431 2,2 0,1.10457 -0.89543,2 -2,2 -1.10457,0 -2,-0.895431 -2,-2 0,-1.10457 0.89543,-2 2,-2 z M 16,28 m 2,2 c 1.10457,0 2,0.895431 2,2 0,1.10457 -0.895431,2 -2,2 -1.10457,0 -2,-0.895431 -2,-2 0,-1.10457 0.895431,-2 2,-2 z m 6,-2 m 2,2 c 1.10457,0 2,0.895431 2,2 0,1.10457 -0.895431,2 -2,2 -1.10457,0 -2,-0.895431 -2,-2 0,-1.10457 0.895431,-2 2,-2 z m 2,-2 m 2,2 c 1.10457,0 2,0.895431 2,2 0,1.10457 -0.895431,2 -2,2 -1.10457,0 -2,-0.895431 -2,-2 0,-1.10457 0.895431,-2 2,-2 z m 2,-2 m 2,2 c 1.10457,0 2,0.895431 2,2 0,1.10457 -0.895431,2 -2,2 -1.10457,0 -2,-0.895431 -2,-2 0,-1.10457 0.895431,-2 2,-2 z m 6,-2 m 2,2 c 1.10457,0 2,0.895431 2,2 0,1.10457 -0.895431,2 -2,2 -1.10457,0 -2,-0.895431 -2,-2 0,-1.10457 0.895431,-2 2,-2 z m 14,-2 m 2,2 c 1.10457,0 2,0.895431 2,2 0,1.10457 -0.895431,2 -2,2 -1.10457,0 -2,-0.895431 -2,-2 0,-1.10457 0.895431,-2 2,-2 z m 2,-2 m 2,2 c 1.10457,0 2,0.895431 2,2 0,1.10457 -0.895431,2 -2,2 -1.10457,0 -2,-0.895431 -2,-2 0,-1.10457 0.895431,-2 2,-2 z m 10,-2 m 2,2 c 1.10457,0 2,0.895431 2,2 0,1.10457 -0.895431,2 -2,2 -1.10457,0 -2,-0.895431 -2,-2 0,-1.10457 0.895431,-2 2,-2 z m 2,-2 m 2,2 c 1.10457,0 2,0.895431 2,2 0,1.10457 -0.895431,2 -2,2 -1.10457,0 -2,-0.895431 -2,-2 0,-1.10457 0.895431,-2 2,-2 z m 6,-2 m 2,2 c 1.10457,0 2,0.895431 2,2 0,1.10457 -0.895431,2 -2,2 -1.10457,0 -2,-0.895431 -2,-2 0,-1.10457 0.895431,-2 2,-2 z m 14,-2 m 2,2 c 1.10457,0 2,0.895431 2,2 0,1.10457 -0.89543,2 -2,2 -1.10457,0 -2,-0.895431 -2,-2 0,-1.10457 0.89543,-2 2,-2 z m 2,-2 m 2,2 c 1.10457,0 2,0.895431 2,2 0,1.10457 -0.89543,2 -2,2 -1.10457,0 -2,-0.895431 -2,-2 0,-1.10457 0.89543,-2 2,-2 z m 14,-2 m 2,2 c 1.10457,0 2,0.895431 2,2 0,1.10457 -0.89543,2 -2,2 -1.10457,0 -2,-0.895431 -2,-2 0,-1.10457 0.89543,-2 2,-2 z m 6,-2 m 2,2 c 1.10457,0 2,0.895431 2,2 0,1.10457 -0.89543,2 -2,2 -1.10457,0 -2,-0.895431 -2,-2 0,-1.10457 0.89543,-2 2,-2 z m 2,-2 m 2,2 c 1.10457,0 2,0.895431 2,2 0,1.10457 -0.89543,2 -2,2 -1.10457,0 -2,-0.895431 -2,-2 0,-1.10457 0.89543,-2 2,-2 z m 2,-2 m 2,2 c 1.10457,0 2,0.895431 2,2 0,1.10457 -0.89543,2 -2,2 -1.10457,0 -2,-0.895431 -2,-2 0,-1.10457 0.89543,-2 2,-2 z m 6,-2 m 2,2 c 1.10457,0 2,0.895431 2,2 0,1.10457 -0.89543,2 -2,2 -1.10457,0 -2,-0.895431 -2,-2 0,-1.10457 0.89543,-2 2,-2 z M 16,32 m 2,2 c 1.10457,0 2,0.895431 2,2 0,1.10457 -0.895431,2 -2,2 -1.10457,0 -2,-0.895431 -2,-2 0,-1.10457 0.895431,-2 2,-2 z m 6,-2 m 2,2 c 1.10457,0 2,0.895431 2,2 0,1.10457 -0.895431,2 -2,2 -1.10457,0 -2,-0.895431 -2,-2 0,-1.10457 0.895431,-2 2,-2 z m 2,-2 m 2,2 c 1.10457,0 2,0.895431 2,2 0,1.10457 -0.895431,2 -2,2 -1.10457,0 -2,-0.895431 -2,-2 0,-1.10457 0.895431,-2 2,-2 z m 2,-2 m 2,2 c 1.10457,0 2,0.895431 2,2 0,1.10457 -0.895431,2 -2,2 -1.10457,0 -2,-0.895431 -2,-2 0,-1.10457 0.895431,-2 2,-2 z m 6,-2 m 2,2 c 1.10457,0 2,0.895431 2,2 0,1.10457 -0.895431,2 -2,2 -1.10457,0 -2,-0.895431 -2,-2 0,-1.10457 0.895431,-2 2,-2 z m 14,-2 m 2,2 c 1.10457,0 2,0.895431 2,2 0,1.10457 -0.895431,2 -2,2 -1.10457,0 -2,-0.895431 -2,-2 0,-1.10457 0.895431,-2 2,-2 z m 2,-2 m 2,2 c 1.10457,0 2,0.895431 2,2 0,1.10457 -0.895431,2 -2,2 -1.10457,0 -2,-0.895431 -2,-2 0,-1.10457 0.895431,-2 2,-2 z m 2,-2 m 2,2 c 1.10457,0 2,0.895431 2,2 0,1.10457 -0.895431,2 -2,2 -1.10457,0 -2,-0.895431 -2,-2 0,-1.10457 0.895431,-2 2,-2 z m 2,-2 m 2,2 c 1.10457,0 2,0.895431 2,2 0,1.10457 -0.895431,2 -2,2 -1.10457,0 -2,-0.895431 -2,-2 0,-1.10457 0.895431,-2 2,-2 z m 6,-2 m 2,2 c 1.10457,0 2,0.895431 2,2 0,1.10457 -0.895431,2 -2,2 -1.10457,0 -2,-0.895431 -2,-2 0,-1.10457 0.895431,-2 2,-2 z m 10,-2 m 2,2 c 1.10457,0 2,0.895431 2,2 0,1.10457 -0.895431,2 -2,2 -1.10457,0 -2,-0.895431 -2,-2 0,-1.10457 0.895431,-2 2,-2 z m 2,-2 m 2,2 c 1.10457,0 2,0.895431 2,2 0,1.10457 -0.895431,2 -2,2 -1.10457,0 -2,-0.895431 -2,-2 0,-1.10457 0.895431,-2 2,-2 z m 2,-2 m 2,2 c 1.10457,0 2,0.895431 2,2 0,1.10457 -0.895431,2 -2,2 -1.10457,0 -2,-0.895431 -2,-2 0,-1.10457 0.895431,-2 2,-2 z m 22,-2 m 2,2 c 1.10457,0 2,0.895431 2,2 0,1.10457 -0.89543,2 -2,2 -1.10457,0 -2,-0.895431 -2,-2 0,-1.10457 0.89543,-2 2,-2 z m 6,-2 m 2,2 c 1.10457,0 2,0.895431 2,2 0,1.10457 -0.89543,2 -2,2 -1.10457,0 -2,-0.895431 -2,-2 0,-1.10457 0.89543,-2 2,-2 z m 2,-2 m 2,2 c 1.10457,0 2,0.895431 2,2 0,1.10457 -0.89543,2 -2,2 -1.10457,0 -2,-0.895431 -2,-2 0,-1.10457 0.89543,-2 2,-2 z m 2,-2 m 2,2 c 1.10457,0 2,0.895431 2,2 0,1.10457 -0.89543,2 -2,2 -1.10457,0 -2,-0.895431 -2,-2 0,-1.10457 0.89543,-2 2,-2 z m 6,-2 m 2,2 c 1.10457,0 2,0.895431 2,2 0,1.10457 -0.89543,2 -2,2 -1.10457,0 -2,-0.895431 -2,-2 0,-1.10457 0.89543,-2 2,-2 z M 16,36 m 2,2 c 1.10457,0 2,0.895431 2,2 0,1.10457 -0.895431,2 -2,2 -1.10457,0 -2,-0.895431 -2,-2 0,-1.10457 0.895431,-2 2,-2 z m 22,-2 m 2,2 c 1.10457,0 2,0.895431 2,2 0,1.10457 -0.895431,2 -2,2 -1.10457,0 -2,-0.895431 -2,-2 0,-1.10457 0.895431,-2 2,-2 z m 10,-2 m 2,2 c 1.10457,0 2,0.895431 2,2 0,1.10457 -0.895431,2 -2,2 -1.10457,0 -2,-0.895431 -2,-2 0,-1.10457 0.895431,-2 2,-2 z m 6,-2 m 2,2 c 1.10457,0 2,0.895431 2,2 0,1.10457 -0.895431,2 -2,2 -1.10457,0 -2,-0.895431 -2,-2 0,-1.10457 0.895431,-2 2,-2 z m 6,-2 m 2,2 c 1.10457,0 2,0.895431 2,2 0,1.10457 -0.895431,2 -2,2 -1.10457,0 -2,-0.895431 -2,-2 0,-1.10457 0.895431,-2 2,-2 z m 2,-2 m 2,2 c 1.10457,0 2,0.895431 2,2 0,1.10457 -0.895431,2 -2,2 -1.10457,0 -2,-0.895431 -2,-2 0,-1.10457 0.895431,-2 2,-2 z m 10,-2 m 2,2 c 1.10457,0 2,0.895431 2,2 0,1.10457 -0.895431,2 -2,2 -1.10457,0 -2,-0.895431 -2,-2 0,-1.10457 0.895431,-2 2,-2 z m 14,-2 m 2,2 c 1.10457,0 2,0.895431 2,2 0,1.10457 -0.89543,2 -2,2 -1.10457,0 -2,-0.895431 -2,-2 0,-1.10457 0.89543,-2 2,-2 z m 6,-2 m 2,2 c 1.10457,0 2,0.895431 2,2 0,1.10457 -0.89543,2 -2,2 -1.10457,0 -2,-0.895431 -2,-2 0,-1.10457 0.89543,-2 2,-2 z m 10,-2 m 2,2 c 1.10457,0 2,0.895431 2,2 0,1.10457 -0.89543,2 -2,2 -1.10457,0 -2,-0.895431 -2,-2 0,-1.10457 0.89543,-2 2,-2 z m 22,-2 m 2,2 c 1.10457,0 2,0.895431 2,2 0,1.10457 -0.89543,2 -2,2 -1.10457,0 -2,-0.895431 -2,-2 0,-1.10457 0.89543,-2 2,-2 z M 16,40 m 2,2 c 1.10457,0 2,0.895431 2,2 0,1.10457 -0.895431,2 -2,2 -1.10457,0 -2,-0.895431 -2,-2 0,-1.10457 0.895431,-2 2,-2 z m 2,-2 m 2,2 c 1.10457,0 2,0.895431 2,2 0,1.10457 -0.895431,2 -2,2 -1.10457,0 -2,-0.895431 -2,-2 0,-1.10457 0.895431,-2 2,-2 z m 2,-2 m 2,2 c 1.10457,0 2,0.895431 2,2 0,1.10457 -0.895431,2 -2,2 -1.10457,0 -2,-0.895431 -2,-2 0,-1.10457 0.895431,-2 2,-2 z m 2,-2 m 2,2 c 1.10457,0 2,0.895431 2,2 0,1.10457 -0.895431,2 -2,2 -1.10457,0 -2,-0.895431 -2,-2 0,-1.10457 0.895431,-2 2,-2 z m 2,-2 m 2,2 c 1.10457,0 2,0.895431 2,2 0,1.10457 -0.895431,2 -2,2 -1.10457,0 -2,-0.895431 -2,-2 0,-1.10457 0.895431,-2 2,-2 z m 2,-2 m 2,2 c 1.10457,0 2,0.895431 2,2 0,1.10457 -0.895431,2 -2,2 -1.10457,0 -2,-0.895431 -2,-2 0,-1.10457 0.895431,-2 2,-2 z m 2,-2 m 2,2 c 1.10457,0 2,0.895431 2,2 0,1.10457 -0.895431,2 -2,2 -1.10457,0 -2,-0.895431 -2,-2 0,-1.10457 0.895431,-2 2,-2 z m 6,-2 m 2,2 c 1.10457,0 2,0.895431 2,2 0,1.10457 -0.895431,2 -2,2 -1.10457,0 -2,-0.895431 -2,-2 0,-1.10457 0.895431,-2 2,-2 z m 6,-2 m 2,2 c 1.10457,0 2,0.895431 2,2 0,1.10457 -0.895431,2 -2,2 -1.10457,0 -2,-0.895431 -2,-2 0,-1.10457 0.895431,-2 2,-2 z m 6,-2 m 2,2 c 1.10457,0 2,0.895431 2,2 0,1.10457 -0.895431,2 -2,2 -1.10457,0 -2,-0.895431 -2,-2 0,-1.10457 0.895431,-2 2,-2 z m 6,-2 m 2,2 c 1.10457,0 2,0.895431 2,2 0,1.10457 -0.895431,2 -2,2 -1.10457,0 -2,-0.895431 -2,-2 0,-1.10457 0.895431,-2 2,-2 z m 6,-2 m 2,2 c 1.10457,0 2,0.895431 2,2 0,1.10457 -0.895431,2 -2,2 -1.10457,0 -2,-0.895431 -2,-2 0,-1.10457 0.895431,-2 2,-2 z m 6,-2 m 2,2 c 1.10457,0 2,0.895431 2,2 0,1.10457 -0.895431,2 -2,2 -1.10457,0 -2,-0.895431 -2,-2 0,-1.10457 0.895431,-2 2,-2 z m 6,-2 m 2,2 c 1.10457,0 2,0.895431 2,2 0,1.10457 -0.895431,2 -2,2 -1.10457,0 -2,-0.895431 -2,-2 0,-1.10457 0.895431,-2 2,-2 z m 6,-2 m 2,2 c 1.10457,0 2,0.895431 2,2 0,1.10457 -0.89543,2 -2,2 -1.10457,0 -2,-0.895431 -2,-2 0,-1.10457 0.89543,-2 2,-2 z m 6,-2 m 2,2 c 1.10457,0 2,0.895431 2,2 0,1.10457 -0.89543,2 -2,2 -1.10457,0 -2,-0.895431 -2,-2 0,-1.10457 0.89543,-2 2,-2 z m 6,-2 m 2,2 c 1.10457,0 2,0.895431 2,2 0,1.10457 -0.89543,2 -2,2 -1.10457,0 -2,-0.895431 -2,-2 0,-1.10457 0.89543,-2 2,-2 z m 2,-2 m 2,2 c 1.10457,0 2,0.895431 2,2 0,1.10457 -0.89543,2 -2,2 -1.10457,0 -2,-0.895431 -2,-2 0,-1.10457 0.89543,-2 2,-2 z m 2,-2 m 2,2 c 1.10457,0 2,0.895431 2,2 0,1.10457 -0.89543,2 -2,2 -1.10457,0 -2,-0.895431 -2,-2 0,-1.10457 0.89543,-2 2,-2 z m 2,-2 m 2,2 c 1.10457,0 2,0.895431 2,2 0,1.10457 -0.89543,2 -2,2 -1.10457,0 -2,-0.895431 -2,-2 0,-1.10457 0.89543,-2 2,-2 z m 2,-2 m 2,2 c 1.10457,0 2,0.895431 2,2 0,1.10457 -0.89543,2 -2,2 -1.10457,0 -2,-0.895431 -2,-2 0,-1.10457 0.89543,-2 2,-2 z m 2,-2 m 2,2 c 1.10457,0 2,0.895431 2,2 0,1.10457 -0.89543,2 -2,2 -1.10457,0 -2,-0.895431 -2,-2 0,-1.10457 0.89543,-2 2,-2 z m 2,-2 m 2,2 c 1.10457,0 2,0.895431 2,2 0,1.10457 -0.89543,2 -2,2 -1.10457,0 -2,-0.895431 -2,-2 0,-1.10457 0.89543,-2 2,-2 z m -98,2 m 2,2 c 1.10457,0 2,0.895431 2,2 0,1.10457 -0.895431,2 -2,2 -1.10457,0 -2,-0.895431 -2,-2 0,-1.10457 0.895431,-2 2,-2 z m 2,-2 m 2,2 c 1.10457,0 2,0.895431 2,2 0,1.10457 -0.895431,2 -2,2 -1.10457,0 -2,-0.895431 -2,-2 0,-1.10457 0.895431,-2 2,-2 z m 10,-2 m 2,2 c 1.10457,0 2,0.895431 2,2 0,1.10457 -0.895431,2 -2,2 -1.10457,0 -2,-0.895431 -2,-2 0,-1.10457 0.895431,-2 2,-2 z m 6,-2 m 2,2 c 1.10457,0 2,0.895431 2,2 0,1.10457 -0.895431,2 -2,2 -1.10457,0 -2,-0.895431 -2,-2 0,-1.10457 0.895431,-2 2,-2 z m 14,-2 m 2,2 c 1.10457,0 2,0.895431 2,2 0,1.10457 -0.895431,2 -2,2 -1.10457,0 -2,-0.895431 -2,-2 0,-1.10457 0.895431,-2 2,-2 z m 6,-2 m 2,2 c 1.10457,0 2,0.895431 2,2 0,1.10457 -0.895431,2 -2,2 -1.10457,0 -2,-0.895431 -2,-2 0,-1.10457 0.895431,-2 2,-2 z m 14,-2 m 2,2 c 1.10457,0 2,0.895431 2,2 0,1.10457 -0.89543,2 -2,2 -1.10457,0 -2,-0.895431 -2,-2 0,-1.10457 0.89543,-2 2,-2 z m -98,2 m 2,2 c 1.10457,0 2,0.895431 2,2 0,1.10457 -0.895431,2 -2,2 -1.10457,0 -2,-0.895431 -2,-2 0,-1.10457 0.895431,-2 2,-2 z m 2,-2 m 2,2 c 1.10457,0 2,0.895431 2,2 0,1.10457 -0.895431,2 -2,2 -1.10457,0 -2,-0.895431 -2,-2 0,-1.10457 0.895431,-2 2,-2 z m 6,-2 m 2,2 c 1.10457,0 2,0.895431 2,2 0,1.10457 -0.895431,2 -2,2 -1.10457,0 -2,-0.895431 -2,-2 0,-1.10457 0.895431,-2 2,-2 z m 2,-2 m 2,2 c 1.10457,0 2,0.895431 2,2 0,1.10457 -0.895431,2 -2,2 -1.10457,0 -2,-0.895431 -2,-2 0,-1.10457 0.895431,-2 2,-2 z m 6,-2 m 2,2 c 1.10457,0 2,0.895431 2,2 0,1.10457 -0.895431,2 -2,2 -1.10457,0 -2,-0.895431 -2,-2 0,-1.10457 0.895431,-2 2,-2 z m 10,-2 m 2,2 c 1.10457,0 2,0.895431 2,2 0,1.10457 -0.895431,2 -2,2 -1.10457,0 -2,-0.895431 -2,-2 0,-1.10457 0.895431,-2 2,-2 z m 10,-2 m 2,2 c 1.10457,0 2,0.895431 2,2 0,1.10457 -0.895431,2 -2,2 -1.10457,0 -2,-0.895431 -2,-2 0,-1.10457 0.895431,-2 2,-2 z m 2,-2 m 2,2 c 1.10457,0 2,0.895431 2,2 0,1.10457 -0.895431,2 -2,2 -1.10457,0 -2,-0.895431 -2,-2 0,-1.10457 0.895431,-2 2,-2 z m 2,-2 m 2,2 c 1.10457,0 2,0.895431 2,2 0,1.10457 -0.895431,2 -2,2 -1.10457,0 -2,-0.895431 -2,-2 0,-1.10457 0.895431,-2 2,-2 z m 2,-2 m 2,2 c 1.10457,0 2,0.895431 2,2 0,1.10457 -0.895431,2 -2,2 -1.10457,0 -2,-0.895431 -2,-2 0,-1.10457 0.895431,-2 2,-2 z m 2,-2 m 2,2 c 1.10457,0 2,0.895431 2,2 0,1.10457 -0.895431,2 -2,2 -1.10457,0 -2,-0.895431 -2,-2 0,-1.10457 0.895431,-2 2,-2 z m 2,-2 m 2,2 c 1.10457,0 2,0.895431 2,2 0,1.10457 -0.895431,2 -2,2 -1.10457,0 -2,-0.895431 -2,-2 0,-1.10457 0.895431,-2 2,-2 z m 6,-2 m 2,2 c 1.10457,0 2,0.895431 2,2 0,1.10457 -0.895431,2 -2,2 -1.10457,0 -2,-0.895431 -2,-2 0,-1.10457 0.895431,-2 2,-2 z m 2,-2 m 2,2 c 1.10457,0 2,0.895431 2,2 0,1.10457 -0.895431,2 -2,2 -1.10457,0 -2,-0.895431 -2,-2 0,-1.10457 0.895431,-2 2,-2 z m 10,-2 m 2,2 c 1.10457,0 2,0.895431 2,2 0,1.10457 -0.89543,2 -2,2 -1.10457,0 -2,-0.895431 -2,-2 0,-1.10457 0.89543,-2 2,-2 z m 2,-2 m 2,2 c 1.10457,0 2,0.895431 2,2 0,1.10457 -0.89543,2 -2,2 -1.10457,0 -2,-0.895431 -2,-2 0,-1.10457 0.89543,-2 2,-2 z m 6,-2 m 2,2 c 1.10457,0 2,0.895431 2,2 0,1.10457 -0.89543,2 -2,2 -1.10457,0 -2,-0.895431 -2,-2 0,-1.10457 0.89543,-2 2,-2 z m 22,-2 m 2,2 c 1.10457,0 2,0.895431 2,2 0,1.10457 -0.89543,2 -2,2 -1.10457,0 -2,-0.895431 -2,-2 0,-1.10457 0.89543,-2 2,-2 z M 20,52 m 2,2 c 1.10457,0 2,0.895431 2,2 0,1.10457 -0.895431,2 -2,2 -1.10457,0 -2,-0.895431 -2,-2 0,-1.10457 0.895431,-2 2,-2 z m 2,-2 m 2,2 c 1.10457,0 2,0.895431 2,2 0,1.10457 -0.895431,2 -2,2 -1.10457,0 -2,-0.895431 -2,-2 0,-1.10457 0.895431,-2 2,-2 z m 2,-2 m 2,2 c 1.10457,0 2,0.895431 2,2 0,1.10457 -0.895431,2 -2,2 -1.10457,0 -2,-0.895431 -2,-2 0,-1.10457 0.895431,-2 2,-2 z m 14,-2 m 2,2 c 1.10457,0 2,0.895431 2,2 0,1.10457 -0.895431,2 -2,2 -1.10457,0 -2,-0.895431 -2,-2 0,-1.10457 0.895431,-2 2,-2 z m 10,-2 m 2,2 c 1.10457,0 2,0.895431 2,2 0,1.10457 -0.895431,2 -2,2 -1.10457,0 -2,-0.895431 -2,-2 0,-1.10457 0.895431,-2 2,-2 z m 14,-2 m 2,2 c 1.10457,0 2,0.895431 2,2 0,1.10457 -0.895431,2 -2,2 -1.10457,0 -2,-0.895431 -2,-2 0,-1.10457 0.895431,-2 2,-2 z m 18,-2 m 2,2 c 1.10457,0 2,0.895431 2,2 0,1.10457 -0.895431,2 -2,2 -1.10457,0 -2,-0.895431 -2,-2 0,-1.10457 0.895431,-2 2,-2 z m 2,-2 m 2,2 c 1.10457,0 2,0.895431 2,2 0,1.10457 -0.895431,2 -2,2 -1.10457,0 -2,-0.895431 -2,-2 0,-1.10457 0.895431,-2 2,-2 z m 6,-2 m 2,2 c 1.10457,0 2,0.895431 2,2 0,1.10457 -0.89543,2 -2,2 -1.10457,0 -2,-0.895431 -2,-2 0,-1.10457 0.89543,-2 2,-2 z m 2,-2 m 2,2 c 1.10457,0 2,0.895431 2,2 0,1.10457 -0.89543,2 -2,2 -1.10457,0 -2,-0.895431 -2,-2 0,-1.10457 0.89543,-2 2,-2 z m 14,-2 m 2,2 c 1.10457,0 2,0.895431 2,2 0,1.10457 -0.89543,2 -2,2 -1.10457,0 -2,-0.895431 -2,-2 0,-1.10457 0.89543,-2 2,-2 z m 2,-2 m 2,2 c 1.10457,0 2,0.895431 2,2 0,1.10457 -0.89543,2 -2,2 -1.10457,0 -2,-0.895431 -2,-2 0,-1.10457 0.89543,-2 2,-2 z m 6,-2 m 2,2 c 1.10457,0 2,0.895431 2,2 0,1.10457 -0.89543,2 -2,2 -1.10457,0 -2,-0.895431 -2,-2 0,-1.10457 0.89543,-2 2,-2 z m 2,-2 m 2,2 c 1.10457,0 2,0.895431 2,2 0,1.10457 -0.89543,2 -2,2 -1.10457,0 -2,-0.895431 -2,-2 0,-1.10457 0.89543,-2 2,-2 z M 20,56 m 2,2 c 1.10457,0 2,0.895431 2,2 0,1.10457 -0.895431,2 -2,2 -1.10457,0 -2,-0.895431 -2,-2 0,-1.10457 0.895431,-2 2,-2 z m 2,-2 m 2,2 c 1.10457,0 2,0.895431 2,2 0,1.10457 -0.895431,2 -2,2 -1.10457,0 -2,-0.895431 -2,-2 0,-1.10457 0.895431,-2 2,-2 z m 6,-2 m 2,2 c 1.10457,0 2,0.895431 2,2 0,1.10457 -0.895431,2 -2,2 -1.10457,0 -2,-0.895431 -2,-2 0,-1.10457 0.895431,-2 2,-2 z m 6,-2 m 2,2 c 1.10457,0 2,0.895431 2,2 0,1.10457 -0.895431,2 -2,2 -1.10457,0 -2,-0.895431 -2,-2 0,-1.10457 0.895431,-2 2,-2 z m 10,-2 m 2,2 c 1.10457,0 2,0.895431 2,2 0,1.10457 -0.895431,2 -2,2 -1.10457,0 -2,-0.895431 -2,-2 0,-1.10457 0.895431,-2 2,-2 z m 10,-2 m 2,2 c 1.10457,0 2,0.895431 2,2 0,1.10457 -0.895431,2 -2,2 -1.10457,0 -2,-0.895431 -2,-2 0,-1.10457 0.895431,-2 2,-2 z m 6,-2 m 2,2 c 1.10457,0 2,0.895431 2,2 0,1.10457 -0.895431,2 -2,2 -1.10457,0 -2,-0.895431 -2,-2 0,-1.10457 0.895431,-2 2,-2 z m 10,-2 m 2,2 c 1.10457,0 2,0.895431 2,2 0,1.10457 -0.895431,2 -2,2 -1.10457,0 -2,-0.895431 -2,-2 0,-1.10457 0.895431,-2 2,-2 z m 2,-2 m 2,2 c 1.10457,0 2,0.895431 2,2 0,1.10457 -0.895431,2 -2,2 -1.10457,0 -2,-0.895431 -2,-2 0,-1.10457 0.895431,-2 2,-2 z m 6,-2 m 2,2 c 1.10457,0 2,0.895431 2,2 0,1.10457 -0.895431,2 -2,2 -1.10457,0 -2,-0.895431 -2,-2 0,-1.10457 0.895431,-2 2,-2 z m 2,-2 m 2,2 c 1.10457,0 2,0.895431 2,2 0,1.10457 -0.89543,2 -2,2 -1.10457,0 -2,-0.895431 -2,-2 0,-1.10457 0.89543,-2 2,-2 z m 2,-2 m 2,2 c 1.10457,0 2,0.895431 2,2 0,1.10457 -0.89543,2 -2,2 -1.10457,0 -2,-0.895431 -2,-2 0,-1.10457 0.89543,-2 2,-2 z m 2,-2 m 2,2 c 1.10457,0 2,0.895431 2,2 0,1.10457 -0.89543,2 -2,2 -1.10457,0 -2,-0.895431 -2,-2 0,-1.10457 0.89543,-2 2,-2 z m 6,-2 m 2,2 c 1.10457,0 2,0.895431 2,2 0,1.10457 -0.89543,2 -2,2 -1.10457,0 -2,-0.895431 -2,-2 0,-1.10457 0.89543,-2 2,-2 z m 2,-2 m 2,2 c 1.10457,0 2,0.895431 2,2 0,1.10457 -0.89543,2 -2,2 -1.10457,0 -2,-0.895431 -2,-2 0,-1.10457 0.89543,-2 2,-2 z m 2,-2 m 2,2 c 1.10457,0 2,0.895431 2,2 0,1.10457 -0.89543,2 -2,2 -1.10457,0 -2,-0.895431 -2,-2 0,-1.10457 0.89543,-2 2,-2 z m 14,-2 m 2,2 c 1.10457,0 2,0.895431 2,2 0,1.10457 -0.89543,2 -2,2 -1.10457,0 -2,-0.895431 -2,-2 0,-1.10457 0.89543,-2 2,-2 z m 2,-2 m 2,2 c 1.10457,0 2,0.895431 2,2 0,1.10457 -0.89543,2 -2,2 -1.10457,0 -2,-0.895431 -2,-2 0,-1.10457 0.89543,-2 2,-2 z M 20,60 m 2,2 c 1.10457,0 2,0.895431 2,2 0,1.10457 -0.895431,2 -2,2 -1.10457,0 -2,-0.895431 -2,-2 0,-1.10457 0.895431,-2 2,-2 z m 2,-2 m 2,2 c 1.10457,0 2,0.895431 2,2 0,1.10457 -0.895431,2 -2,2 -1.10457,0 -2,-0.895431 -2,-2 0,-1.10457 0.895431,-2 2,-2 z m 6,-2 m 2,2 c 1.10457,0 2,0.895431 2,2 0,1.10457 -0.895431,2 -2,2 -1.10457,0 -2,-0.895431 -2,-2 0,-1.10457 0.895431,-2 2,-2 z m 2,-2 m 2,2 c 1.10457,0 2,0.895431 2,2 0,1.10457 -0.895431,2 -2,2 -1.10457,0 -2,-0.895431 -2,-2 0,-1.10457 0.895431,-2 2,-2 z m 6,-2 m 2,2 c 1.10457,0 2,0.895431 2,2 0,1.10457 -0.895431,2 -2,2 -1.10457,0 -2,-0.895431 -2,-2 0,-1.10457 0.895431,-2 2,-2 z m 26,-2 m 2,2 c 1.10457,0 2,0.895431 2,2 0,1.10457 -0.895431,2 -2,2 -1.10457,0 -2,-0.895431 -2,-2 0,-1.10457 0.895431,-2 2,-2 z m 2,-2 m 2,2 c 1.10457,0 2,0.895431 2,2 0,1.10457 -0.895431,2 -2,2 -1.10457,0 -2,-0.895431 -2,-2 0,-1.10457 0.895431,-2 2,-2 z m 6,-2 m 2,2 c 1.10457,0 2,0.895431 2,2 0,1.10457 -0.895431,2 -2,2 -1.10457,0 -2,-0.895431 -2,-2 0,-1.10457 0.895431,-2 2,-2 z m 2,-2 m 2,2 c 1.10457,0 2,0.895431 2,2 0,1.10457 -0.895431,2 -2,2 -1.10457,0 -2,-0.895431 -2,-2 0,-1.10457 0.895431,-2 2,-2 z m 22,-2 m 2,2 c 1.10457,0 2,0.895431 2,2 0,1.10457 -0.89543,2 -2,2 -1.10457,0 -2,-0.895431 -2,-2 0,-1.10457 0.89543,-2 2,-2 z m 2,-2 m 2,2 c 1.10457,0 2,0.895431 2,2 0,1.10457 -0.89543,2 -2,2 -1.10457,0 -2,-0.895431 -2,-2 0,-1.10457 0.89543,-2 2,-2 z m 6,-2 m 2,2 c 1.10457,0 2,0.895431 2,2 0,1.10457 -0.89543,2 -2,2 -1.10457,0 -2,-0.895431 -2,-2 0,-1.10457 0.89543,-2 2,-2 z m 6,-2 m 2,2 c 1.10457,0 2,0.895431 2,2 0,1.10457 -0.89543,2 -2,2 -1.10457,0 -2,-0.895431 -2,-2 0,-1.10457 0.89543,-2 2,-2 z m 2,-2 m 2,2 c 1.10457,0 2,0.895431 2,2 0,1.10457 -0.89543,2 -2,2 -1.10457,0 -2,-0.895431 -2,-2 0,-1.10457 0.89543,-2 2,-2 z M 16,64 m 2,2 c 1.10457,0 2,0.895431 2,2 0,1.10457 -0.895431,2 -2,2 -1.10457,0 -2,-0.895431 -2,-2 0,-1.10457 0.895431,-2 2,-2 z m 2,-2 m 2,2 c 1.10457,0 2,0.895431 2,2 0,1.10457 -0.895431,2 -2,2 -1.10457,0 -2,-0.895431 -2,-2 0,-1.10457 0.895431,-2 2,-2 z m 2,-2 m 2,2 c 1.10457,0 2,0.895431 2,2 0,1.10457 -0.895431,2 -2,2 -1.10457,0 -2,-0.895431 -2,-2 0,-1.10457 0.895431,-2 2,-2 z m 6,-2 m 2,2 c 1.10457,0 2,0.895431 2,2 0,1.10457 -0.895431,2 -2,2 -1.10457,0 -2,-0.895431 -2,-2 0,-1.10457 0.895431,-2 2,-2 z m 6,-2 m 2,2 c 1.10457,0 2,0.895431 2,2 0,1.10457 -0.895431,2 -2,2 -1.10457,0 -2,-0.895431 -2,-2 0,-1.10457 0.895431,-2 2,-2 z m 10,-2 m 2,2 c 1.10457,0 2,0.895431 2,2 0,1.10457 -0.895431,2 -2,2 -1.10457,0 -2,-0.895431 -2,-2 0,-1.10457 0.895431,-2 2,-2 z m 2,-2 m 2,2 c 1.10457,0 2,0.895431 2,2 0,1.10457 -0.895431,2 -2,2 -1.10457,0 -2,-0.895431 -2,-2 0,-1.10457 0.895431,-2 2,-2 z m 10,-2 m 2,2 c 1.10457,0 2,0.895431 2,2 0,1.10457 -0.895431,2 -2,2 -1.10457,0 -2,-0.895431 -2,-2 0,-1.10457 0.895431,-2 2,-2 z m 2,-2 m 2,2 c 1.10457,0 2,0.895431 2,2 0,1.10457 -0.895431,2 -2,2 -1.10457,0 -2,-0.895431 -2,-2 0,-1.10457 0.895431,-2 2,-2 z m 6,-2 m 2,2 c 1.10457,0 2,0.895431 2,2 0,1.10457 -0.895431,2 -2,2 -1.10457,0 -2,-0.895431 -2,-2 0,-1.10457 0.895431,-2 2,-2 z m 10,-2 m 2,2 c 1.10457,0 2,0.895431 2,2 0,1.10457 -0.895431,2 -2,2 -1.10457,0 -2,-0.895431 -2,-2 0,-1.10457 0.895431,-2 2,-2 z m 14,-2 m 2,2 c 1.10457,0 2,0.895431 2,2 0,1.10457 -0.89543,2 -2,2 -1.10457,0 -2,-0.895431 -2,-2 0,-1.10457 0.89543,-2 2,-2 z m 6,-2 m 2,2 c 1.10457,0 2,0.895431 2,2 0,1.10457 -0.89543,2 -2,2 -1.10457,0 -2,-0.895431 -2,-2 0,-1.10457 0.89543,-2 2,-2 z m 2,-2 m 2,2 c 1.10457,0 2,0.895431 2,2 0,1.10457 -0.89543,2 -2,2 -1.10457,0 -2,-0.895431 -2,-2 0,-1.10457 0.89543,-2 2,-2 z m 2,-2 m 2,2 c 1.10457,0 2,0.895431 2,2 0,1.10457 -0.89543,2 -2,2 -1.10457,0 -2,-0.895431 -2,-2 0,-1.10457 0.89543,-2 2,-2 z m 14,-2 m 2,2 c 1.10457,0 2,0.895431 2,2 0,1.10457 -0.89543,2 -2,2 -1.10457,0 -2,-0.895431 -2,-2 0,-1.10457 0.89543,-2 2,-2 z m 2,-2 m 2,2 c 1.10457,0 2,0.895431 2,2 0,1.10457 -0.89543,2 -2,2 -1.10457,0 -2,-0.895431 -2,-2 0,-1.10457 0.89543,-2 2,-2 z M 16,68 m 2,2 c 1.10457,0 2,0.895431 2,2 0,1.10457 -0.895431,2 -2,2 -1.10457,0 -2,-0.895431 -2,-2 0,-1.10457 0.895431,-2 2,-2 z m 2,-2 m 2,2 c 1.10457,0 2,0.895431 2,2 0,1.10457 -0.895431,2 -2,2 -1.10457,0 -2,-0.895431 -2,-2 0,-1.10457 0.895431,-2 2,-2 z m 6,-2 m 2,2 c 1.10457,0 2,0.895431 2,2 0,1.10457 -0.895431,2 -2,2 -1.10457,0 -2,-0.895431 -2,-2 0,-1.10457 0.895431,-2 2,-2 z m 6,-2 m 2,2 c 1.10457,0 2,0.895431 2,2 0,1.10457 -0.895431,2 -2,2 -1.10457,0 -2,-0.895431 -2,-2 0,-1.10457 0.895431,-2 2,-2 z m 6,-2 m 2,2 c 1.10457,0 2,0.895431 2,2 0,1.10457 -0.895431,2 -2,2 -1.10457,0 -2,-0.895431 -2,-2 0,-1.10457 0.895431,-2 2,-2 z m 2,-2 m 2,2 c 1.10457,0 2,0.895431 2,2 0,1.10457 -0.895431,2 -2,2 -1.10457,0 -2,-0.895431 -2,-2 0,-1.10457 0.895431,-2 2,-2 z m 6,-2 m 2,2 c 1.10457,0 2,0.895431 2,2 0,1.10457 -0.895431,2 -2,2 -1.10457,0 -2,-0.895431 -2,-2 0,-1.10457 0.895431,-2 2,-2 z m 6,-2 m 2,2 c 1.10457,0 2,0.895431 2,2 0,1.10457 -0.895431,2 -2,2 -1.10457,0 -2,-0.895431 -2,-2 0,-1.10457 0.895431,-2 2,-2 z m 22,-2 m 2,2 c 1.10457,0 2,0.895431 2,2 0,1.10457 -0.895431,2 -2,2 -1.10457,0 -2,-0.895431 -2,-2 0,-1.10457 0.895431,-2 2,-2 z m 6,-2 m 2,2 c 1.10457,0 2,0.895431 2,2 0,1.10457 -0.895431,2 -2,2 -1.10457,0 -2,-0.895431 -2,-2 0,-1.10457 0.895431,-2 2,-2 z m 6,-2 m 2,2 c 1.10457,0 2,0.895431 2,2 0,1.10457 -0.89543,2 -2,2 -1.10457,0 -2,-0.895431 -2,-2 0,-1.10457 0.89543,-2 2,-2 z m 2,-2 m 2,2 c 1.10457,0 2,0.895431 2,2 0,1.10457 -0.89543,2 -2,2 -1.10457,0 -2,-0.895431 -2,-2 0,-1.10457 0.89543,-2 2,-2 z m 6,-2 m 2,2 c 1.10457,0 2,0.895431 2,2 0,1.10457 -0.89543,2 -2,2 -1.10457,0 -2,-0.895431 -2,-2 0,-1.10457 0.89543,-2 2,-2 z m 6,-2 m 2,2 c 1.10457,0 2,0.895431 2,2 0,1.10457 -0.89543,2 -2,2 -1.10457,0 -2,-0.895431 -2,-2 0,-1.10457 0.89543,-2 2,-2 z M 16,72 m 2,2 c 1.10457,0 2,0.895431 2,2 0,1.10457 -0.895431,2 -2,2 -1.10457,0 -2,-0.895431 -2,-2 0,-1.10457 0.895431,-2 2,-2 z m 6,-2 m 2,2 c 1.10457,0 2,0.895431 2,2 0,1.10457 -0.895431,2 -2,2 -1.10457,0 -2,-0.895431 -2,-2 0,-1.10457 0.895431,-2 2,-2 z m 2,-2 m 2,2 c 1.10457,0 2,0.895431 2,2 0,1.10457 -0.895431,2 -2,2 -1.10457,0 -2,-0.895431 -2,-2 0,-1.10457 0.895431,-2 2,-2 z m 10,-2 m 2,2 c 1.10457,0 2,0.895431 2,2 0,1.10457 -0.895431,2 -2,2 -1.10457,0 -2,-0.895431 -2,-2 0,-1.10457 0.895431,-2 2,-2 z m 2,-2 m 2,2 c 1.10457,0 2,0.895431 2,2 0,1.10457 -0.895431,2 -2,2 -1.10457,0 -2,-0.895431 -2,-2 0,-1.10457 0.895431,-2 2,-2 z m 2,-2 m 2,2 c 1.10457,0 2,0.895431 2,2 0,1.10457 -0.895431,2 -2,2 -1.10457,0 -2,-0.895431 -2,-2 0,-1.10457 0.895431,-2 2,-2 z m 2,-2 m 2,2 c 1.10457,0 2,0.895431 2,2 0,1.10457 -0.895431,2 -2,2 -1.10457,0 -2,-0.895431 -2,-2 0,-1.10457 0.895431,-2 2,-2 z m 2,-2 m 2,2 c 1.10457,0 2,0.895431 2,2 0,1.10457 -0.895431,2 -2,2 -1.10457,0 -2,-0.895431 -2,-2 0,-1.10457 0.895431,-2 2,-2 z m 14,-2 m 2,2 c 1.10457,0 2,0.895431 2,2 0,1.10457 -0.895431,2 -2,2 -1.10457,0 -2,-0.895431 -2,-2 0,-1.10457 0.895431,-2 2,-2 z m 2,-2 m 2,2 c 1.10457,0 2,0.895431 2,2 0,1.10457 -0.895431,2 -2,2 -1.10457,0 -2,-0.895431 -2,-2 0,-1.10457 0.895431,-2 2,-2 z m 14,-2 m 2,2 c 1.10457,0 2,0.895431 2,2 0,1.10457 -0.895431,2 -2,2 -1.10457,0 -2,-0.895431 -2,-2 0,-1.10457 0.895431,-2 2,-2 z m 6,-2 m 2,2 c 1.10457,0 2,0.895431 2,2 0,1.10457 -0.89543,2 -2,2 -1.10457,0 -2,-0.895431 -2,-2 0,-1.10457 0.89543,-2 2,-2 z m 18,-2 m 2,2 c 1.10457,0 2,0.895431 2,2 0,1.10457 -0.89543,2 -2,2 -1.10457,0 -2,-0.895431 -2,-2 0,-1.10457 0.89543,-2 2,-2 z m 6,-2 m 2,2 c 1.10457,0 2,0.895431 2,2 0,1.10457 -0.89543,2 -2,2 -1.10457,0 -2,-0.895431 -2,-2 0,-1.10457 0.89543,-2 2,-2 z M 16,76 m 2,2 c 1.10457,0 2,0.895431 2,2 0,1.10457 -0.895431,2 -2,2 -1.10457,0 -2,-0.895431 -2,-2 0,-1.10457 0.895431,-2 2,-2 z m 2,-2 m 2,2 c 1.10457,0 2,0.895431 2,2 0,1.10457 -0.895431,2 -2,2 -1.10457,0 -2,-0.895431 -2,-2 0,-1.10457 0.895431,-2 2,-2 z m 6,-2 m 2,2 c 1.10457,0 2,0.895431 2,2 0,1.10457 -0.895431,2 -2,2 -1.10457,0 -2,-0.895431 -2,-2 0,-1.10457 0.895431,-2 2,-2 z m 2,-2 m 2,2 c 1.10457,0 2,0.895431 2,2 0,1.10457 -0.895431,2 -2,2 -1.10457,0 -2,-0.895431 -2,-2 0,-1.10457 0.895431,-2 2,-2 z m 2,-2 m 2,2 c 1.10457,0 2,0.895431 2,2 0,1.10457 -0.895431,2 -2,2 -1.10457,0 -2,-0.895431 -2,-2 0,-1.10457 0.895431,-2 2,-2 z m 26,-2 m 2,2 c 1.10457,0 2,0.895431 2,2 0,1.10457 -0.895431,2 -2,2 -1.10457,0 -2,-0.895431 -2,-2 0,-1.10457 0.895431,-2 2,-2 z m 2,-2 m 2,2 c 1.10457,0 2,0.895431 2,2 0,1.10457 -0.895431,2 -2,2 -1.10457,0 -2,-0.895431 -2,-2 0,-1.10457 0.895431,-2 2,-2 z m 2,-2 m 2,2 c 1.10457,0 2,0.895431 2,2 0,1.10457 -0.895431,2 -2,2 -1.10457,0 -2,-0.895431 -2,-2 0,-1.10457 0.895431,-2 2,-2 z m 2,-2 m 2,2 c 1.10457,0 2,0.895431 2,2 0,1.10457 -0.895431,2 -2,2 -1.10457,0 -2,-0.895431 -2,-2 0,-1.10457 0.895431,-2 2,-2 z m 10,-2 m 2,2 c 1.10457,0 2,0.895431 2,2 0,1.10457 -0.895431,2 -2,2 -1.10457,0 -2,-0.895431 -2,-2 0,-1.10457 0.895431,-2 2,-2 z m 2,-2 m 2,2 c 1.10457,0 2,0.895431 2,2 0,1.10457 -0.895431,2 -2,2 -1.10457,0 -2,-0.895431 -2,-2 0,-1.10457 0.895431,-2 2,-2 z m 2,-2 m 2,2 c 1.10457,0 2,0.895431 2,2 0,1.10457 -0.895431,2 -2,2 -1.10457,0 -2,-0.895431 -2,-2 0,-1.10457 0.895431,-2 2,-2 z m 18,-2 m 2,2 c 1.10457,0 2,0.895431 2,2 0,1.10457 -0.89543,2 -2,2 -1.10457,0 -2,-0.895431 -2,-2 0,-1.10457 0.89543,-2 2,-2 z m 2,-2 m 2,2 c 1.10457,0 2,0.895431 2,2 0,1.10457 -0.89543,2 -2,2 -1.10457,0 -2,-0.895431 -2,-2 0,-1.10457 0.89543,-2 2,-2 z m 6,-2 m 2,2 c 1.10457,0 2,0.895431 2,2 0,1.10457 -0.89543,2 -2,2 -1.10457,0 -2,-0.895431 -2,-2 0,-1.10457 0.89543,-2 2,-2 z m 6,-2 m 2,2 c 1.10457,0 2,0.895431 2,2 0,1.10457 -0.89543,2 -2,2 -1.10457,0 -2,-0.895431 -2,-2 0,-1.10457 0.89543,-2 2,-2 z m 6,-2 m 2,2 c 1.10457,0 2,0.895431 2,2 0,1.10457 -0.89543,2 -2,2 -1.10457,0 -2,-0.895431 -2,-2 0,-1.10457 0.89543,-2 2,-2 z M 24,80 m 2,2 c 1.10457,0 2,0.895431 2,2 0,1.10457 -0.895431,2 -2,2 -1.10457,0 -2,-0.895431 -2,-2 0,-1.10457 0.895431,-2 2,-2 z m 6,-2 m 2,2 c 1.10457,0 2,0.895431 2,2 0,1.10457 -0.895431,2 -2,2 -1.10457,0 -2,-0.895431 -2,-2 0,-1.10457 0.895431,-2 2,-2 z m 6,-2 m 2,2 c 1.10457,0 2,0.895431 2,2 0,1.10457 -0.895431,2 -2,2 -1.10457,0 -2,-0.895431 -2,-2 0,-1.10457 0.895431,-2 2,-2 z m 6,-2 m 2,2 c 1.10457,0 2,0.895431 2,2 0,1.10457 -0.895431,2 -2,2 -1.10457,0 -2,-0.895431 -2,-2 0,-1.10457 0.895431,-2 2,-2 z m 10,-2 m 2,2 c 1.10457,0 2,0.895431 2,2 0,1.10457 -0.895431,2 -2,2 -1.10457,0 -2,-0.895431 -2,-2 0,-1.10457 0.895431,-2 2,-2 z m 2,-2 m 2,2 c 1.10457,0 2,0.895431 2,2 0,1.10457 -0.895431,2 -2,2 -1.10457,0 -2,-0.895431 -2,-2 0,-1.10457 0.895431,-2 2,-2 z m 18,-2 m 2,2 c 1.10457,0 2,0.895431 2,2 0,1.10457 -0.895431,2 -2,2 -1.10457,0 -2,-0.895431 -2,-2 0,-1.10457 0.895431,-2 2,-2 z m 22,-2 m 2,2 c 1.10457,0 2,0.895431 2,2 0,1.10457 -0.89543,2 -2,2 -1.10457,0 -2,-0.895431 -2,-2 0,-1.10457 0.89543,-2 2,-2 z m 6,-2 m 2,2 c 1.10457,0 2,0.895431 2,2 0,1.10457 -0.89543,2 -2,2 -1.10457,0 -2,-0.895431 -2,-2 0,-1.10457 0.89543,-2 2,-2 z m 2,-2 m 2,2 c 1.10457,0 2,0.895431 2,2 0,1.10457 -0.89543,2 -2,2 -1.10457,0 -2,-0.895431 -2,-2 0,-1.10457 0.89543,-2 2,-2 z m 2,-2 m 2,2 c 1.10457,0 2,0.895431 2,2 0,1.10457 -0.89543,2 -2,2 -1.10457,0 -2,-0.895431 -2,-2 0,-1.10457 0.89543,-2 2,-2 z m 2,-2 m 2,2 c 1.10457,0 2,0.895431 2,2 0,1.10457 -0.89543,2 -2,2 -1.10457,0 -2,-0.895431 -2,-2 0,-1.10457 0.89543,-2 2,-2 z m 2,-2 m 2,2 c 1.10457,0 2,0.895431 2,2 0,1.10457 -0.89543,2 -2,2 -1.10457,0 -2,-0.895431 -2,-2 0,-1.10457 0.89543,-2 2,-2 z m 6,-2 m 2,2 c 1.10457,0 2,0.895431 2,2 0,1.10457 -0.89543,2 -2,2 -1.10457,0 -2,-0.895431 -2,-2 0,-1.10457 0.89543,-2 2,-2 z m 2,-2 m 2,2 c 1.10457,0 2,0.895431 2,2 0,1.10457 -0.89543,2 -2,2 -1.10457,0 -2,-0.895431 -2,-2 0,-1.10457 0.89543,-2 2,-2 z M 16,84 m 2,2 c 1.10457,0 2,0.895431 2,2 0,1.10457 -0.895431,2 -2,2 -1.10457,0 -2,-0.895431 -2,-2 0,-1.10457 0.895431,-2 2,-2 z m 2,-2 m 2,2 c 1.10457,0 2,0.895431 2,2 0,1.10457 -0.895431,2 -2,2 -1.10457,0 -2,-0.895431 -2,-2 0,-1.10457 0.895431,-2 2,-2 z m 10,-2 m 2,2 c 1.10457,0 2,0.895431 2,2 0,1.10457 -0.895431,2 -2,2 -1.10457,0 -2,-0.895431 -2,-2 0,-1.10457 0.895431,-2 2,-2 z m 18,-2 m 2,2 c 1.10457,0 2,0.895431 2,2 0,1.10457 -0.895431,2 -2,2 -1.10457,0 -2,-0.895431 -2,-2 0,-1.10457 0.895431,-2 2,-2 z m 6,-2 m 2,2 c 1.10457,0 2,0.895431 2,2 0,1.10457 -0.895431,2 -2,2 -1.10457,0 -2,-0.895431 -2,-2 0,-1.10457 0.895431,-2 2,-2 z m 14,-2 m 2,2 c 1.10457,0 2,0.895431 2,2 0,1.10457 -0.895431,2 -2,2 -1.10457,0 -2,-0.895431 -2,-2 0,-1.10457 0.895431,-2 2,-2 z m 2,-2 m 2,2 c 1.10457,0 2,0.895431 2,2 0,1.10457 -0.895431,2 -2,2 -1.10457,0 -2,-0.895431 -2,-2 0,-1.10457 0.895431,-2 2,-2 z m 10,-2 m 2,2 c 1.10457,0 2,0.895431 2,2 0,1.10457 -0.895431,2 -2,2 -1.10457,0 -2,-0.895431 -2,-2 0,-1.10457 0.895431,-2 2,-2 z m 6,-2 m 2,2 c 1.10457,0 2,0.895431 2,2 0,1.10457 -0.89543,2 -2,2 -1.10457,0 -2,-0.895431 -2,-2 0,-1.10457 0.89543,-2 2,-2 z m 2,-2 m 2,2 c 1.10457,0 2,0.895431 2,2 0,1.10457 -0.89543,2 -2,2 -1.10457,0 -2,-0.895431 -2,-2 0,-1.10457 0.89543,-2 2,-2 z m 14,-2 m 2,2 c 1.10457,0 2,0.895431 2,2 0,1.10457 -0.89543,2 -2,2 -1.10457,0 -2,-0.895431 -2,-2 0,-1.10457 0.89543,-2 2,-2 z m 2,-2 m 2,2 c 1.10457,0 2,0.895431 2,2 0,1.10457 -0.89543,2 -2,2 -1.10457,0 -2,-0.895431 -2,-2 0,-1.10457 0.89543,-2 2,-2 z m 2,-2 m 2,2 c 1.10457,0 2,0.895431 2,2 0,1.10457 -0.89543,2 -2,2 -1.10457,0 -2,-0.895431 -2,-2 0,-1.10457 0.89543,-2 2,-2 z m 10,-2 m 2,2 c 1.10457,0 2,0.895431 2,2 0,1.10457 -0.89543,2 -2,2 -1.10457,0 -2,-0.895431 -2,-2 0,-1.10457 0.89543,-2 2,-2 z m 2,-2 m 2,2 c 1.10457,0 2,0.895431 2,2 0,1.10457 -0.89543,2 -2,2 -1.10457,0 -2,-0.895431 -2,-2 0,-1.10457 0.89543,-2 2,-2 z M 16,88 m 2,2 c 1.10457,0 2,0.895431 2,2 0,1.10457 -0.895431,2 -2,2 -1.10457,0 -2,-0.895431 -2,-2 0,-1.10457 0.895431,-2 2,-2 z m 6,-2 m 2,2 c 1.10457,0 2,0.895431 2,2 0,1.10457 -0.895431,2 -2,2 -1.10457,0 -2,-0.895431 -2,-2 0,-1.10457 0.895431,-2 2,-2 z m 2,-2 m 2,2 c 1.10457,0 2,0.895431 2,2 0,1.10457 -0.895431,2 -2,2 -1.10457,0 -2,-0.895431 -2,-2 0,-1.10457 0.895431,-2 2,-2 z m 2,-2 m 2,2 c 1.10457,0 2,0.895431 2,2 0,1.10457 -0.895431,2 -2,2 -1.10457,0 -2,-0.895431 -2,-2 0,-1.10457 0.895431,-2 2,-2 z m 6,-2 m 2,2 c 1.10457,0 2,0.895431 2,2 0,1.10457 -0.895431,2 -2,2 -1.10457,0 -2,-0.895431 -2,-2 0,-1.10457 0.895431,-2 2,-2 z m 10,-2 m 2,2 c 1.10457,0 2,0.895431 2,2 0,1.10457 -0.895431,2 -2,2 -1.10457,0 -2,-0.895431 -2,-2 0,-1.10457 0.895431,-2 2,-2 z m 2,-2 m 2,2 c 1.10457,0 2,0.895431 2,2 0,1.10457 -0.895431,2 -2,2 -1.10457,0 -2,-0.895431 -2,-2 0,-1.10457 0.895431,-2 2,-2 z m 6,-2 m 2,2 c 1.10457,0 2,0.895431 2,2 0,1.10457 -0.895431,2 -2,2 -1.10457,0 -2,-0.895431 -2,-2 0,-1.10457 0.895431,-2 2,-2 z m 2,-2 m 2,2 c 1.10457,0 2,0.895431 2,2 0,1.10457 -0.895431,2 -2,2 -1.10457,0 -2,-0.895431 -2,-2 0,-1.10457 0.895431,-2 2,-2 z m 2,-2 m 2,2 c 1.10457,0 2,0.895431 2,2 0,1.10457 -0.895431,2 -2,2 -1.10457,0 -2,-0.895431 -2,-2 0,-1.10457 0.895431,-2 2,-2 z m 2,-2 m 2,2 c 1.10457,0 2,0.895431 2,2 0,1.10457 -0.895431,2 -2,2 -1.10457,0 -2,-0.895431 -2,-2 0,-1.10457 0.895431,-2 2,-2 z m 14,-2 m 2,2 c 1.10457,0 2,0.895431 2,2 0,1.10457 -0.895431,2 -2,2 -1.10457,0 -2,-0.895431 -2,-2 0,-1.10457 0.895431,-2 2,-2 z m 14,-2 m 2,2 c 1.10457,0 2,0.895431 2,2 0,1.10457 -0.89543,2 -2,2 -1.10457,0 -2,-0.895431 -2,-2 0,-1.10457 0.89543,-2 2,-2 z m 14,-2 m 2,2 c 1.10457,0 2,0.895431 2,2 0,1.10457 -0.89543,2 -2,2 -1.10457,0 -2,-0.895431 -2,-2 0,-1.10457 0.89543,-2 2,-2 z m 2,-2 m 2,2 c 1.10457,0 2,0.895431 2,2 0,1.10457 -0.89543,2 -2,2 -1.10457,0 -2,-0.895431 -2,-2 0,-1.10457 0.89543,-2 2,-2 z m 14,-2 m 2,2 c 1.10457,0 2,0.895431 2,2 0,1.10457 -0.89543,2 -2,2 -1.10457,0 -2,-0.895431 -2,-2 0,-1.10457 0.89543,-2 2,-2 z M 28,92 m 2,2 c 1.10457,0 2,0.895431 2,2 0,1.10457 -0.895431,2 -2,2 -1.10457,0 -2,-0.895431 -2,-2 0,-1.10457 0.895431,-2 2,-2 z m 2,-2 m 2,2 c 1.10457,0 2,0.895431 2,2 0,1.10457 -0.895431,2 -2,2 -1.10457,0 -2,-0.895431 -2,-2 0,-1.10457 0.895431,-2 2,-2 z m 10,-2 m 2,2 c 1.10457,0 2,0.895431 2,2 0,1.10457 -0.895431,2 -2,2 -1.10457,0 -2,-0.895431 -2,-2 0,-1.10457 0.895431,-2 2,-2 z m 2,-2 m 2,2 c 1.10457,0 2,0.895431 2,2 0,1.10457 -0.895431,2 -2,2 -1.10457,0 -2,-0.895431 -2,-2 0,-1.10457 0.895431,-2 2,-2 z m 10,-2 m 2,2 c 1.10457,0 2,0.895431 2,2 0,1.10457 -0.895431,2 -2,2 -1.10457,0 -2,-0.895431 -2,-2 0,-1.10457 0.895431,-2 2,-2 z m 6,-2 m 2,2 c 1.10457,0 2,0.895431 2,2 0,1.10457 -0.895431,2 -2,2 -1.10457,0 -2,-0.895431 -2,-2 0,-1.10457 0.895431,-2 2,-2 z m 10,-2 m 2,2 c 1.10457,0 2,0.895431 2,2 0,1.10457 -0.895431,2 -2,2 -1.10457,0 -2,-0.895431 -2,-2 0,-1.10457 0.895431,-2 2,-2 z m 22,-2 m 2,2 c 1.10457,0 2,0.895431 2,2 0,1.10457 -0.89543,2 -2,2 -1.10457,0 -2,-0.895431 -2,-2 0,-1.10457 0.89543,-2 2,-2 z m 6,-2 m 2,2 c 1.10457,0 2,0.895431 2,2 0,1.10457 -0.89543,2 -2,2 -1.10457,0 -2,-0.895431 -2,-2 0,-1.10457 0.89543,-2 2,-2 z m 10,-2 m 2,2 c 1.10457,0 2,0.895431 2,2 0,1.10457 -0.89543,2 -2,2 -1.10457,0 -2,-0.895431 -2,-2 0,-1.10457 0.89543,-2 2,-2 z m 10,-2 m 2,2 c 1.10457,0 2,0.895431 2,2 0,1.10457 -0.89543,2 -2,2 -1.10457,0 -2,-0.895431 -2,-2 0,-1.10457 0.89543,-2 2,-2 z m 2,-2 m 2,2 c 1.10457,0 2,0.895431 2,2 0,1.10457 -0.89543,2 -2,2 -1.10457,0 -2,-0.895431 -2,-2 0,-1.10457 0.89543,-2 2,-2 z m 2,-2 m 2,2 c 1.10457,0 2,0.895431 2,2 0,1.10457 -0.89543,2 -2,2 -1.10457,0 -2,-0.895431 -2,-2 0,-1.10457 0.89543,-2 2,-2 z M 16,96 m 2,2 c 1.10457,0 2,0.895431 2,2 0,1.10457 -0.895431,2 -2,2 -1.10457,0 -2,-0.89543 -2,-2 0,-1.10457 0.895431,-2 2,-2 z m 22,-2 m 2,2 c 1.10457,0 2,0.895431 2,2 0,1.10457 -0.895431,2 -2,2 -1.10457,0 -2,-0.89543 -2,-2 0,-1.10457 0.895431,-2 2,-2 z m 18,-2 m 2,2 c 1.10457,0 2,0.895431 2,2 0,1.10457 -0.895431,2 -2,2 -1.10457,0 -2,-0.89543 -2,-2 0,-1.10457 0.895431,-2 2,-2 z m 6,-2 m 2,2 c 1.10457,0 2,0.895431 2,2 0,1.10457 -0.895431,2 -2,2 -1.10457,0 -2,-0.89543 -2,-2 0,-1.10457 0.895431,-2 2,-2 z m 6,-2 m 2,2 c 1.10457,0 2,0.895431 2,2 0,1.10457 -0.895431,2 -2,2 -1.10457,0 -2,-0.89543 -2,-2 0,-1.10457 0.895431,-2 2,-2 z m 6,-2 m 2,2 c 1.10457,0 2,0.895431 2,2 0,1.10457 -0.895431,2 -2,2 -1.10457,0 -2,-0.89543 -2,-2 0,-1.10457 0.895431,-2 2,-2 z m 2,-2 m 2,2 c 1.10457,0 2,0.895431 2,2 0,1.10457 -0.895431,2 -2,2 -1.10457,0 -2,-0.89543 -2,-2 0,-1.10457 0.895431,-2 2,-2 z m 22,-2 m 2,2 c 1.10457,0 2,0.895431 2,2 0,1.10457 -0.89543,2 -2,2 -1.10457,0 -2,-0.89543 -2,-2 0,-1.10457 0.89543,-2 2,-2 z m -98,2 m 2,2 c 1.10457,0 2,0.89543 2,2 0,1.10457 -0.895431,2 -2,2 -1.10457,0 -2,-0.89543 -2,-2 0,-1.10457 0.895431,-2 2,-2 z m 2,-2 m 2,2 c 1.10457,0 2,0.89543 2,2 0,1.10457 -0.895431,2 -2,2 -1.10457,0 -2,-0.89543 -2,-2 0,-1.10457 0.895431,-2 2,-2 z m 2,-2 m 2,2 c 1.10457,0 2,0.89543 2,2 0,1.10457 -0.895431,2 -2,2 -1.10457,0 -2,-0.89543 -2,-2 0,-1.10457 0.895431,-2 2,-2 z m 2,-2 m 2,2 c 1.10457,0 2,0.89543 2,2 0,1.10457 -0.895431,2 -2,2 -1.10457,0 -2,-0.89543 -2,-2 0,-1.10457 0.895431,-2 2,-2 z m 2,-2 m 2,2 c 1.10457,0 2,0.89543 2,2 0,1.10457 -0.895431,2 -2,2 -1.10457,0 -2,-0.89543 -2,-2 0,-1.10457 0.895431,-2 2,-2 z m 2,-2 m 2,2 c 1.10457,0 2,0.89543 2,2 0,1.10457 -0.895431,2 -2,2 -1.10457,0 -2,-0.89543 -2,-2 0,-1.10457 0.895431,-2 2,-2 z m 6,-2 m 2,2 c 1.10457,0 2,0.89543 2,2 0,1.10457 -0.895431,2 -2,2 -1.10457,0 -2,-0.89543 -2,-2 0,-1.10457 0.895431,-2 2,-2 z m 6,-2 m 2,2 c 1.10457,0 2,0.89543 2,2 0,1.10457 -0.895431,2 -2,2 -1.10457,0 -2,-0.89543 -2,-2 0,-1.10457 0.895431,-2 2,-2 z m 2,-2 m 2,2 c 1.10457,0 2,0.89543 2,2 0,1.10457 -0.895431,2 -2,2 -1.10457,0 -2,-0.89543 -2,-2 0,-1.10457 0.895431,-2 2,-2 z m 6,-2 m 2,2 c 1.10457,0 2,0.89543 2,2 0,1.10457 -0.895431,2 -2,2 -1.10457,0 -2,-0.89543 -2,-2 0,-1.10457 0.895431,-2 2,-2 z m 2,-2 m 2,2 c 1.10457,0 2,0.89543 2,2 0,1.10457 -0.895431,2 -2,2 -1.10457,0 -2,-0.89543 -2,-2 0,-1.10457 0.895431,-2 2,-2 z m 6,-2 m 2,2 c 1.10457,0 2,0.89543 2,2 0,1.10457 -0.895431,2 -2,2 -1.10457,0 -2,-0.89543 -2,-2 0,-1.10457 0.895431,-2 2,-2 z m 2,-2 m 2,2 c 1.10457,0 2,0.89543 2,2 0,1.10457 -0.895431,2 -2,2 -1.10457,0 -2,-0.89543 -2,-2 0,-1.10457 0.895431,-2 2,-2 z m 10,-2 m 2,2 c 1.10457,0 2,0.89543 2,2 0,1.10457 -0.895431,2 -2,2 -1.10457,0 -2,-0.89543 -2,-2 0,-1.10457 0.895431,-2 2,-2 z m 2,-2 m 2,2 c 1.10457,0 2,0.89543 2,2 0,1.10457 -0.895431,2 -2,2 -1.10457,0 -2,-0.89543 -2,-2 0,-1.10457 0.895431,-2 2,-2 z m 6,-2 m 2,2 c 1.10457,0 2,0.89543 2,2 0,1.10457 -0.89543,2 -2,2 -1.10457,0 -2,-0.89543 -2,-2 0,-1.10457 0.89543,-2 2,-2 z m 2,-2 m 2,2 c 1.10457,0 2,0.89543 2,2 0,1.10457 -0.89543,2 -2,2 -1.10457,0 -2,-0.89543 -2,-2 0,-1.10457 0.89543,-2 2,-2 z m 14,-2 m 2,2 c 1.10457,0 2,0.89543 2,2 0,1.10457 -0.89543,2 -2,2 -1.10457,0 -2,-0.89543 -2,-2 0,-1.10457 0.89543,-2 2,-2 z m 2,-2 m 2,2 c 1.10457,0 2,0.89543 2,2 0,1.10457 -0.89543,2 -2,2 -1.10457,0 -2,-0.89543 -2,-2 0,-1.10457 0.89543,-2 2,-2 z m 2,-2 m 2,2 c 1.10457,0 2,0.89543 2,2 0,1.10457 -0.89543,2 -2,2 -1.10457,0 -2,-0.89543 -2,-2 0,-1.10457 0.89543,-2 2,-2 z m 6,-2 m 2,2 c 1.10457,0 2,0.89543 2,2 0,1.10457 -0.89543,2 -2,2 -1.10457,0 -2,-0.89543 -2,-2 0,-1.10457 0.89543,-2 2,-2 z m -126,2 m 2,2 c 1.10457,0 2,0.89543 2,2 0,1.10457 -0.895431,2 -2,2 -1.10457,0 -2,-0.89543 -2,-2 0,-1.10457 0.895431,-2 2,-2 z m 10,-2 m 2,2 c 1.10457,0 2,0.89543 2,2 0,1.10457 -0.895431,2 -2,2 -1.10457,0 -2,-0.89543 -2,-2 0,-1.10457 0.895431,-2 2,-2 z m 10,-2 m 2,2 c 1.10457,0 2,0.89543 2,2 0,1.10457 -0.895431,2 -2,2 -1.10457,0 -2,-0.89543 -2,-2 0,-1.10457 0.895431,-2 2,-2 z m 10,-2 m 2,2 c 1.10457,0 2,0.89543 2,2 0,1.10457 -0.895431,2 -2,2 -1.10457,0 -2,-0.89543 -2,-2 0,-1.10457 0.895431,-2 2,-2 z m 6,-2 m 2,2 c 1.10457,0 2,0.89543 2,2 0,1.10457 -0.895431,2 -2,2 -1.10457,0 -2,-0.89543 -2,-2 0,-1.10457 0.895431,-2 2,-2 z m 6,-2 m 2,2 c 1.10457,0 2,0.89543 2,2 0,1.10457 -0.895431,2 -2,2 -1.10457,0 -2,-0.89543 -2,-2 0,-1.10457 0.895431,-2 2,-2 z m 6,-2 m 2,2 c 1.10457,0 2,0.89543 2,2 0,1.10457 -0.895431,2 -2,2 -1.10457,0 -2,-0.89543 -2,-2 0,-1.10457 0.895431,-2 2,-2 z m 10,-2 m 2,2 c 1.10457,0 2,0.89543 2,2 0,1.10457 -0.895431,2 -2,2 -1.10457,0 -2,-0.89543 -2,-2 0,-1.10457 0.895431,-2 2,-2 z m 10,-2 m 2,2 c 1.10457,0 2,0.89543 2,2 0,1.10457 -0.89543,2 -2,2 -1.10457,0 -2,-0.89543 -2,-2 0,-1.10457 0.89543,-2 2,-2 z m 2,-2 m 2,2 c 1.10457,0 2,0.89543 2,2 0,1.10457 -0.89543,2 -2,2 -1.10457,0 -2,-0.89543 -2,-2 0,-1.10457 0.89543,-2 2,-2 z m 2,-2 m 2,2 c 1.10457,0 2,0.89543 2,2 0,1.10457 -0.89543,2 -2,2 -1.10457,0 -2,-0.89543 -2,-2 0,-1.10457 0.89543,-2 2,-2 z m 2,-2 m 2,2 c 1.10457,0 2,0.89543 2,2 0,1.10457 -0.89543,2 -2,2 -1.10457,0 -2,-0.89543 -2,-2 0,-1.10457 0.89543,-2 2,-2 z m 6,-2 m 2,2 c 1.10457,0 2,0.89543 2,2 0,1.10457 -0.89543,2 -2,2 -1.10457,0 -2,-0.89543 -2,-2 0,-1.10457 0.89543,-2 2,-2 z m 18,-2 m 2,2 c 1.10457,0 2,0.89543 2,2 0,1.10457 -0.89543,2 -2,2 -1.10457,0 -2,-0.89543 -2,-2 0,-1.10457 0.89543,-2 2,-2 z m 2,-2 m 2,2 c 1.10457,0 2,0.89543 2,2 0,1.10457 -0.89543,2 -2,2 -1.10457,0 -2,-0.89543 -2,-2 0,-1.10457 0.89543,-2 2,-2 z m -130,2 m 2,2 c 1.10457,0 2,0.89543 2,2 0,1.10457 -0.895431,2 -2,2 -1.10457,0 -2,-0.89543 -2,-2 0,-1.10457 0.895431,-2 2,-2 z m 6,-2 m 2,2 c 1.10457,0 2,0.89543 2,2 0,1.10457 -0.895431,2 -2,2 -1.10457,0 -2,-0.89543 -2,-2 0,-1.10457 0.895431,-2 2,-2 z m 2,-2 m 2,2 c 1.10457,0 2,0.89543 2,2 0,1.10457 -0.895431,2 -2,2 -1.10457,0 -2,-0.89543 -2,-2 0,-1.10457 0.895431,-2 2,-2 z m 2,-2 m 2,2 c 1.10457,0 2,0.89543 2,2 0,1.10457 -0.895431,2 -2,2 -1.10457,0 -2,-0.89543 -2,-2 0,-1.10457 0.895431,-2 2,-2 z m 2,-2 m 2,2 c 1.10457,0 2,0.89543 2,2 0,1.10457 -0.895431,2 -2,2 -1.10457,0 -2,-0.89543 -2,-2 0,-1.10457 0.895431,-2 2,-2 z m 6,-2 m 2,2 c 1.10457,0 2,0.89543 2,2 0,1.10457 -0.895431,2 -2,2 -1.10457,0 -2,-0.89543 -2,-2 0,-1.10457 0.895431,-2 2,-2 z m 2,-2 m 2,2 c 1.10457,0 2,0.89543 2,2 0,1.10457 -0.895431,2 -2,2 -1.10457,0 -2,-0.89543 -2,-2 0,-1.10457 0.895431,-2 2,-2 z m 6,-2 m 2,2 c 1.10457,0 2,0.89543 2,2 0,1.10457 -0.895431,2 -2,2 -1.10457,0 -2,-0.89543 -2,-2 0,-1.10457 0.895431,-2 2,-2 z m 2,-2 m 2,2 c 1.10457,0 2,0.89543 2,2 0,1.10457 -0.895431,2 -2,2 -1.10457,0 -2,-0.89543 -2,-2 0,-1.10457 0.895431,-2 2,-2 z m 2,-2 m 2,2 c 1.10457,0 2,0.89543 2,2 0,1.10457 -0.895431,2 -2,2 -1.10457,0 -2,-0.89543 -2,-2 0,-1.10457 0.895431,-2 2,-2 z m 2,-2 m 2,2 c 1.10457,0 2,0.89543 2,2 0,1.10457 -0.895431,2 -2,2 -1.10457,0 -2,-0.89543 -2,-2 0,-1.10457 0.895431,-2 2,-2 z m 10,-2 m 2,2 c 1.10457,0 2,0.89543 2,2 0,1.10457 -0.895431,2 -2,2 -1.10457,0 -2,-0.89543 -2,-2 0,-1.10457 0.895431,-2 2,-2 z m 2,-2 m 2,2 c 1.10457,0 2,0.89543 2,2 0,1.10457 -0.895431,2 -2,2 -1.10457,0 -2,-0.89543 -2,-2 0,-1.10457 0.895431,-2 2,-2 z m 2,-2 m 2,2 c 1.10457,0 2,0.89543 2,2 0,1.10457 -0.895431,2 -2,2 -1.10457,0 -2,-0.89543 -2,-2 0,-1.10457 0.895431,-2 2,-2 z m 2,-2 m 2,2 c 1.10457,0 2,0.89543 2,2 0,1.10457 -0.895431,2 -2,2 -1.10457,0 -2,-0.89543 -2,-2 0,-1.10457 0.895431,-2 2,-2 z m 14,-2 m 2,2 c 1.10457,0 2,0.89543 2,2 0,1.10457 -0.89543,2 -2,2 -1.10457,0 -2,-0.89543 -2,-2 0,-1.10457 0.89543,-2 2,-2 z m 10,-2 m 2,2 c 1.10457,0 2,0.89543 2,2 0,1.10457 -0.89543,2 -2,2 -1.10457,0 -2,-0.89543 -2,-2 0,-1.10457 0.89543,-2 2,-2 z m 14,-2 m 2,2 c 1.10457,0 2,0.89543 2,2 0,1.10457 -0.89543,2 -2,2 -1.10457,0 -2,-0.89543 -2,-2 0,-1.10457 0.89543,-2 2,-2 z m -122,2 m 2,2 c 1.10457,0 2,0.89543 2,2 0,1.10457 -0.895431,2 -2,2 -1.10457,0 -2,-0.89543 -2,-2 0,-1.10457 0.895431,-2 2,-2 z m 2,-2 m 2,2 c 1.10457,0 2,0.89543 2,2 0,1.10457 -0.895431,2 -2,2 -1.10457,0 -2,-0.89543 -2,-2 0,-1.10457 0.895431,-2 2,-2 z m 2,-2 m 2,2 c 1.10457,0 2,0.89543 2,2 0,1.10457 -0.895431,2 -2,2 -1.10457,0 -2,-0.89543 -2,-2 0,-1.10457 0.895431,-2 2,-2 z m 14,-2 m 2,2 c 1.10457,0 2,0.89543 2,2 0,1.10457 -0.895431,2 -2,2 -1.10457,0 -2,-0.89543 -2,-2 0,-1.10457 0.895431,-2 2,-2 z m 2,-2 m 2,2 c 1.10457,0 2,0.89543 2,2 0,1.10457 -0.895431,2 -2,2 -1.10457,0 -2,-0.89543 -2,-2 0,-1.10457 0.895431,-2 2,-2 z m 6,-2 m 2,2 c 1.10457,0 2,0.89543 2,2 0,1.10457 -0.895431,2 -2,2 -1.10457,0 -2,-0.89543 -2,-2 0,-1.10457 0.895431,-2 2,-2 z m 6,-2 m 2,2 c 1.10457,0 2,0.89543 2,2 0,1.10457 -0.895431,2 -2,2 -1.10457,0 -2,-0.89543 -2,-2 0,-1.10457 0.895431,-2 2,-2 z m 2,-2 m 2,2 c 1.10457,0 2,0.89543 2,2 0,1.10457 -0.895431,2 -2,2 -1.10457,0 -2,-0.89543 -2,-2 0,-1.10457 0.895431,-2 2,-2 z m 2,-2 m 2,2 c 1.10457,0 2,0.89543 2,2 0,1.10457 -0.895431,2 -2,2 -1.10457,0 -2,-0.89543 -2,-2 0,-1.10457 0.895431,-2 2,-2 z m 6,-2 m 2,2 c 1.10457,0 2,0.89543 2,2 0,1.10457 -0.895431,2 -2,2 -1.10457,0 -2,-0.89543 -2,-2 0,-1.10457 0.895431,-2 2,-2 z m 10,-2 m 2,2 c 1.10457,0 2,0.89543 2,2 0,1.10457 -0.895431,2 -2,2 -1.10457,0 -2,-0.89543 -2,-2 0,-1.10457 0.895431,-2 2,-2 z m 2,-2 m 2,2 c 1.10457,0 2,0.89543 2,2 0,1.10457 -0.895431,2 -2,2 -1.10457,0 -2,-0.89543 -2,-2 0,-1.10457 0.895431,-2 2,-2 z m 18,-2 m 2,2 c 1.10457,0 2,0.89543 2,2 0,1.10457 -0.89543,2 -2,2 -1.10457,0 -2,-0.89543 -2,-2 0,-1.10457 0.89543,-2 2,-2 z m 2,-2 m 2,2 c 1.10457,0 2,0.89543 2,2 0,1.10457 -0.89543,2 -2,2 -1.10457,0 -2,-0.89543 -2,-2 0,-1.10457 0.89543,-2 2,-2 z m 2,-2 m 2,2 c 1.10457,0 2,0.89543 2,2 0,1.10457 -0.89543,2 -2,2 -1.10457,0 -2,-0.89543 -2,-2 0,-1.10457 0.89543,-2 2,-2 z m 2,-2 m 2,2 c 1.10457,0 2,0.89543 2,2 0,1.10457 -0.89543,2 -2,2 -1.10457,0 -2,-0.89543 -2,-2 0,-1.10457 0.89543,-2 2,-2 z m 2,-2 m 2,2 c 1.10457,0 2,0.89543 2,2 0,1.10457 -0.89543,2 -2,2 -1.10457,0 -2,-0.89543 -2,-2 0,-1.10457 0.89543,-2 2,-2 z m 2,-2 m 2,2 c 1.10457,0 2,0.89543 2,2 0,1.10457 -0.89543,2 -2,2 -1.10457,0 -2,-0.89543 -2,-2 0,-1.10457 0.89543,-2 2,-2 z m 6,-2 m 2,2 c 1.10457,0 2,0.89543 2,2 0,1.10457 -0.89543,2 -2,2 -1.10457,0 -2,-0.89543 -2,-2 0,-1.10457 0.89543,-2 2,-2 z m -94,2 m 2,2 c 1.10457,0 2,0.89543 2,2 0,1.10457 -0.895431,2 -2,2 -1.10457,0 -2,-0.89543 -2,-2 0,-1.10457 0.895431,-2 2,-2 z m 2,-2 m 2,2 c 1.10457,0 2,0.89543 2,2 0,1.10457 -0.895431,2 -2,2 -1.10457,0 -2,-0.89543 -2,-2 0,-1.10457 0.895431,-2 2,-2 z m 14,-2 m 2,2 c 1.10457,0 2,0.89543 2,2 0,1.10457 -0.895431,2 -2,2 -1.10457,0 -2,-0.89543 -2,-2 0,-1.10457 0.895431,-2 2,-2 z m 2,-2 m 2,2 c 1.10457,0 2,0.89543 2,2 0,1.10457 -0.895431,2 -2,2 -1.10457,0 -2,-0.89543 -2,-2 0,-1.10457 0.895431,-2 2,-2 z m 2,-2 m 2,2 c 1.10457,0 2,0.89543 2,2 0,1.10457 -0.895431,2 -2,2 -1.10457,0 -2,-0.89543 -2,-2 0,-1.10457 0.895431,-2 2,-2 z m 26,-2 m 2,2 c 1.10457,0 2,0.89543 2,2 0,1.10457 -0.89543,2 -2,2 -1.10457,0 -2,-0.89543 -2,-2 0,-1.10457 0.89543,-2 2,-2 z m 6,-2 m 2,2 c 1.10457,0 2,0.89543 2,2 0,1.10457 -0.89543,2 -2,2 -1.10457,0 -2,-0.89543 -2,-2 0,-1.10457 0.89543,-2 2,-2 z m 14,-2 m 2,2 c 1.10457,0 2,0.89543 2,2 0,1.10457 -0.89543,2 -2,2 -1.10457,0 -2,-0.89543 -2,-2 0,-1.10457 0.89543,-2 2,-2 z m 2,-2 m 2,2 c 1.10457,0 2,0.89543 2,2 0,1.10457 -0.89543,2 -2,2 -1.10457,0 -2,-0.89543 -2,-2 0,-1.10457 0.89543,-2 2,-2 z m 2,-2 m 2,2 c 1.10457,0 2,0.89543 2,2 0,1.10457 -0.89543,2 -2,2 -1.10457,0 -2,-0.89543 -2,-2 0,-1.10457 0.89543,-2 2,-2 z m 2,-2 m 2,2 c 1.10457,0 2,0.89543 2,2 0,1.10457 -0.89543,2 -2,2 -1.10457,0 -2,-0.89543 -2,-2 0,-1.10457 0.89543,-2 2,-2 z m -126,2 m 2,2 c 1.10457,0 2,0.89543 2,2 0,1.10457 -0.895431,2 -2,2 -1.10457,0 -2,-0.89543 -2,-2 0,-1.10457 0.895431,-2 2,-2 z m 2,-2 m 2,2 c 1.10457,0 2,0.89543 2,2 0,1.10457 -0.895431,2 -2,2 -1.10457,0 -2,-0.89543 -2,-2 0,-1.10457 0.895431,-2 2,-2 z m 2,-2 m 2,2 c 1.10457,0 2,0.89543 2,2 0,1.10457 -0.895431,2 -2,2 -1.10457,0 -2,-0.89543 -2,-2 0,-1.10457 0.895431,-2 2,-2 z m 2,-2 m 2,2 c 1.10457,0 2,0.89543 2,2 0,1.10457 -0.895431,2 -2,2 -1.10457,0 -2,-0.89543 -2,-2 0,-1.10457 0.895431,-2 2,-2 z m 2,-2 m 2,2 c 1.10457,0 2,0.89543 2,2 0,1.10457 -0.895431,2 -2,2 -1.10457,0 -2,-0.89543 -2,-2 0,-1.10457 0.895431,-2 2,-2 z m 2,-2 m 2,2 c 1.10457,0 2,0.89543 2,2 0,1.10457 -0.895431,2 -2,2 -1.10457,0 -2,-0.89543 -2,-2 0,-1.10457 0.895431,-2 2,-2 z m 2,-2 m 2,2 c 1.10457,0 2,0.89543 2,2 0,1.10457 -0.895431,2 -2,2 -1.10457,0 -2,-0.89543 -2,-2 0,-1.10457 0.895431,-2 2,-2 z m 10,-2 m 2,2 c 1.10457,0 2,0.89543 2,2 0,1.10457 -0.895431,2 -2,2 -1.10457,0 -2,-0.89543 -2,-2 0,-1.10457 0.895431,-2 2,-2 z m 2,-2 m 2,2 c 1.10457,0 2,0.89543 2,2 0,1.10457 -0.895431,2 -2,2 -1.10457,0 -2,-0.89543 -2,-2 0,-1.10457 0.895431,-2 2,-2 z m 2,-2 m 2,2 c 1.10457,0 2,0.89543 2,2 0,1.10457 -0.895431,2 -2,2 -1.10457,0 -2,-0.89543 -2,-2 0,-1.10457 0.895431,-2 2,-2 z m 2,-2 m 2,2 c 1.10457,0 2,0.89543 2,2 0,1.10457 -0.895431,2 -2,2 -1.10457,0 -2,-0.89543 -2,-2 0,-1.10457 0.895431,-2 2,-2 z m 2,-2 m 2,2 c 1.10457,0 2,0.89543 2,2 0,1.10457 -0.895431,2 -2,2 -1.10457,0 -2,-0.89543 -2,-2 0,-1.10457 0.895431,-2 2,-2 z m 6,-2 m 2,2 c 1.10457,0 2,0.89543 2,2 0,1.10457 -0.895431,2 -2,2 -1.10457,0 -2,-0.89543 -2,-2 0,-1.10457 0.895431,-2 2,-2 z m 10,-2 m 2,2 c 1.10457,0 2,0.89543 2,2 0,1.10457 -0.895431,2 -2,2 -1.10457,0 -2,-0.89543 -2,-2 0,-1.10457 0.895431,-2 2,-2 z m 2,-2 m 2,2 c 1.10457,0 2,0.89543 2,2 0,1.10457 -0.895431,2 -2,2 -1.10457,0 -2,-0.89543 -2,-2 0,-1.10457 0.895431,-2 2,-2 z m 14,-2 m 2,2 c 1.10457,0 2,0.89543 2,2 0,1.10457 -0.89543,2 -2,2 -1.10457,0 -2,-0.89543 -2,-2 0,-1.10457 0.89543,-2 2,-2 z m 2,-2 m 2,2 c 1.10457,0 2,0.89543 2,2 0,1.10457 -0.89543,2 -2,2 -1.10457,0 -2,-0.89543 -2,-2 0,-1.10457 0.89543,-2 2,-2 z m 6,-2 m 2,2 c 1.10457,0 2,0.89543 2,2 0,1.10457 -0.89543,2 -2,2 -1.10457,0 -2,-0.89543 -2,-2 0,-1.10457 0.89543,-2 2,-2 z m 6,-2 m 2,2 c 1.10457,0 2,0.89543 2,2 0,1.10457 -0.89543,2 -2,2 -1.10457,0 -2,-0.89543 -2,-2 0,-1.10457 0.89543,-2 2,-2 z m 6,-2 m 2,2 c 1.10457,0 2,0.89543 2,2 0,1.10457 -0.89543,2 -2,2 -1.10457,0 -2,-0.89543 -2,-2 0,-1.10457 0.89543,-2 2,-2 z m -122,2 m 2,2 c 1.10457,0 2,0.89543 2,2 0,1.10457 -0.895431,2 -2,2 -1.10457,0 -2,-0.89543 -2,-2 0,-1.10457 0.895431,-2 2,-2 z m 22,-2 m 2,2 c 1.10457,0 2,0.89543 2,2 0,1.10457 -0.895431,2 -2,2 -1.10457,0 -2,-0.89543 -2,-2 0,-1.10457 0.895431,-2 2,-2 z m 10,-2 m 2,2 c 1.10457,0 2,0.89543 2,2 0,1.10457 -0.895431,2 -2,2 -1.10457,0 -2,-0.89543 -2,-2 0,-1.10457 0.895431,-2 2,-2 z m 6,-2 m 2,2 c 1.10457,0 2,0.89543 2,2 0,1.10457 -0.895431,2 -2,2 -1.10457,0 -2,-0.89543 -2,-2 0,-1.10457 0.895431,-2 2,-2 z m 14,-2 m 2,2 c 1.10457,0 2,0.89543 2,2 0,1.10457 -0.895431,2 -2,2 -1.10457,0 -2,-0.89543 -2,-2 0,-1.10457 0.895431,-2 2,-2 z m 10,-2 m 2,2 c 1.10457,0 2,0.89543 2,2 0,1.10457 -0.895431,2 -2,2 -1.10457,0 -2,-0.89543 -2,-2 0,-1.10457 0.895431,-2 2,-2 z m 14,-2 m 2,2 c 1.10457,0 2,0.89543 2,2 0,1.10457 -0.89543,2 -2,2 -1.10457,0 -2,-0.89543 -2,-2 0,-1.10457 0.89543,-2 2,-2 z m 2,-2 m 2,2 c 1.10457,0 2,0.89543 2,2 0,1.10457 -0.89543,2 -2,2 -1.10457,0 -2,-0.89543 -2,-2 0,-1.10457 0.89543,-2 2,-2 z m 2,-2 m 2,2 c 1.10457,0 2,0.89543 2,2 0,1.10457 -0.89543,2 -2,2 -1.10457,0 -2,-0.89543 -2,-2 0,-1.10457 0.89543,-2 2,-2 z m 14,-2 m 2,2 c 1.10457,0 2,0.89543 2,2 0,1.10457 -0.89543,2 -2,2 -1.10457,0 -2,-0.89543 -2,-2 0,-1.10457 0.89543,-2 2,-2 z m 2,-2 m 2,2 c 1.10457,0 2,0.89543 2,2 0,1.10457 -0.89543,2 -2,2 -1.10457,0 -2,-0.89543 -2,-2 0,-1.10457 0.89543,-2 2,-2 z m 2,-2 m 2,2 c 1.10457,0 2,0.89543 2,2 0,1.10457 -0.89543,2 -2,2 -1.10457,0 -2,-0.89543 -2,-2 0,-1.10457 0.89543,-2 2,-2 z m 6,-2 m 2,2 c 1.10457,0 2,0.89543 2,2 0,1.10457 -0.89543,2 -2,2 -1.10457,0 -2,-0.89543 -2,-2 0,-1.10457 0.89543,-2 2,-2 z m -130,2 m 2,2 c 1.10457,0 2,0.89543 2,2 0,1.10457 -0.895431,2 -2,2 -1.10457,0 -2,-0.89543 -2,-2 0,-1.10457 0.895431,-2 2,-2 z m 6,-2 m 2,2 c 1.10457,0 2,0.89543 2,2 0,1.10457 -0.895431,2 -2,2 -1.10457,0 -2,-0.89543 -2,-2 0,-1.10457 0.895431,-2 2,-2 z m 2,-2 m 2,2 c 1.10457,0 2,0.89543 2,2 0,1.10457 -0.895431,2 -2,2 -1.10457,0 -2,-0.89543 -2,-2 0,-1.10457 0.895431,-2 2,-2 z m 2,-2 m 2,2 c 1.10457,0 2,0.89543 2,2 0,1.10457 -0.895431,2 -2,2 -1.10457,0 -2,-0.89543 -2,-2 0,-1.10457 0.895431,-2 2,-2 z m 6,-2 m 2,2 c 1.10457,0 2,0.89543 2,2 0,1.10457 -0.895431,2 -2,2 -1.10457,0 -2,-0.89543 -2,-2 0,-1.10457 0.895431,-2 2,-2 z m 6,-2 m 2,2 c 1.10457,0 2,0.89543 2,2 0,1.10457 -0.895431,2 -2,2 -1.10457,0 -2,-0.89543 -2,-2 0,-1.10457 0.895431,-2 2,-2 z m 2,-2 m 2,2 c 1.10457,0 2,0.89543 2,2 0,1.10457 -0.895431,2 -2,2 -1.10457,0 -2,-0.89543 -2,-2 0,-1.10457 0.895431,-2 2,-2 z m 2,-2 m 2,2 c 1.10457,0 2,0.89543 2,2 0,1.10457 -0.895431,2 -2,2 -1.10457,0 -2,-0.89543 -2,-2 0,-1.10457 0.895431,-2 2,-2 z m 14,-2 m 2,2 c 1.10457,0 2,0.89543 2,2 0,1.10457 -0.895431,2 -2,2 -1.10457,0 -2,-0.89543 -2,-2 0,-1.10457 0.895431,-2 2,-2 z m 6,-2 m 2,2 c 1.10457,0 2,0.89543 2,2 0,1.10457 -0.895431,2 -2,2 -1.10457,0 -2,-0.89543 -2,-2 0,-1.10457 0.895431,-2 2,-2 z m 6,-2 m 2,2 c 1.10457,0 2,0.89543 2,2 0,1.10457 -0.895431,2 -2,2 -1.10457,0 -2,-0.89543 -2,-2 0,-1.10457 0.895431,-2 2,-2 z m 14,-2 m 2,2 c 1.10457,0 2,0.89543 2,2 0,1.10457 -0.89543,2 -2,2 -1.10457,0 -2,-0.89543 -2,-2 0,-1.10457 0.89543,-2 2,-2 z m 2,-2 m 2,2 c 1.10457,0 2,0.89543 2,2 0,1.10457 -0.89543,2 -2,2 -1.10457,0 -2,-0.89543 -2,-2 0,-1.10457 0.89543,-2 2,-2 z m 2,-2 m 2,2 c 1.10457,0 2,0.89543 2,2 0,1.10457 -0.89543,2 -2,2 -1.10457,0 -2,-0.89543 -2,-2 0,-1.10457 0.89543,-2 2,-2 z m 2,-2 m 2,2 c 1.10457,0 2,0.89543 2,2 0,1.10457 -0.89543,2 -2,2 -1.10457,0 -2,-0.89543 -2,-2 0,-1.10457 0.89543,-2 2,-2 z m 2,-2 m 2,2 c 1.10457,0 2,0.89543 2,2 0,1.10457 -0.89543,2 -2,2 -1.10457,0 -2,-0.89543 -2,-2 0,-1.10457 0.89543,-2 2,-2 z m 2,-2 m 2,2 c 1.10457,0 2,0.89543 2,2 0,1.10457 -0.89543,2 -2,2 -1.10457,0 -2,-0.89543 -2,-2 0,-1.10457 0.89543,-2 2,-2 z m 2,-2 m 2,2 c 1.10457,0 2,0.89543 2,2 0,1.10457 -0.89543,2 -2,2 -1.10457,0 -2,-0.89543 -2,-2 0,-1.10457 0.89543,-2 2,-2 z m 2,-2 m 2,2 c 1.10457,0 2,0.89543 2,2 0,1.10457 -0.89543,2 -2,2 -1.10457,0 -2,-0.89543 -2,-2 0,-1.10457 0.89543,-2 2,-2 z m -118,2 m 2,2 c 1.10457,0 2,0.89543 2,2 0,1.10457 -0.895431,2 -2,2 -1.10457,0 -2,-0.89543 -2,-2 0,-1.10457 0.895431,-2 2,-2 z m 6,-2 m 2,2 c 1.10457,0 2,0.89543 2,2 0,1.10457 -0.895431,2 -2,2 -1.10457,0 -2,-0.89543 -2,-2 0,-1.10457 0.895431,-2 2,-2 z m 2,-2 m 2,2 c 1.10457,0 2,0.89543 2,2 0,1.10457 -0.895431,2 -2,2 -1.10457,0 -2,-0.89543 -2,-2 0,-1.10457 0.895431,-2 2,-2 z m 2,-2 m 2,2 c 1.10457,0 2,0.89543 2,2 0,1.10457 -0.895431,2 -2,2 -1.10457,0 -2,-0.89543 -2,-2 0,-1.10457 0.895431,-2 2,-2 z m 6,-2 m 2,2 c 1.10457,0 2,0.89543 2,2 0,1.10457 -0.895431,2 -2,2 -1.10457,0 -2,-0.89543 -2,-2 0,-1.10457 0.895431,-2 2,-2 z m 6,-2 m 2,2 c 1.10457,0 2,0.89543 2,2 0,1.10457 -0.895431,2 -2,2 -1.10457,0 -2,-0.89543 -2,-2 0,-1.10457 0.895431,-2 2,-2 z m 10,-2 m 2,2 c 1.10457,0 2,0.89543 2,2 0,1.10457 -0.895431,2 -2,2 -1.10457,0 -2,-0.89543 -2,-2 0,-1.10457 0.895431,-2 2,-2 z m 2,-2 m 2,2 c 1.10457,0 2,0.89543 2,2 0,1.10457 -0.895431,2 -2,2 -1.10457,0 -2,-0.89543 -2,-2 0,-1.10457 0.895431,-2 2,-2 z m 2,-2 m 2,2 c 1.10457,0 2,0.89543 2,2 0,1.10457 -0.895431,2 -2,2 -1.10457,0 -2,-0.89543 -2,-2 0,-1.10457 0.895431,-2 2,-2 z m 2,-2 m 2,2 c 1.10457,0 2,0.89543 2,2 0,1.10457 -0.895431,2 -2,2 -1.10457,0 -2,-0.89543 -2,-2 0,-1.10457 0.895431,-2 2,-2 z m 10,-2 m 2,2 c 1.10457,0 2,0.89543 2,2 0,1.10457 -0.895431,2 -2,2 -1.10457,0 -2,-0.89543 -2,-2 0,-1.10457 0.895431,-2 2,-2 z m 6,-2 m 2,2 c 1.10457,0 2,0.89543 2,2 0,1.10457 -0.895431,2 -2,2 -1.10457,0 -2,-0.89543 -2,-2 0,-1.10457 0.895431,-2 2,-2 z m 2,-2 m 2,2 c 1.10457,0 2,0.89543 2,2 0,1.10457 -0.895431,2 -2,2 -1.10457,0 -2,-0.89543 -2,-2 0,-1.10457 0.895431,-2 2,-2 z m 6,-2 m 2,2 c 1.10457,0 2,0.89543 2,2 0,1.10457 -0.89543,2 -2,2 -1.10457,0 -2,-0.89543 -2,-2 0,-1.10457 0.89543,-2 2,-2 z m 2,-2 m 2,2 c 1.10457,0 2,0.89543 2,2 0,1.10457 -0.89543,2 -2,2 -1.10457,0 -2,-0.89543 -2,-2 0,-1.10457 0.89543,-2 2,-2 z m 6,-2 m 2,2 c 1.10457,0 2,0.89543 2,2 0,1.10457 -0.89543,2 -2,2 -1.10457,0 -2,-0.89543 -2,-2 0,-1.10457 0.89543,-2 2,-2 z m 14,-2 m 2,2 c 1.10457,0 2,0.89543 2,2 0,1.10457 -0.89543,2 -2,2 -1.10457,0 -2,-0.89543 -2,-2 0,-1.10457 0.89543,-2 2,-2 z m 6,-2 m 2,2 c 1.10457,0 2,0.89543 2,2 0,1.10457 -0.89543,2 -2,2 -1.10457,0 -2,-0.89543 -2,-2 0,-1.10457 0.89543,-2 2,-2 z m 2,-2 m 2,2 c 1.10457,0 2,0.89543 2,2 0,1.10457 -0.89543,2 -2,2 -1.10457,0 -2,-0.89543 -2,-2 0,-1.10457 0.89543,-2 2,-2 z m -130,2 m 2,2 c 1.10457,0 2,0.89543 2,2 0,1.10457 -0.895431,2 -2,2 -1.10457,0 -2,-0.89543 -2,-2 0,-1.10457 0.895431,-2 2,-2 z m 6,-2 m 2,2 c 1.10457,0 2,0.89543 2,2 0,1.10457 -0.895431,2 -2,2 -1.10457,0 -2,-0.89543 -2,-2 0,-1.10457 0.895431,-2 2,-2 z m 2,-2 m 2,2 c 1.10457,0 2,0.89543 2,2 0,1.10457 -0.895431,2 -2,2 -1.10457,0 -2,-0.89543 -2,-2 0,-1.10457 0.895431,-2 2,-2 z m 2,-2 m 2,2 c 1.10457,0 2,0.89543 2,2 0,1.10457 -0.895431,2 -2,2 -1.10457,0 -2,-0.89543 -2,-2 0,-1.10457 0.895431,-2 2,-2 z m 6,-2 m 2,2 c 1.10457,0 2,0.89543 2,2 0,1.10457 -0.895431,2 -2,2 -1.10457,0 -2,-0.89543 -2,-2 0,-1.10457 0.895431,-2 2,-2 z m 10,-2 m 2,2 c 1.10457,0 2,0.89543 2,2 0,1.10457 -0.895431,2 -2,2 -1.10457,0 -2,-0.89543 -2,-2 0,-1.10457 0.895431,-2 2,-2 z m 6,-2 m 2,2 c 1.10457,0 2,0.89543 2,2 0,1.10457 -0.895431,2 -2,2 -1.10457,0 -2,-0.89543 -2,-2 0,-1.10457 0.895431,-2 2,-2 z m 14,-2 m 2,2 c 1.10457,0 2,0.89543 2,2 0,1.10457 -0.895431,2 -2,2 -1.10457,0 -2,-0.89543 -2,-2 0,-1.10457 0.895431,-2 2,-2 z m 2,-2 m 2,2 c 1.10457,0 2,0.89543 2,2 0,1.10457 -0.895431,2 -2,2 -1.10457,0 -2,-0.89543 -2,-2 0,-1.10457 0.895431,-2 2,-2 z m 6,-2 m 2,2 c 1.10457,0 2,0.89543 2,2 0,1.10457 -0.895431,2 -2,2 -1.10457,0 -2,-0.89543 -2,-2 0,-1.10457 0.895431,-2 2,-2 z m 2,-2 m 2,2 c 1.10457,0 2,0.89543 2,2 0,1.10457 -0.895431,2 -2,2 -1.10457,0 -2,-0.89543 -2,-2 0,-1.10457 0.895431,-2 2,-2 z m 2,-2 m 2,2 c 1.10457,0 2,0.89543 2,2 0,1.10457 -0.895431,2 -2,2 -1.10457,0 -2,-0.89543 -2,-2 0,-1.10457 0.895431,-2 2,-2 z m 2,-2 m 2,2 c 1.10457,0 2,0.89543 2,2 0,1.10457 -0.89543,2 -2,2 -1.10457,0 -2,-0.89543 -2,-2 0,-1.10457 0.89543,-2 2,-2 z m 6,-2 m 2,2 c 1.10457,0 2,0.89543 2,2 0,1.10457 -0.89543,2 -2,2 -1.10457,0 -2,-0.89543 -2,-2 0,-1.10457 0.89543,-2 2,-2 z m 2,-2 m 2,2 c 1.10457,0 2,0.89543 2,2 0,1.10457 -0.89543,2 -2,2 -1.10457,0 -2,-0.89543 -2,-2 0,-1.10457 0.89543,-2 2,-2 z m 2,-2 m 2,2 c 1.10457,0 2,0.89543 2,2 0,1.10457 -0.89543,2 -2,2 -1.10457,0 -2,-0.89543 -2,-2 0,-1.10457 0.89543,-2 2,-2 z m 10,-2 m 2,2 c 1.10457,0 2,0.89543 2,2 0,1.10457 -0.89543,2 -2,2 -1.10457,0 -2,-0.89543 -2,-2 0,-1.10457 0.89543,-2 2,-2 z m 6,-2 m 2,2 c 1.10457,0 2,0.89543 2,2 0,1.10457 -0.89543,2 -2,2 -1.10457,0 -2,-0.89543 -2,-2 0,-1.10457 0.89543,-2 2,-2 z m 2,-2 m 2,2 c 1.10457,0 2,0.89543 2,2 0,1.10457 -0.89543,2 -2,2 -1.10457,0 -2,-0.89543 -2,-2 0,-1.10457 0.89543,-2 2,-2 z m 2,-2 m 2,2 c 1.10457,0 2,0.89543 2,2 0,1.10457 -0.89543,2 -2,2 -1.10457,0 -2,-0.89543 -2,-2 0,-1.10457 0.89543,-2 2,-2 z m -130,2 m 2,2 c 1.10457,0 2,0.89543 2,2 0,1.10457 -0.895431,2 -2,2 -1.10457,0 -2,-0.89543 -2,-2 0,-1.10457 0.895431,-2 2,-2 z m 22,-2 m 2,2 c 1.10457,0 2,0.89543 2,2 0,1.10457 -0.895431,2 -2,2 -1.10457,0 -2,-0.89543 -2,-2 0,-1.10457 0.895431,-2 2,-2 z m 6,-2 m 2,2 c 1.10457,0 2,0.89543 2,2 0,1.10457 -0.895431,2 -2,2 -1.10457,0 -2,-0.89543 -2,-2 0,-1.10457 0.895431,-2 2,-2 z m 6,-2 m 2,2 c 1.10457,0 2,0.89543 2,2 0,1.10457 -0.895431,2 -2,2 -1.10457,0 -2,-0.89543 -2,-2 0,-1.10457 0.895431,-2 2,-2 z m 6,-2 m 2,2 c 1.10457,0 2,0.89543 2,2 0,1.10457 -0.895431,2 -2,2 -1.10457,0 -2,-0.89543 -2,-2 0,-1.10457 0.895431,-2 2,-2 z m 6,-2 m 2,2 c 1.10457,0 2,0.89543 2,2 0,1.10457 -0.895431,2 -2,2 -1.10457,0 -2,-0.89543 -2,-2 0,-1.10457 0.895431,-2 2,-2 z m 6,-2 m 2,2 c 1.10457,0 2,0.89543 2,2 0,1.10457 -0.895431,2 -2,2 -1.10457,0 -2,-0.89543 -2,-2 0,-1.10457 0.895431,-2 2,-2 z m 6,-2 m 2,2 c 1.10457,0 2,0.89543 2,2 0,1.10457 -0.895431,2 -2,2 -1.10457,0 -2,-0.89543 -2,-2 0,-1.10457 0.895431,-2 2,-2 z m 14,-2 m 2,2 c 1.10457,0 2,0.89543 2,2 0,1.10457 -0.89543,2 -2,2 -1.10457,0 -2,-0.89543 -2,-2 0,-1.10457 0.89543,-2 2,-2 z m 2,-2 m 2,2 c 1.10457,0 2,0.89543 2,2 0,1.10457 -0.89543,2 -2,2 -1.10457,0 -2,-0.89543 -2,-2 0,-1.10457 0.89543,-2 2,-2 z m 10,-2 m 2,2 c 1.10457,0 2,0.89543 2,2 0,1.10457 -0.89543,2 -2,2 -1.10457,0 -2,-0.89543 -2,-2 0,-1.10457 0.89543,-2 2,-2 z m 2,-2 m 2,2 c 1.10457,0 2,0.89543 2,2 0,1.10457 -0.89543,2 -2,2 -1.10457,0 -2,-0.89543 -2,-2 0,-1.10457 0.89543,-2 2,-2 z m 2,-2 m 2,2 c 1.10457,0 2,0.89543 2,2 0,1.10457 -0.89543,2 -2,2 -1.10457,0 -2,-0.89543 -2,-2 0,-1.10457 0.89543,-2 2,-2 z m 2,-2 m 2,2 c 1.10457,0 2,0.89543 2,2 0,1.10457 -0.89543,2 -2,2 -1.10457,0 -2,-0.89543 -2,-2 0,-1.10457 0.89543,-2 2,-2 z m 2,-2 m 2,2 c 1.10457,0 2,0.89543 2,2 0,1.10457 -0.89543,2 -2,2 -1.10457,0 -2,-0.89543 -2,-2 0,-1.10457 0.89543,-2 2,-2 z m 2,-2 m 2,2 c 1.10457,0 2,0.89543 2,2 0,1.10457 -0.89543,2 -2,2 -1.10457,0 -2,-0.89543 -2,-2 0,-1.10457 0.89543,-2 2,-2 z m 2,-2 m 2,2 c 1.10457,0 2,0.89543 2,2 0,1.10457 -0.89543,2 -2,2 -1.10457,0 -2,-0.89543 -2,-2 0,-1.10457 0.89543,-2 2,-2 z m -130,2 m 2,2 c 1.10457,0 2,0.89543 2,2 0,1.10457 -0.895431,2 -2,2 -1.10457,0 -2,-0.89543 -2,-2 0,-1.10457 0.895431,-2 2,-2 z m 2,-2 m 2,2 c 1.10457,0 2,0.89543 2,2 0,1.10457 -0.895431,2 -2,2 -1.10457,0 -2,-0.89543 -2,-2 0,-1.10457 0.895431,-2 2,-2 z m 2,-2 m 2,2 c 1.10457,0 2,0.89543 2,2 0,1.10457 -0.895431,2 -2,2 -1.10457,0 -2,-0.89543 -2,-2 0,-1.10457 0.895431,-2 2,-2 z m 2,-2 m 2,2 c 1.10457,0 2,0.89543 2,2 0,1.10457 -0.895431,2 -2,2 -1.10457,0 -2,-0.89543 -2,-2 0,-1.10457 0.895431,-2 2,-2 z m 2,-2 m 2,2 c 1.10457,0 2,0.89543 2,2 0,1.10457 -0.895431,2 -2,2 -1.10457,0 -2,-0.89543 -2,-2 0,-1.10457 0.895431,-2 2,-2 z m 2,-2 m 2,2 c 1.10457,0 2,0.89543 2,2 0,1.10457 -0.895431,2 -2,2 -1.10457,0 -2,-0.89543 -2,-2 0,-1.10457 0.895431,-2 2,-2 z m 2,-2 m 2,2 c 1.10457,0 2,0.89543 2,2 0,1.10457 -0.895431,2 -2,2 -1.10457,0 -2,-0.89543 -2,-2 0,-1.10457 0.895431,-2 2,-2 z m 6,-2 m 2,2 c 1.10457,0 2,0.89543 2,2 0,1.10457 -0.895431,2 -2,2 -1.10457,0 -2,-0.89543 -2,-2 0,-1.10457 0.895431,-2 2,-2 z m 2,-2 m 2,2 c 1.10457,0 2,0.89543 2,2 0,1.10457 -0.895431,2 -2,2 -1.10457,0 -2,-0.89543 -2,-2 0,-1.10457 0.895431,-2 2,-2 z m 2,-2 m 2,2 c 1.10457,0 2,0.89543 2,2 0,1.10457 -0.895431,2 -2,2 -1.10457,0 -2,-0.89543 -2,-2 0,-1.10457 0.895431,-2 2,-2 z m 6,-2 m 2,2 c 1.10457,0 2,0.89543 2,2 0,1.10457 -0.895431,2 -2,2 -1.10457,0 -2,-0.89543 -2,-2 0,-1.10457 0.895431,-2 2,-2 z m 2,-2 m 2,2 c 1.10457,0 2,0.89543 2,2 0,1.10457 -0.895431,2 -2,2 -1.10457,0 -2,-0.89543 -2,-2 0,-1.10457 0.895431,-2 2,-2 z m 2,-2 m 2,2 c 1.10457,0 2,0.89543 2,2 0,1.10457 -0.895431,2 -2,2 -1.10457,0 -2,-0.89543 -2,-2 0,-1.10457 0.895431,-2 2,-2 z m 2,-2 m 2,2 c 1.10457,0 2,0.89543 2,2 0,1.10457 -0.895431,2 -2,2 -1.10457,0 -2,-0.89543 -2,-2 0,-1.10457 0.895431,-2 2,-2 z m 6,-2 m 2,2 c 1.10457,0 2,0.89543 2,2 0,1.10457 -0.895431,2 -2,2 -1.10457,0 -2,-0.89543 -2,-2 0,-1.10457 0.895431,-2 2,-2 z m 2,-2 m 2,2 c 1.10457,0 2,0.89543 2,2 0,1.10457 -0.895431,2 -2,2 -1.10457,0 -2,-0.89543 -2,-2 0,-1.10457 0.895431,-2 2,-2 z m 18,-2 m 2,2 c 1.10457,0 2,0.89543 2,2 0,1.10457 -0.89543,2 -2,2 -1.10457,0 -2,-0.89543 -2,-2 0,-1.10457 0.89543,-2 2,-2 z m 2,-2 m 2,2 c 1.10457,0 2,0.89543 2,2 0,1.10457 -0.89543,2 -2,2 -1.10457,0 -2,-0.89543 -2,-2 0,-1.10457 0.89543,-2 2,-2 z m 14,-2 m 2,2 c 1.10457,0 2,0.89543 2,2 0,1.10457 -0.89543,2 -2,2 -1.10457,0 -2,-0.89543 -2,-2 0,-1.10457 0.89543,-2 2,-2 z"
           id="path1" />
      </g>
    </g>
  </g>
</svg>
