<?xml version="1.0" encoding="UTF-8" standalone="no"?>
<!DOCTYPE svg PUBLIC "-//W3C//DTD SVG 1.1//EN" "http://www.w3.org/Graphics/SVG/1.1/DTD/svg11.dtd">
<svg width="100%" height="100%" viewBox="0 0 820 1367" version="1.1" xmlns="http://www.w3.org/2000/svg" xmlns:xlink="http://www.w3.org/1999/xlink" xml:space="preserve" xmlns:serif="http://www.serif.com/" style="fill-rule:evenodd;clip-rule:evenodd;stroke-linecap:round;stroke-linejoin:round;stroke-miterlimit:1.5;">
    <g transform="matrix(0.785906,0,0,0.785881,-3282.21,-2540.91)">
        <g transform="matrix(-0.000698598,-1,1,-0.000698598,2333.37,8086.31)">
            <path d="M4442.09,2009.77C4464.24,1921.91 4543.84,1856.81 4638.52,1856.81C4750.31,1856.81 4841.07,1947.58 4841.07,2059.37C4841.07,2171.17 4750.31,2261.93 4638.52,2261.93C4543.84,2261.93 4464.24,2196.83 4442.09,2108.98L3123.36,2108.56L3123.36,2009.35L4442.09,2009.77ZM4638.52,1958.09C4694.41,1958.09 4739.8,2003.47 4739.8,2059.37C4739.8,2115.27 4694.41,2160.65 4638.52,2160.65C4582.62,2160.65 4537.24,2115.27 4537.24,2059.37C4537.24,2003.47 4582.62,1958.09 4638.52,1958.09Z" style="fill:white;stroke:white;stroke-width:21.21px;"/>
        </g>
        <g transform="matrix(1.27242,0,0,1.27246,-664.14,-1688.24)">
            <path d="M4322.08,4462.07C4306.06,4436.85 4296.76,4406.83 4296.76,4374.61C4296.76,4285.41 4368.09,4212.98 4455.95,4212.98C4543.81,4212.98 4615.14,4285.41 4615.14,4374.61C4615.14,4463.82 4543.81,4536.24 4455.95,4536.24C4437.57,4536.24 4419.93,4533.08 4403.5,4527.25L4238.47,4755.74L4235.05,5225.89L4130.88,5225.13L4134.43,4738.35C4134.51,4727.53 4137.96,4717 4144.29,4708.23L4322.08,4462.07ZM4455.95,4293.8C4499.88,4293.8 4535.54,4330.01 4535.54,4374.61C4535.54,4419.22 4499.88,4455.43 4455.95,4455.43C4412.02,4455.43 4376.35,4419.22 4376.35,4374.61C4376.35,4330.01 4412.02,4293.8 4455.95,4293.8Z" style="fill:white;stroke:white;stroke-width:16.67px;stroke-linecap:butt;stroke-miterlimit:2;"/>
        </g>
    </g>
</svg>
