<?xml version="1.0" standalone="no"?>
<svg xmlns="http://www.w3.org/2000/svg" version="1.1" width="234" height="234">
	<!-- Created with https://api.qrserver.com (QR Code API, see goQR.me/api for information) -->
	<title>QR Code</title>
	<desc>https://digitale-oberlausitz.eu/events/2019/vortrag_2019_08_28_internetkriminalitaet/</desc>
	<rect style="fill:rgb(255, 255, 255);fill-opacity:1" x="0" y="0" width="234" height="234" />
	<g id="elements">
		<path style="fill:rgb(0, 0, 0)" d="M 6,6 l 6,0 0,6 -6,0 z M 12,6 l 6,0 0,6 -6,0 z M 18,6 l 6,0 0,6 -6,0 z M 24,6 l 6,0 0,6 -6,0 z M 30,6 l 6,0 0,6 -6,0 z M 36,6 l 6,0 0,6 -6,0 z M 42,6 l 6,0 0,6 -6,0 z M 66,6 l 6,0 0,6 -6,0 z M 78,6 l 6,0 0,6 -6,0 z M 84,6 l 6,0 0,6 -6,0 z M 96,6 l 6,0 0,6 -6,0 z M 108,6 l 6,0 0,6 -6,0 z M 138,6 l 6,0 0,6 -6,0 z M 150,6 l 6,0 0,6 -6,0 z M 174,6 l 6,0 0,6 -6,0 z M 186,6 l 6,0 0,6 -6,0 z M 192,6 l 6,0 0,6 -6,0 z M 198,6 l 6,0 0,6 -6,0 z M 204,6 l 6,0 0,6 -6,0 z M 210,6 l 6,0 0,6 -6,0 z M 216,6 l 6,0 0,6 -6,0 z M 222,6 l 6,0 0,6 -6,0 z M 6,12 l 6,0 0,6 -6,0 z M 42,12 l 6,0 0,6 -6,0 z M 54,12 l 6,0 0,6 -6,0 z M 66,12 l 6,0 0,6 -6,0 z M 84,12 l 6,0 0,6 -6,0 z M 96,12 l 6,0 0,6 -6,0 z M 102,12 l 6,0 0,6 -6,0 z M 114,12 l 6,0 0,6 -6,0 z M 126,12 l 6,0 0,6 -6,0 z M 132,12 l 6,0 0,6 -6,0 z M 144,12 l 6,0 0,6 -6,0 z M 150,12 l 6,0 0,6 -6,0 z M 162,12 l 6,0 0,6 -6,0 z M 168,12 l 6,0 0,6 -6,0 z M 174,12 l 6,0 0,6 -6,0 z M 186,12 l 6,0 0,6 -6,0 z M 222,12 l 6,0 0,6 -6,0 z M 6,18 l 6,0 0,6 -6,0 z M 18,18 l 6,0 0,6 -6,0 z M 24,18 l 6,0 0,6 -6,0 z M 30,18 l 6,0 0,6 -6,0 z M 42,18 l 6,0 0,6 -6,0 z M 78,18 l 6,0 0,6 -6,0 z M 84,18 l 6,0 0,6 -6,0 z M 90,18 l 6,0 0,6 -6,0 z M 96,18 l 6,0 0,6 -6,0 z M 102,18 l 6,0 0,6 -6,0 z M 126,18 l 6,0 0,6 -6,0 z M 132,18 l 6,0 0,6 -6,0 z M 162,18 l 6,0 0,6 -6,0 z M 174,18 l 6,0 0,6 -6,0 z M 186,18 l 6,0 0,6 -6,0 z M 198,18 l 6,0 0,6 -6,0 z M 204,18 l 6,0 0,6 -6,0 z M 210,18 l 6,0 0,6 -6,0 z M 222,18 l 6,0 0,6 -6,0 z M 6,24 l 6,0 0,6 -6,0 z M 18,24 l 6,0 0,6 -6,0 z M 24,24 l 6,0 0,6 -6,0 z M 30,24 l 6,0 0,6 -6,0 z M 42,24 l 6,0 0,6 -6,0 z M 54,24 l 6,0 0,6 -6,0 z M 60,24 l 6,0 0,6 -6,0 z M 66,24 l 6,0 0,6 -6,0 z M 78,24 l 6,0 0,6 -6,0 z M 90,24 l 6,0 0,6 -6,0 z M 102,24 l 6,0 0,6 -6,0 z M 120,24 l 6,0 0,6 -6,0 z M 126,24 l 6,0 0,6 -6,0 z M 132,24 l 6,0 0,6 -6,0 z M 138,24 l 6,0 0,6 -6,0 z M 144,24 l 6,0 0,6 -6,0 z M 156,24 l 6,0 0,6 -6,0 z M 162,24 l 6,0 0,6 -6,0 z M 186,24 l 6,0 0,6 -6,0 z M 198,24 l 6,0 0,6 -6,0 z M 204,24 l 6,0 0,6 -6,0 z M 210,24 l 6,0 0,6 -6,0 z M 222,24 l 6,0 0,6 -6,0 z M 6,30 l 6,0 0,6 -6,0 z M 18,30 l 6,0 0,6 -6,0 z M 24,30 l 6,0 0,6 -6,0 z M 30,30 l 6,0 0,6 -6,0 z M 42,30 l 6,0 0,6 -6,0 z M 60,30 l 6,0 0,6 -6,0 z M 96,30 l 6,0 0,6 -6,0 z M 102,30 l 6,0 0,6 -6,0 z M 108,30 l 6,0 0,6 -6,0 z M 138,30 l 6,0 0,6 -6,0 z M 150,30 l 6,0 0,6 -6,0 z M 162,30 l 6,0 0,6 -6,0 z M 186,30 l 6,0 0,6 -6,0 z M 198,30 l 6,0 0,6 -6,0 z M 204,30 l 6,0 0,6 -6,0 z M 210,30 l 6,0 0,6 -6,0 z M 222,30 l 6,0 0,6 -6,0 z M 6,36 l 6,0 0,6 -6,0 z M 42,36 l 6,0 0,6 -6,0 z M 54,36 l 6,0 0,6 -6,0 z M 60,36 l 6,0 0,6 -6,0 z M 72,36 l 6,0 0,6 -6,0 z M 78,36 l 6,0 0,6 -6,0 z M 96,36 l 6,0 0,6 -6,0 z M 102,36 l 6,0 0,6 -6,0 z M 120,36 l 6,0 0,6 -6,0 z M 126,36 l 6,0 0,6 -6,0 z M 132,36 l 6,0 0,6 -6,0 z M 156,36 l 6,0 0,6 -6,0 z M 162,36 l 6,0 0,6 -6,0 z M 168,36 l 6,0 0,6 -6,0 z M 174,36 l 6,0 0,6 -6,0 z M 186,36 l 6,0 0,6 -6,0 z M 222,36 l 6,0 0,6 -6,0 z M 6,42 l 6,0 0,6 -6,0 z M 12,42 l 6,0 0,6 -6,0 z M 18,42 l 6,0 0,6 -6,0 z M 24,42 l 6,0 0,6 -6,0 z M 30,42 l 6,0 0,6 -6,0 z M 36,42 l 6,0 0,6 -6,0 z M 42,42 l 6,0 0,6 -6,0 z M 54,42 l 6,0 0,6 -6,0 z M 66,42 l 6,0 0,6 -6,0 z M 78,42 l 6,0 0,6 -6,0 z M 90,42 l 6,0 0,6 -6,0 z M 102,42 l 6,0 0,6 -6,0 z M 114,42 l 6,0 0,6 -6,0 z M 126,42 l 6,0 0,6 -6,0 z M 138,42 l 6,0 0,6 -6,0 z M 150,42 l 6,0 0,6 -6,0 z M 162,42 l 6,0 0,6 -6,0 z M 174,42 l 6,0 0,6 -6,0 z M 186,42 l 6,0 0,6 -6,0 z M 192,42 l 6,0 0,6 -6,0 z M 198,42 l 6,0 0,6 -6,0 z M 204,42 l 6,0 0,6 -6,0 z M 210,42 l 6,0 0,6 -6,0 z M 216,42 l 6,0 0,6 -6,0 z M 222,42 l 6,0 0,6 -6,0 z M 60,48 l 6,0 0,6 -6,0 z M 66,48 l 6,0 0,6 -6,0 z M 72,48 l 6,0 0,6 -6,0 z M 96,48 l 6,0 0,6 -6,0 z M 108,48 l 6,0 0,6 -6,0 z M 114,48 l 6,0 0,6 -6,0 z M 120,48 l 6,0 0,6 -6,0 z M 138,48 l 6,0 0,6 -6,0 z M 168,48 l 6,0 0,6 -6,0 z M 174,48 l 6,0 0,6 -6,0 z M 6,54 l 6,0 0,6 -6,0 z M 12,54 l 6,0 0,6 -6,0 z M 18,54 l 6,0 0,6 -6,0 z M 24,54 l 6,0 0,6 -6,0 z M 30,54 l 6,0 0,6 -6,0 z M 42,54 l 6,0 0,6 -6,0 z M 48,54 l 6,0 0,6 -6,0 z M 54,54 l 6,0 0,6 -6,0 z M 60,54 l 6,0 0,6 -6,0 z M 72,54 l 6,0 0,6 -6,0 z M 102,54 l 6,0 0,6 -6,0 z M 114,54 l 6,0 0,6 -6,0 z M 120,54 l 6,0 0,6 -6,0 z M 126,54 l 6,0 0,6 -6,0 z M 132,54 l 6,0 0,6 -6,0 z M 138,54 l 6,0 0,6 -6,0 z M 144,54 l 6,0 0,6 -6,0 z M 156,54 l 6,0 0,6 -6,0 z M 162,54 l 6,0 0,6 -6,0 z M 168,54 l 6,0 0,6 -6,0 z M 174,54 l 6,0 0,6 -6,0 z M 180,54 l 6,0 0,6 -6,0 z M 192,54 l 6,0 0,6 -6,0 z M 204,54 l 6,0 0,6 -6,0 z M 216,54 l 6,0 0,6 -6,0 z M 48,60 l 6,0 0,6 -6,0 z M 60,60 l 6,0 0,6 -6,0 z M 66,60 l 6,0 0,6 -6,0 z M 78,60 l 6,0 0,6 -6,0 z M 84,60 l 6,0 0,6 -6,0 z M 96,60 l 6,0 0,6 -6,0 z M 102,60 l 6,0 0,6 -6,0 z M 108,60 l 6,0 0,6 -6,0 z M 126,60 l 6,0 0,6 -6,0 z M 132,60 l 6,0 0,6 -6,0 z M 138,60 l 6,0 0,6 -6,0 z M 150,60 l 6,0 0,6 -6,0 z M 174,60 l 6,0 0,6 -6,0 z M 192,60 l 6,0 0,6 -6,0 z M 204,60 l 6,0 0,6 -6,0 z M 210,60 l 6,0 0,6 -6,0 z M 216,60 l 6,0 0,6 -6,0 z M 12,66 l 6,0 0,6 -6,0 z M 24,66 l 6,0 0,6 -6,0 z M 36,66 l 6,0 0,6 -6,0 z M 42,66 l 6,0 0,6 -6,0 z M 48,66 l 6,0 0,6 -6,0 z M 54,66 l 6,0 0,6 -6,0 z M 84,66 l 6,0 0,6 -6,0 z M 90,66 l 6,0 0,6 -6,0 z M 96,66 l 6,0 0,6 -6,0 z M 108,66 l 6,0 0,6 -6,0 z M 114,66 l 6,0 0,6 -6,0 z M 138,66 l 6,0 0,6 -6,0 z M 144,66 l 6,0 0,6 -6,0 z M 150,66 l 6,0 0,6 -6,0 z M 162,66 l 6,0 0,6 -6,0 z M 168,66 l 6,0 0,6 -6,0 z M 174,66 l 6,0 0,6 -6,0 z M 186,66 l 6,0 0,6 -6,0 z M 192,66 l 6,0 0,6 -6,0 z M 198,66 l 6,0 0,6 -6,0 z M 204,66 l 6,0 0,6 -6,0 z M 210,66 l 6,0 0,6 -6,0 z M 222,66 l 6,0 0,6 -6,0 z M 18,72 l 6,0 0,6 -6,0 z M 24,72 l 6,0 0,6 -6,0 z M 36,72 l 6,0 0,6 -6,0 z M 48,72 l 6,0 0,6 -6,0 z M 60,72 l 6,0 0,6 -6,0 z M 78,72 l 6,0 0,6 -6,0 z M 84,72 l 6,0 0,6 -6,0 z M 96,72 l 6,0 0,6 -6,0 z M 108,72 l 6,0 0,6 -6,0 z M 120,72 l 6,0 0,6 -6,0 z M 138,72 l 6,0 0,6 -6,0 z M 162,72 l 6,0 0,6 -6,0 z M 168,72 l 6,0 0,6 -6,0 z M 174,72 l 6,0 0,6 -6,0 z M 192,72 l 6,0 0,6 -6,0 z M 198,72 l 6,0 0,6 -6,0 z M 204,72 l 6,0 0,6 -6,0 z M 216,72 l 6,0 0,6 -6,0 z M 18,78 l 6,0 0,6 -6,0 z M 42,78 l 6,0 0,6 -6,0 z M 48,78 l 6,0 0,6 -6,0 z M 54,78 l 6,0 0,6 -6,0 z M 66,78 l 6,0 0,6 -6,0 z M 78,78 l 6,0 0,6 -6,0 z M 90,78 l 6,0 0,6 -6,0 z M 102,78 l 6,0 0,6 -6,0 z M 114,78 l 6,0 0,6 -6,0 z M 120,78 l 6,0 0,6 -6,0 z M 126,78 l 6,0 0,6 -6,0 z M 132,78 l 6,0 0,6 -6,0 z M 138,78 l 6,0 0,6 -6,0 z M 144,78 l 6,0 0,6 -6,0 z M 156,78 l 6,0 0,6 -6,0 z M 162,78 l 6,0 0,6 -6,0 z M 168,78 l 6,0 0,6 -6,0 z M 180,78 l 6,0 0,6 -6,0 z M 186,78 l 6,0 0,6 -6,0 z M 198,78 l 6,0 0,6 -6,0 z M 204,78 l 6,0 0,6 -6,0 z M 210,78 l 6,0 0,6 -6,0 z M 222,78 l 6,0 0,6 -6,0 z M 6,84 l 6,0 0,6 -6,0 z M 12,84 l 6,0 0,6 -6,0 z M 18,84 l 6,0 0,6 -6,0 z M 24,84 l 6,0 0,6 -6,0 z M 48,84 l 6,0 0,6 -6,0 z M 96,84 l 6,0 0,6 -6,0 z M 108,84 l 6,0 0,6 -6,0 z M 126,84 l 6,0 0,6 -6,0 z M 132,84 l 6,0 0,6 -6,0 z M 156,84 l 6,0 0,6 -6,0 z M 174,84 l 6,0 0,6 -6,0 z M 192,84 l 6,0 0,6 -6,0 z M 210,84 l 6,0 0,6 -6,0 z M 216,84 l 6,0 0,6 -6,0 z M 12,90 l 6,0 0,6 -6,0 z M 18,90 l 6,0 0,6 -6,0 z M 24,90 l 6,0 0,6 -6,0 z M 36,90 l 6,0 0,6 -6,0 z M 42,90 l 6,0 0,6 -6,0 z M 54,90 l 6,0 0,6 -6,0 z M 72,90 l 6,0 0,6 -6,0 z M 78,90 l 6,0 0,6 -6,0 z M 96,90 l 6,0 0,6 -6,0 z M 102,90 l 6,0 0,6 -6,0 z M 114,90 l 6,0 0,6 -6,0 z M 120,90 l 6,0 0,6 -6,0 z M 126,90 l 6,0 0,6 -6,0 z M 132,90 l 6,0 0,6 -6,0 z M 138,90 l 6,0 0,6 -6,0 z M 144,90 l 6,0 0,6 -6,0 z M 156,90 l 6,0 0,6 -6,0 z M 162,90 l 6,0 0,6 -6,0 z M 168,90 l 6,0 0,6 -6,0 z M 180,90 l 6,0 0,6 -6,0 z M 186,90 l 6,0 0,6 -6,0 z M 192,90 l 6,0 0,6 -6,0 z M 210,90 l 6,0 0,6 -6,0 z M 216,90 l 6,0 0,6 -6,0 z M 222,90 l 6,0 0,6 -6,0 z M 6,96 l 6,0 0,6 -6,0 z M 12,96 l 6,0 0,6 -6,0 z M 36,96 l 6,0 0,6 -6,0 z M 54,96 l 6,0 0,6 -6,0 z M 60,96 l 6,0 0,6 -6,0 z M 66,96 l 6,0 0,6 -6,0 z M 72,96 l 6,0 0,6 -6,0 z M 90,96 l 6,0 0,6 -6,0 z M 96,96 l 6,0 0,6 -6,0 z M 102,96 l 6,0 0,6 -6,0 z M 120,96 l 6,0 0,6 -6,0 z M 126,96 l 6,0 0,6 -6,0 z M 132,96 l 6,0 0,6 -6,0 z M 144,96 l 6,0 0,6 -6,0 z M 150,96 l 6,0 0,6 -6,0 z M 174,96 l 6,0 0,6 -6,0 z M 180,96 l 6,0 0,6 -6,0 z M 186,96 l 6,0 0,6 -6,0 z M 192,96 l 6,0 0,6 -6,0 z M 198,96 l 6,0 0,6 -6,0 z M 204,96 l 6,0 0,6 -6,0 z M 222,96 l 6,0 0,6 -6,0 z M 18,102 l 6,0 0,6 -6,0 z M 24,102 l 6,0 0,6 -6,0 z M 42,102 l 6,0 0,6 -6,0 z M 60,102 l 6,0 0,6 -6,0 z M 66,102 l 6,0 0,6 -6,0 z M 72,102 l 6,0 0,6 -6,0 z M 102,102 l 6,0 0,6 -6,0 z M 126,102 l 6,0 0,6 -6,0 z M 132,102 l 6,0 0,6 -6,0 z M 144,102 l 6,0 0,6 -6,0 z M 156,102 l 6,0 0,6 -6,0 z M 162,102 l 6,0 0,6 -6,0 z M 180,102 l 6,0 0,6 -6,0 z M 186,102 l 6,0 0,6 -6,0 z M 198,102 l 6,0 0,6 -6,0 z M 204,102 l 6,0 0,6 -6,0 z M 210,102 l 6,0 0,6 -6,0 z M 222,102 l 6,0 0,6 -6,0 z M 6,108 l 6,0 0,6 -6,0 z M 18,108 l 6,0 0,6 -6,0 z M 24,108 l 6,0 0,6 -6,0 z M 30,108 l 6,0 0,6 -6,0 z M 48,108 l 6,0 0,6 -6,0 z M 54,108 l 6,0 0,6 -6,0 z M 66,108 l 6,0 0,6 -6,0 z M 78,108 l 6,0 0,6 -6,0 z M 84,108 l 6,0 0,6 -6,0 z M 90,108 l 6,0 0,6 -6,0 z M 96,108 l 6,0 0,6 -6,0 z M 102,108 l 6,0 0,6 -6,0 z M 108,108 l 6,0 0,6 -6,0 z M 132,108 l 6,0 0,6 -6,0 z M 150,108 l 6,0 0,6 -6,0 z M 162,108 l 6,0 0,6 -6,0 z M 180,108 l 6,0 0,6 -6,0 z M 210,108 l 6,0 0,6 -6,0 z M 216,108 l 6,0 0,6 -6,0 z M 24,114 l 6,0 0,6 -6,0 z M 42,114 l 6,0 0,6 -6,0 z M 48,114 l 6,0 0,6 -6,0 z M 54,114 l 6,0 0,6 -6,0 z M 66,114 l 6,0 0,6 -6,0 z M 84,114 l 6,0 0,6 -6,0 z M 90,114 l 6,0 0,6 -6,0 z M 96,114 l 6,0 0,6 -6,0 z M 132,114 l 6,0 0,6 -6,0 z M 138,114 l 6,0 0,6 -6,0 z M 144,114 l 6,0 0,6 -6,0 z M 162,114 l 6,0 0,6 -6,0 z M 168,114 l 6,0 0,6 -6,0 z M 186,114 l 6,0 0,6 -6,0 z M 192,114 l 6,0 0,6 -6,0 z M 210,114 l 6,0 0,6 -6,0 z M 216,114 l 6,0 0,6 -6,0 z M 222,114 l 6,0 0,6 -6,0 z M 6,120 l 6,0 0,6 -6,0 z M 12,120 l 6,0 0,6 -6,0 z M 24,120 l 6,0 0,6 -6,0 z M 30,120 l 6,0 0,6 -6,0 z M 36,120 l 6,0 0,6 -6,0 z M 48,120 l 6,0 0,6 -6,0 z M 66,120 l 6,0 0,6 -6,0 z M 78,120 l 6,0 0,6 -6,0 z M 84,120 l 6,0 0,6 -6,0 z M 120,120 l 6,0 0,6 -6,0 z M 126,120 l 6,0 0,6 -6,0 z M 132,120 l 6,0 0,6 -6,0 z M 192,120 l 6,0 0,6 -6,0 z M 222,120 l 6,0 0,6 -6,0 z M 6,126 l 6,0 0,6 -6,0 z M 18,126 l 6,0 0,6 -6,0 z M 24,126 l 6,0 0,6 -6,0 z M 30,126 l 6,0 0,6 -6,0 z M 42,126 l 6,0 0,6 -6,0 z M 78,126 l 6,0 0,6 -6,0 z M 90,126 l 6,0 0,6 -6,0 z M 102,126 l 6,0 0,6 -6,0 z M 114,126 l 6,0 0,6 -6,0 z M 120,126 l 6,0 0,6 -6,0 z M 144,126 l 6,0 0,6 -6,0 z M 156,126 l 6,0 0,6 -6,0 z M 162,126 l 6,0 0,6 -6,0 z M 174,126 l 6,0 0,6 -6,0 z M 180,126 l 6,0 0,6 -6,0 z M 186,126 l 6,0 0,6 -6,0 z M 198,126 l 6,0 0,6 -6,0 z M 204,126 l 6,0 0,6 -6,0 z M 210,126 l 6,0 0,6 -6,0 z M 216,126 l 6,0 0,6 -6,0 z M 222,126 l 6,0 0,6 -6,0 z M 6,132 l 6,0 0,6 -6,0 z M 12,132 l 6,0 0,6 -6,0 z M 24,132 l 6,0 0,6 -6,0 z M 30,132 l 6,0 0,6 -6,0 z M 36,132 l 6,0 0,6 -6,0 z M 54,132 l 6,0 0,6 -6,0 z M 96,132 l 6,0 0,6 -6,0 z M 108,132 l 6,0 0,6 -6,0 z M 132,132 l 6,0 0,6 -6,0 z M 138,132 l 6,0 0,6 -6,0 z M 150,132 l 6,0 0,6 -6,0 z M 162,132 l 6,0 0,6 -6,0 z M 174,132 l 6,0 0,6 -6,0 z M 192,132 l 6,0 0,6 -6,0 z M 216,132 l 6,0 0,6 -6,0 z M 6,138 l 6,0 0,6 -6,0 z M 18,138 l 6,0 0,6 -6,0 z M 30,138 l 6,0 0,6 -6,0 z M 36,138 l 6,0 0,6 -6,0 z M 42,138 l 6,0 0,6 -6,0 z M 48,138 l 6,0 0,6 -6,0 z M 54,138 l 6,0 0,6 -6,0 z M 72,138 l 6,0 0,6 -6,0 z M 78,138 l 6,0 0,6 -6,0 z M 96,138 l 6,0 0,6 -6,0 z M 102,138 l 6,0 0,6 -6,0 z M 108,138 l 6,0 0,6 -6,0 z M 114,138 l 6,0 0,6 -6,0 z M 120,138 l 6,0 0,6 -6,0 z M 150,138 l 6,0 0,6 -6,0 z M 156,138 l 6,0 0,6 -6,0 z M 168,138 l 6,0 0,6 -6,0 z M 180,138 l 6,0 0,6 -6,0 z M 204,138 l 6,0 0,6 -6,0 z M 216,138 l 6,0 0,6 -6,0 z M 222,138 l 6,0 0,6 -6,0 z M 12,144 l 6,0 0,6 -6,0 z M 30,144 l 6,0 0,6 -6,0 z M 36,144 l 6,0 0,6 -6,0 z M 54,144 l 6,0 0,6 -6,0 z M 66,144 l 6,0 0,6 -6,0 z M 72,144 l 6,0 0,6 -6,0 z M 90,144 l 6,0 0,6 -6,0 z M 108,144 l 6,0 0,6 -6,0 z M 114,144 l 6,0 0,6 -6,0 z M 126,144 l 6,0 0,6 -6,0 z M 132,144 l 6,0 0,6 -6,0 z M 144,144 l 6,0 0,6 -6,0 z M 150,144 l 6,0 0,6 -6,0 z M 162,144 l 6,0 0,6 -6,0 z M 168,144 l 6,0 0,6 -6,0 z M 174,144 l 6,0 0,6 -6,0 z M 186,144 l 6,0 0,6 -6,0 z M 192,144 l 6,0 0,6 -6,0 z M 198,144 l 6,0 0,6 -6,0 z M 222,144 l 6,0 0,6 -6,0 z M 12,150 l 6,0 0,6 -6,0 z M 24,150 l 6,0 0,6 -6,0 z M 36,150 l 6,0 0,6 -6,0 z M 42,150 l 6,0 0,6 -6,0 z M 48,150 l 6,0 0,6 -6,0 z M 72,150 l 6,0 0,6 -6,0 z M 102,150 l 6,0 0,6 -6,0 z M 120,150 l 6,0 0,6 -6,0 z M 138,150 l 6,0 0,6 -6,0 z M 150,150 l 6,0 0,6 -6,0 z M 156,150 l 6,0 0,6 -6,0 z M 168,150 l 6,0 0,6 -6,0 z M 174,150 l 6,0 0,6 -6,0 z M 180,150 l 6,0 0,6 -6,0 z M 186,150 l 6,0 0,6 -6,0 z M 198,150 l 6,0 0,6 -6,0 z M 204,150 l 6,0 0,6 -6,0 z M 210,150 l 6,0 0,6 -6,0 z M 216,150 l 6,0 0,6 -6,0 z M 222,150 l 6,0 0,6 -6,0 z M 6,156 l 6,0 0,6 -6,0 z M 12,156 l 6,0 0,6 -6,0 z M 24,156 l 6,0 0,6 -6,0 z M 30,156 l 6,0 0,6 -6,0 z M 36,156 l 6,0 0,6 -6,0 z M 66,156 l 6,0 0,6 -6,0 z M 78,156 l 6,0 0,6 -6,0 z M 84,156 l 6,0 0,6 -6,0 z M 90,156 l 6,0 0,6 -6,0 z M 96,156 l 6,0 0,6 -6,0 z M 102,156 l 6,0 0,6 -6,0 z M 108,156 l 6,0 0,6 -6,0 z M 126,156 l 6,0 0,6 -6,0 z M 132,156 l 6,0 0,6 -6,0 z M 150,156 l 6,0 0,6 -6,0 z M 174,156 l 6,0 0,6 -6,0 z M 192,156 l 6,0 0,6 -6,0 z M 204,156 l 6,0 0,6 -6,0 z M 210,156 l 6,0 0,6 -6,0 z M 216,156 l 6,0 0,6 -6,0 z M 6,162 l 6,0 0,6 -6,0 z M 18,162 l 6,0 0,6 -6,0 z M 24,162 l 6,0 0,6 -6,0 z M 36,162 l 6,0 0,6 -6,0 z M 42,162 l 6,0 0,6 -6,0 z M 60,162 l 6,0 0,6 -6,0 z M 66,162 l 6,0 0,6 -6,0 z M 84,162 l 6,0 0,6 -6,0 z M 90,162 l 6,0 0,6 -6,0 z M 96,162 l 6,0 0,6 -6,0 z M 120,162 l 6,0 0,6 -6,0 z M 126,162 l 6,0 0,6 -6,0 z M 132,162 l 6,0 0,6 -6,0 z M 138,162 l 6,0 0,6 -6,0 z M 168,162 l 6,0 0,6 -6,0 z M 174,162 l 6,0 0,6 -6,0 z M 186,162 l 6,0 0,6 -6,0 z M 192,162 l 6,0 0,6 -6,0 z M 216,162 l 6,0 0,6 -6,0 z M 222,162 l 6,0 0,6 -6,0 z M 6,168 l 6,0 0,6 -6,0 z M 18,168 l 6,0 0,6 -6,0 z M 24,168 l 6,0 0,6 -6,0 z M 30,168 l 6,0 0,6 -6,0 z M 36,168 l 6,0 0,6 -6,0 z M 48,168 l 6,0 0,6 -6,0 z M 78,168 l 6,0 0,6 -6,0 z M 84,168 l 6,0 0,6 -6,0 z M 96,168 l 6,0 0,6 -6,0 z M 108,168 l 6,0 0,6 -6,0 z M 114,168 l 6,0 0,6 -6,0 z M 120,168 l 6,0 0,6 -6,0 z M 126,168 l 6,0 0,6 -6,0 z M 132,168 l 6,0 0,6 -6,0 z M 138,168 l 6,0 0,6 -6,0 z M 150,168 l 6,0 0,6 -6,0 z M 168,168 l 6,0 0,6 -6,0 z M 180,168 l 6,0 0,6 -6,0 z M 186,168 l 6,0 0,6 -6,0 z M 222,168 l 6,0 0,6 -6,0 z M 6,174 l 6,0 0,6 -6,0 z M 18,174 l 6,0 0,6 -6,0 z M 24,174 l 6,0 0,6 -6,0 z M 30,174 l 6,0 0,6 -6,0 z M 36,174 l 6,0 0,6 -6,0 z M 42,174 l 6,0 0,6 -6,0 z M 48,174 l 6,0 0,6 -6,0 z M 60,174 l 6,0 0,6 -6,0 z M 66,174 l 6,0 0,6 -6,0 z M 78,174 l 6,0 0,6 -6,0 z M 90,174 l 6,0 0,6 -6,0 z M 102,174 l 6,0 0,6 -6,0 z M 114,174 l 6,0 0,6 -6,0 z M 126,174 l 6,0 0,6 -6,0 z M 132,174 l 6,0 0,6 -6,0 z M 150,174 l 6,0 0,6 -6,0 z M 156,174 l 6,0 0,6 -6,0 z M 174,174 l 6,0 0,6 -6,0 z M 180,174 l 6,0 0,6 -6,0 z M 186,174 l 6,0 0,6 -6,0 z M 192,174 l 6,0 0,6 -6,0 z M 198,174 l 6,0 0,6 -6,0 z M 204,174 l 6,0 0,6 -6,0 z M 210,174 l 6,0 0,6 -6,0 z M 54,180 l 6,0 0,6 -6,0 z M 60,180 l 6,0 0,6 -6,0 z M 96,180 l 6,0 0,6 -6,0 z M 108,180 l 6,0 0,6 -6,0 z M 132,180 l 6,0 0,6 -6,0 z M 150,180 l 6,0 0,6 -6,0 z M 162,180 l 6,0 0,6 -6,0 z M 168,180 l 6,0 0,6 -6,0 z M 174,180 l 6,0 0,6 -6,0 z M 198,180 l 6,0 0,6 -6,0 z M 6,186 l 6,0 0,6 -6,0 z M 12,186 l 6,0 0,6 -6,0 z M 18,186 l 6,0 0,6 -6,0 z M 24,186 l 6,0 0,6 -6,0 z M 30,186 l 6,0 0,6 -6,0 z M 36,186 l 6,0 0,6 -6,0 z M 42,186 l 6,0 0,6 -6,0 z M 54,186 l 6,0 0,6 -6,0 z M 66,186 l 6,0 0,6 -6,0 z M 72,186 l 6,0 0,6 -6,0 z M 78,186 l 6,0 0,6 -6,0 z M 102,186 l 6,0 0,6 -6,0 z M 108,186 l 6,0 0,6 -6,0 z M 114,186 l 6,0 0,6 -6,0 z M 138,186 l 6,0 0,6 -6,0 z M 156,186 l 6,0 0,6 -6,0 z M 162,186 l 6,0 0,6 -6,0 z M 174,186 l 6,0 0,6 -6,0 z M 186,186 l 6,0 0,6 -6,0 z M 198,186 l 6,0 0,6 -6,0 z M 210,186 l 6,0 0,6 -6,0 z M 216,186 l 6,0 0,6 -6,0 z M 222,186 l 6,0 0,6 -6,0 z M 6,192 l 6,0 0,6 -6,0 z M 42,192 l 6,0 0,6 -6,0 z M 60,192 l 6,0 0,6 -6,0 z M 72,192 l 6,0 0,6 -6,0 z M 90,192 l 6,0 0,6 -6,0 z M 114,192 l 6,0 0,6 -6,0 z M 120,192 l 6,0 0,6 -6,0 z M 126,192 l 6,0 0,6 -6,0 z M 132,192 l 6,0 0,6 -6,0 z M 138,192 l 6,0 0,6 -6,0 z M 144,192 l 6,0 0,6 -6,0 z M 156,192 l 6,0 0,6 -6,0 z M 162,192 l 6,0 0,6 -6,0 z M 174,192 l 6,0 0,6 -6,0 z M 198,192 l 6,0 0,6 -6,0 z M 6,198 l 6,0 0,6 -6,0 z M 18,198 l 6,0 0,6 -6,0 z M 24,198 l 6,0 0,6 -6,0 z M 30,198 l 6,0 0,6 -6,0 z M 42,198 l 6,0 0,6 -6,0 z M 54,198 l 6,0 0,6 -6,0 z M 66,198 l 6,0 0,6 -6,0 z M 72,198 l 6,0 0,6 -6,0 z M 102,198 l 6,0 0,6 -6,0 z M 120,198 l 6,0 0,6 -6,0 z M 132,198 l 6,0 0,6 -6,0 z M 138,198 l 6,0 0,6 -6,0 z M 150,198 l 6,0 0,6 -6,0 z M 168,198 l 6,0 0,6 -6,0 z M 174,198 l 6,0 0,6 -6,0 z M 180,198 l 6,0 0,6 -6,0 z M 186,198 l 6,0 0,6 -6,0 z M 192,198 l 6,0 0,6 -6,0 z M 198,198 l 6,0 0,6 -6,0 z M 204,198 l 6,0 0,6 -6,0 z M 210,198 l 6,0 0,6 -6,0 z M 216,198 l 6,0 0,6 -6,0 z M 222,198 l 6,0 0,6 -6,0 z M 6,204 l 6,0 0,6 -6,0 z M 18,204 l 6,0 0,6 -6,0 z M 24,204 l 6,0 0,6 -6,0 z M 30,204 l 6,0 0,6 -6,0 z M 42,204 l 6,0 0,6 -6,0 z M 54,204 l 6,0 0,6 -6,0 z M 60,204 l 6,0 0,6 -6,0 z M 78,204 l 6,0 0,6 -6,0 z M 84,204 l 6,0 0,6 -6,0 z M 90,204 l 6,0 0,6 -6,0 z M 96,204 l 6,0 0,6 -6,0 z M 102,204 l 6,0 0,6 -6,0 z M 108,204 l 6,0 0,6 -6,0 z M 132,204 l 6,0 0,6 -6,0 z M 138,204 l 6,0 0,6 -6,0 z M 144,204 l 6,0 0,6 -6,0 z M 150,204 l 6,0 0,6 -6,0 z M 162,204 l 6,0 0,6 -6,0 z M 174,204 l 6,0 0,6 -6,0 z M 180,204 l 6,0 0,6 -6,0 z M 186,204 l 6,0 0,6 -6,0 z M 198,204 l 6,0 0,6 -6,0 z M 204,204 l 6,0 0,6 -6,0 z M 210,204 l 6,0 0,6 -6,0 z M 6,210 l 6,0 0,6 -6,0 z M 18,210 l 6,0 0,6 -6,0 z M 24,210 l 6,0 0,6 -6,0 z M 30,210 l 6,0 0,6 -6,0 z M 42,210 l 6,0 0,6 -6,0 z M 54,210 l 6,0 0,6 -6,0 z M 60,210 l 6,0 0,6 -6,0 z M 84,210 l 6,0 0,6 -6,0 z M 90,210 l 6,0 0,6 -6,0 z M 96,210 l 6,0 0,6 -6,0 z M 108,210 l 6,0 0,6 -6,0 z M 114,210 l 6,0 0,6 -6,0 z M 138,210 l 6,0 0,6 -6,0 z M 150,210 l 6,0 0,6 -6,0 z M 168,210 l 6,0 0,6 -6,0 z M 180,210 l 6,0 0,6 -6,0 z M 192,210 l 6,0 0,6 -6,0 z M 222,210 l 6,0 0,6 -6,0 z M 6,216 l 6,0 0,6 -6,0 z M 42,216 l 6,0 0,6 -6,0 z M 54,216 l 6,0 0,6 -6,0 z M 66,216 l 6,0 0,6 -6,0 z M 78,216 l 6,0 0,6 -6,0 z M 84,216 l 6,0 0,6 -6,0 z M 126,216 l 6,0 0,6 -6,0 z M 138,216 l 6,0 0,6 -6,0 z M 150,216 l 6,0 0,6 -6,0 z M 162,216 l 6,0 0,6 -6,0 z M 174,216 l 6,0 0,6 -6,0 z M 180,216 l 6,0 0,6 -6,0 z M 186,216 l 6,0 0,6 -6,0 z M 222,216 l 6,0 0,6 -6,0 z M 6,222 l 6,0 0,6 -6,0 z M 12,222 l 6,0 0,6 -6,0 z M 18,222 l 6,0 0,6 -6,0 z M 24,222 l 6,0 0,6 -6,0 z M 30,222 l 6,0 0,6 -6,0 z M 36,222 l 6,0 0,6 -6,0 z M 42,222 l 6,0 0,6 -6,0 z M 54,222 l 6,0 0,6 -6,0 z M 60,222 l 6,0 0,6 -6,0 z M 78,222 l 6,0 0,6 -6,0 z M 90,222 l 6,0 0,6 -6,0 z M 102,222 l 6,0 0,6 -6,0 z M 120,222 l 6,0 0,6 -6,0 z M 132,222 l 6,0 0,6 -6,0 z M 138,222 l 6,0 0,6 -6,0 z M 150,222 l 6,0 0,6 -6,0 z M 180,222 l 6,0 0,6 -6,0 z M 186,222 l 6,0 0,6 -6,0 z M 192,222 l 6,0 0,6 -6,0 z M 210,222 l 6,0 0,6 -6,0 z M 216,222 l 6,0 0,6 -6,0 z M 222,222 l 6,0 0,6 -6,0 z " />
	</g>
</svg>
