<?xml version="1.0" encoding="utf-8"?>
<svg version="1.1" xmlns="http://www.w3.org/2000/svg" width="934" height="217" viewBox="-16 -16 934 217">
	<rect x="-16" y="-16" width="934" height="217" fill="#fff"/>
	<g transform="translate(-6, -15)">
		<g fill="#00AFC4" stroke="#00AFC4" stroke-width="3.0396" stroke-linecap="round" stroke-linejoin="round">
			<path d="M68.063,102.611 c0-2.416-0.636-4.386-1.924-5.904c-1.278-1.521-2.957-2.787-5.03-3.784c-2.074-0.987-4.456-1.865-7.163-2.629 c-2.699-0.75-5.462-1.561-8.296-2.393c-3.299-1.051-6.387-2.287-9.24-3.701c-2.863-1.415-5.335-3.162-7.432-5.231 c-2.1-2.071-3.752-4.567-4.955-7.515c-1.214-2.938-1.807-6.336-1.807-10.218c0-4.93,0.899-9.428,2.708-13.491 c1.806-4.062,4.377-7.539,7.707-10.425c3.33-2.885,7.356-5.112,12.08-6.683c4.717-1.581,9.993-2.36,15.802-2.36 c6.196,0,12.321,0.667,18.408,2.008c6.09,1.328,11.427,3,16.046,4.98l-3.379,15.984c-5.93-2.369-11.211-4.06-15.852-5.118 c-4.643-1.052-9.296-1.573-13.963-1.573c-6.243,0-11.116,1.317-14.634,3.93c-3.504,2.625-5.268,6.133-5.268,10.544 c0,2.359,0.479,4.361,1.418,6.016c0.939,1.647,2.207,3.047,3.778,4.17c1.573,1.13,3.418,2.098,5.544,2.914 c2.121,0.808,4.369,1.583,6.728,2.318c3.408,1.054,6.815,2.176,10.22,3.381c3.412,1.205,6.475,2.774,9.204,4.678 c2.73,1.909,4.932,4.374,6.604,7.354c1.684,2.995,2.524,6.684,2.524,11.089c0,5.711-1.094,10.829-3.27,15.345 c-2.171,4.501-5.268,8.339-9.278,11.478c-4.011,3.149-8.88,5.543-14.594,7.199c-5.717,1.656-12.089,2.479-19.113,2.479 c-3.674,0-7.191-0.238-10.572-0.713c-3.383-0.475-6.479-1.063-9.288-1.766c-2.801-0.717-5.285-1.488-7.427-2.361 c-2.155-0.872-3.862-1.688-5.122-2.479l3.307-15.891c3.986,1.949,8.463,3.588,13.447,4.92c4.983,1.336,10.253,2.004,15.811,2.004 c3.983,0,7.598-0.424,10.819-1.253c3.221-0.843,5.977-2.036,8.253-3.581c2.28-1.549,4.052-3.498,5.316-5.813 C67.438,108.179,68.063,105.536,68.063,102.611z"/>
			<path d="M173.311,78.22 c0,4.252-1.042,8.062-3.108,11.442c-2.069,3.384-5.12,6.271-9.165,8.658c-4.035,2.385-9.021,4.21-14.939,5.473 c-5.935,1.251-12.748,1.883-20.449,1.883c-0.898,0-2.02-0.025-3.389-0.081v0.467c0,2.785,0.41,5.207,1.219,7.281 c0.818,2.066,1.989,3.762,3.544,5.073c1.543,1.313,3.419,2.264,5.624,2.874c2.204,0.601,4.661,0.904,7.391,0.904 c4.089,0,8.397-0.506,12.905-1.496c4.504-1.004,8.436-2.334,11.796-4.009l-3.381,16.36c-3.257,1.309-6.965,2.375-11.131,3.185 c-4.173,0.813-8.612,1.218-13.333,1.218c-5.61,0-10.489-0.754-14.633-2.287c-4.141-1.515-7.557-3.656-10.265-6.407 c-2.702-2.753-4.702-6.021-6.015-9.79c-1.312-3.777-1.964-7.94-1.964-12.504c0-4.045,0.415-8.055,1.26-12.044 c0.833-3.977,2.069-7.801,3.693-11.444c1.624-3.651,3.647-7.018,6.052-10.151c2.409-3.109,5.209-5.807,8.373-8.089 c3.179-2.286,6.737-4.074,10.669-5.392c3.931-1.307,8.201-1.965,12.821-1.965c4.035,0,7.679,0.497,10.932,1.488 c3.252,1.001,6.011,2.408,8.294,4.214c2.281,1.81,4.051,4.009,5.312,6.573C172.675,72.224,173.311,75.073,173.311,78.22z M154.583,78.22c0-1.728-0.677-3.225-2.038-4.478c-1.364-1.267-3.439-1.889-6.212-1.889c-2.099,0-4.242,0.419-6.413,1.25 c-2.172,0.846-4.225,2.089-6.131,3.74c-1.918,1.656-3.635,3.674-5.162,6.064c-1.514,2.39-2.722,5.124-3.615,8.218 c5.559,0,10.227-0.368,14.004-1.093c3.771-0.75,6.822-1.717,9.125-2.92c2.309-1.201,3.959-2.586,4.953-4.135 C154.087,81.434,154.583,79.841,154.583,78.22z"/>
			<path d="M244.806,117.154 c0,1.21,0.321,2.171,0.979,2.867c0.653,0.712,1.769,1.065,3.344,1.065c1.46,0,3.331-0.148,5.586-0.465l-3.226,14.939 c-1.421,0.311-2.996,0.569-4.715,0.741c-1.731,0.192-3.287,0.282-4.645,0.282c-4.302,0-7.56-1.004-9.803-3.022 c-2.21-2.026-3.622-4.897-4.199-8.617h-0.318c-3.61,4.462-7.514,7.653-11.677,9.597c-4.167,1.935-8.25,2.91-12.226,2.91 c-3.412,0-6.479-0.627-9.203-1.891c-2.732-1.259-5.039-3.031-6.923-5.344c-1.893-2.31-3.334-5.088-4.327-8.345 c-0.988-3.254-1.501-6.866-1.501-10.846c0-4.252,0.372-8.527,1.105-12.832c0.734-4.291,1.792-8.424,3.182-12.384 c1.401-3.951,3.107-7.666,5.155-11.126c2.049-3.457,4.394-6.475,7.049-9.051c2.64-2.569,5.577-4.582,8.8-6.045 c3.235-1.466,6.727-2.21,10.496-2.21c3.779,0,7.217,0.775,10.313,2.328c3.089,1.546,5.761,3.908,8.022,7.108h0.317l9.359-45.222 h18.56l-18.882,90.762c-0.211,1.004-0.366,1.931-0.467,2.797C244.856,116.021,244.806,116.689,244.806,117.154z M233.874,78.852 c-0.475-0.685-1.096-1.38-1.857-2.121c-0.754-0.735-1.632-1.406-2.632-2.01c-0.996-0.605-2.105-1.098-3.341-1.488 c-1.23-0.409-2.553-0.592-3.98-0.592c-2.458,0-4.695,0.592-6.712,1.765c-2.023,1.18-3.813,2.749-5.397,4.73 c-1.561,1.962-2.945,4.214-4.122,6.757c-1.179,2.543-2.148,5.179-2.918,7.912c-0.758,2.725-1.322,5.403-1.689,8.051 c-0.369,2.654-0.547,5.103-0.547,7.347c0,4.469,0.688,7.748,2.085,9.848c1.392,2.102,3.424,3.145,6.095,3.145 c2.885,0,5.749-1.027,8.574-3.072c2.829-2.041,5.35-4.851,7.553-8.424c2.301-3.867,4.091-8.828,5.35-14.847L233.874,78.852z"/>
			<path d="M284.844,135.479 h-18.56L282.1,59.264h15.801v9.598h0.313c1.258-1.523,2.744-2.97,4.447-4.363c1.709-1.39,3.572-2.611,5.625-3.654 c2.045-1.057,4.242-1.893,6.645-2.529c2.379-0.62,4.885-0.938,7.512-0.938c2.979,0,5.811,0.433,8.449,1.297 c2.652,0.863,4.98,2.144,7.006,3.81c2.016,1.689,3.596,3.725,4.752,6.151c1.168,2.406,1.74,5.188,1.74,8.336 c0,1.931-0.199,4.08-0.553,6.44c-0.373,2.361-0.795,4.729-1.252,7.076l-9.379,44.991h-18.547l9.602-46.403 c0.295-1.62,0.547-3.081,0.748-4.372c0.18-1.267,0.273-2.36,0.273-3.26c0-2.675-0.746-4.745-2.254-6.208 c-1.494-1.469-3.781-2.207-6.883-2.207c-3.828,0-7.387,1.047-10.699,3.143c-3.293,2.105-6.055,4.934-8.246,8.501 c-0.426,0.686-0.828,1.411-1.223,2.21c-0.396,0.776-0.783,1.683-1.148,2.661c-0.369,1.002-0.723,2.157-1.07,3.429 c-0.332,1.285-0.688,2.791-1.053,4.516L284.844,135.479z"/>
			<path d="M418.639,117.154 c0,1.417,0.369,2.433,1.137,3.034c0.76,0.59,1.818,0.898,3.182,0.898c1.518,0,3.381-0.148,5.578-0.465l-3.209,14.939 c-3.26,0.688-6.391,1.023-9.373,1.023c-4.295,0-7.557-1.004-9.791-3.022c-2.225-2.026-3.631-4.897-4.207-8.617h-0.322 c-3.611,4.462-7.504,7.653-11.664,9.597c-4.18,1.935-8.264,2.91-12.238,2.91c-3.414,0-6.473-0.627-9.213-1.891 c-2.711-1.259-5.041-3.031-6.916-5.344c-1.881-2.31-3.338-5.088-4.316-8.345c-1-3.254-1.506-6.866-1.506-10.846 c0-4.252,0.355-8.527,1.066-12.832c0.703-4.291,1.771-8.424,3.186-12.384c1.416-3.951,3.158-7.666,5.232-11.126 c2.072-3.457,4.465-6.475,7.191-9.051c2.73-2.569,5.773-4.582,9.121-6.045c3.355-1.466,6.998-2.21,10.938-2.21 c3.604,0,7.047,0.76,10.311,2.286c3.238,1.521,6.078,3.9,8.488,7.15h0.311l2.768-7.55h15.877l-11.02,53.09 c-0.195,1.004-0.365,1.931-0.457,2.797C418.674,116.021,418.639,116.689,418.639,117.154z M407.778,78.539 c-0.48-0.684-1.08-1.385-1.857-2.086c-0.756-0.708-1.652-1.339-2.672-1.893c-1.016-0.556-2.154-1.013-3.389-1.372 c-1.223-0.364-2.543-0.548-3.959-0.548c-2.469,0-4.711,0.592-6.727,1.765c-2.016,1.18-3.828,2.749-5.424,4.73 c-1.588,1.962-2.98,4.214-4.135,6.757c-1.152,2.543-2.104,5.179-2.875,7.912c-0.766,2.725-1.324,5.403-1.686,8.051 c-0.369,2.654-0.547,5.103-0.547,7.347c0,4.469,0.682,7.748,2.08,9.848c1.389,2.102,3.418,3.145,6.096,3.145 s5.346-0.904,8.031-2.713c2.67-1.82,5.057-4.291,7.145-7.43c1.416-2.107,2.643-4.49,3.668-7.169c1.018-2.67,1.893-5.75,2.631-9.196 L407.778,78.539z"/>
			<path d="M507.915,102.611 c0-2.416-0.639-4.386-1.922-5.904c-1.289-1.521-2.975-2.787-5.037-3.784c-2.066-0.987-4.463-1.865-7.17-2.629 c-2.682-0.75-5.459-1.561-8.293-2.393c-3.297-1.051-6.387-2.287-9.23-3.701c-2.871-1.415-5.34-3.162-7.436-5.231 c-2.102-2.071-3.762-4.567-4.953-7.515c-1.207-2.938-1.813-6.336-1.813-10.218c0-4.93,0.891-9.428,2.709-13.491 c1.809-4.062,4.363-7.539,7.707-10.425c3.334-2.885,7.348-5.112,12.076-6.683c4.717-1.581,9.996-2.36,15.811-2.36 c6.195,0,12.326,0.667,18.406,2.008c6.082,1.328,11.438,3,16.041,4.98l-3.371,15.984c-5.93-2.369-11.217-4.06-15.848-5.118 c-4.641-1.052-9.301-1.573-13.969-1.573c-6.236,0-11.109,1.317-14.635,3.93c-3.516,2.625-5.279,6.133-5.279,10.544 c0,2.359,0.486,4.361,1.428,6.016c0.943,1.647,2.207,3.047,3.779,4.17c1.566,1.13,3.418,2.098,5.555,2.914 c2.113,0.808,4.361,1.583,6.721,2.318c3.418,1.054,6.813,2.176,10.223,3.381c3.402,1.205,6.467,2.774,9.191,4.678 c2.729,1.909,4.936,4.374,6.598,7.354c1.693,2.995,2.543,6.684,2.543,11.089c0,5.711-1.09,10.829-3.273,15.345 c-2.182,4.501-5.271,8.339-9.275,11.478c-4.027,3.149-8.893,5.543-14.611,7.199c-5.695,1.656-12.086,2.479-19.094,2.479 c-3.678,0-7.193-0.238-10.58-0.713c-3.377-0.475-6.48-1.063-9.287-1.766c-2.805-0.717-5.293-1.488-7.438-2.361 c-2.141-0.872-3.852-1.688-5.113-2.479l3.305-15.891c3.992,1.949,8.469,3.588,13.457,4.92c4.982,1.336,10.25,2.004,15.811,2.004 c3.984,0,7.586-0.424,10.824-1.253c3.213-0.843,5.973-2.036,8.242-3.581c2.287-1.549,4.053-3.498,5.32-5.813 C507.29,108.179,507.915,105.536,507.915,102.611z"/>
			<path d="M586.723,57.378 c4.508,0,8.59,0.607,12.227,1.814c3.645,1.204,6.76,2.999,9.363,5.373c2.598,2.401,4.613,5.417,6.01,9.058 c1.42,3.638,2.139,7.875,2.139,12.703c0,6.712-0.92,13.152-2.754,19.314c-1.84,6.155-4.559,11.603-8.143,16.314 c-3.584,4.72-8.072,8.485-13.422,11.28c-5.336,2.814-11.533,4.217-18.547,4.217c-4.461,0-8.529-0.609-12.186-1.807 c-3.682-1.206-6.83-3.006-9.418-5.393c-2.588-2.386-4.588-5.391-6.02-9.01c-1.404-3.616-2.131-7.868-2.131-12.738 c0-6.723,0.932-13.139,2.77-19.317c1.842-6.151,4.551-11.591,8.148-16.319c3.578-4.719,8.041-8.477,13.41-11.282 C573.508,58.781,579.69,57.378,586.723,57.378z M585.159,72.641c-2.533,0-4.826,0.489-6.941,1.491 c-2.09,0.991-3.986,2.366-5.639,4.125c-1.686,1.763-3.148,3.795-4.369,6.098c-1.248,2.315-2.283,4.788-3.117,7.438 c-0.838,2.646-1.465,5.36-1.881,8.14c-0.432,2.78-0.627,5.495-0.627,8.181c0,4.355,1.008,7.791,3.02,10.304 c2.027,2.522,5.205,3.778,9.564,3.778c2.51,0,4.816-0.506,6.916-1.496c2.09-1.004,3.99-2.375,5.662-4.134 c1.68-1.753,3.156-3.781,4.396-6.083c1.268-2.322,2.305-4.797,3.115-7.447c0.818-2.642,1.441-5.374,1.859-8.171 c0.414-2.813,0.631-5.549,0.631-8.22c0-4.299-1.023-7.708-3.082-10.224C592.608,73.894,589.448,72.641,585.159,72.641z"/>
			<path d="M680.323,74.606 h-20.375l-16.379,81.37c-0.801,3.88-1.703,7.22-2.762,9.992c-1.045,2.783-2.299,5.191-3.76,7.236 c-3.318,4.722-7.461,8.034-12.434,9.953c-4.988,1.909-10.488,2.867-16.539,2.867c-2.809,0-5.523-0.238-8.115-0.707 c-2.615-0.48-4.709-1.023-6.344-1.649l3.15-14.875c1.793,0.681,3.594,1.185,5.434,1.499c1.824,0.318,3.494,0.473,5.029,0.473 c2.938,0,5.418-0.388,7.469-1.182c2.049-0.79,3.799-1.989,5.227-3.615c1.451-1.621,2.645-3.669,3.576-6.137 c0.943-2.467,1.76-5.404,2.441-8.813l15.453-76.413h-13.682l3.223-15.342h13.604l1.965-9.513c0.738-3.67,1.611-6.828,2.637-9.48 c1.023-2.643,2.246-5.005,3.656-7.041c1.576-2.348,3.363-4.389,5.387-6.094c2.021-1.704,4.188-3.104,6.453-4.205 c2.271-1.105,4.664-1.938,7.215-2.48c2.502-0.545,5.041-0.826,7.604-0.826c3.16,0,6.156,0.281,9.012,0.826 c2.85,0.543,5.258,1.142,7.209,1.76l-2.99,14.486c-2.428-0.63-4.609-1.087-6.543-1.384c-1.926-0.28-3.664-0.43-5.197-0.43 c-2.658,0-4.988,0.471-6.99,1.414c-1.992,0.95-3.695,2.422-5.113,4.408c-0.83,1.211-1.592,2.623-2.227,4.249 c-0.672,1.625-1.205,3.458-1.629,5.502l-1.887,8.81h20.459"/>
			<path d="M679.583,59.264 h20.844l4.49-21.318h18.568l-4.402,21.318h19.826l-3.238,15.342h-19.822l-7.551,36.728c-0.254,1.156-0.457,2.169-0.594,3.024 c-0.115,0.872-0.182,1.611-0.182,2.248c0,1.937,0.521,3.298,1.568,4.049c1.047,0.762,2.883,1.139,5.502,1.139 c1.785,0,4.063-0.191,6.83-0.588c2.783-0.393,5.273-0.847,7.49-1.371l-3.066,15.49c-2.523,0.682-5.256,1.209-8.221,1.572 c-2.973,0.361-5.756,0.555-8.391,0.555c-3.605,0-6.736-0.383-9.354-1.149c-2.627-0.747-4.783-1.837-6.484-3.253 c-1.717-1.425-2.977-3.149-3.795-5.195c-0.803-2.044-1.211-4.354-1.211-6.916c0-0.897,0.059-1.959,0.148-3.188 c0.111-1.248,0.348-2.722,0.715-4.453l8.023-38.692h-20.926"/>
		</g>
		<g fill="#00AFC4">
			<path d="M11.33,165.202c0-1.515,0.263-2.887,0.79-4.114c0.526-1.228,1.283-2.276,2.272-3.146 c0.989-0.869,2.197-1.539,3.625-2.01c1.427-0.471,3.026-0.706,4.796-0.706c1.85,0,3.568,0.184,5.155,0.55 c1.587,0.367,2.946,0.799,4.079,1.293l-0.717,3.54c-1.181-0.558-2.508-1.017-3.983-1.376c-1.475-0.358-2.938-0.538-4.39-0.538 c-1.148,0-2.189,0.14-3.122,0.419s-1.73,0.67-2.392,1.172c-0.662,0.502-1.168,1.109-1.519,1.818 c-0.351,0.71-0.526,1.504-0.526,2.381c0,0.781,0.155,1.443,0.466,1.984c0.311,0.543,0.733,1.002,1.268,1.377 c0.534,0.374,1.148,0.693,1.842,0.956s1.423,0.507,2.189,0.729c1.148,0.336,2.241,0.698,3.277,1.089 c1.037,0.392,1.954,0.897,2.751,1.519c0.797,0.623,1.427,1.412,1.89,2.369c0.462,0.957,0.694,2.113,0.694,3.469 c0,1.627-0.323,3.086-0.969,4.377c-0.646,1.293-1.551,2.389-2.715,3.29c-1.165,0.901-2.568,1.591-4.21,2.069 s-3.437,0.718-5.383,0.718c-1.021,0-2.042-0.067-3.062-0.204c-1.021-0.135-1.934-0.307-2.739-0.514s-1.507-0.438-2.105-0.693 c-0.598-0.256-1.064-0.503-1.399-0.742l0.742-3.445c0.51,0.304,1.088,0.587,1.734,0.85c0.646,0.264,1.331,0.49,2.057,0.682 c0.726,0.191,1.475,0.34,2.249,0.443c0.773,0.104,1.551,0.155,2.332,0.155c1.531,0,2.883-0.159,4.055-0.479s2.153-0.77,2.942-1.352 s1.383-1.292,1.782-2.13c0.398-0.837,0.598-1.766,0.598-2.787c0-0.893-0.203-1.658-0.61-2.296s-0.945-1.156-1.615-1.556 c-0.67-0.398-1.432-0.729-2.285-0.992c-0.854-0.264-1.727-0.529-2.62-0.801c-0.989-0.287-1.918-0.627-2.787-1.018 c-0.87-0.391-1.635-0.869-2.296-1.436c-0.662-0.565-1.185-1.247-1.567-2.045C11.521,167.276,11.33,166.319,11.33,165.202z"/>
			<path d="M55.587,173.456c0,0.988-0.104,2.049-0.311,3.182c-0.208,1.133-0.526,2.253-0.957,3.361 c-0.431,1.108-0.977,2.173-1.639,3.193c-0.662,1.021-1.452,1.918-2.369,2.691s-1.961,1.392-3.134,1.854 c-1.172,0.463-2.492,0.694-3.959,0.694c-1.212,0-2.32-0.188-3.325-0.563c-1.004-0.374-1.858-0.929-2.56-1.663 c-0.702-0.732-1.248-1.63-1.639-2.69c-0.391-1.061-0.586-2.276-0.586-3.648c0-1.005,0.1-2.081,0.299-3.229 c0.199-1.148,0.514-2.293,0.945-3.434c0.431-1.14,0.977-2.232,1.639-3.277c0.662-1.044,1.447-1.969,2.356-2.774 s1.954-1.447,3.134-1.926s2.496-0.718,3.947-0.718c1.228,0,2.34,0.188,3.337,0.563c0.997,0.375,1.854,0.933,2.572,1.674 c0.718,0.742,1.271,1.672,1.663,2.787C55.392,170.649,55.587,171.957,55.587,173.456z M47.214,167.667 c-0.925,0-1.77,0.176-2.536,0.525c-0.766,0.352-1.459,0.826-2.081,1.424c-0.622,0.598-1.168,1.296-1.639,2.094 c-0.47,0.797-0.865,1.643-1.184,2.535c-0.319,0.894-0.558,1.811-0.718,2.752c-0.159,0.94-0.239,1.85-0.239,2.727 c0,0.83,0.091,1.588,0.275,2.272c0.183,0.687,0.466,1.272,0.849,1.759s0.869,0.861,1.459,1.124c0.59,0.263,1.284,0.396,2.081,0.396 c0.909,0,1.75-0.176,2.524-0.527c0.773-0.35,1.471-0.825,2.093-1.423c0.622-0.599,1.168-1.292,1.639-2.081 c0.47-0.79,0.865-1.631,1.184-2.524s0.558-1.81,0.718-2.751c0.159-0.941,0.239-1.857,0.239-2.751c0-0.845-0.092-1.606-0.275-2.284 c-0.184-0.678-0.467-1.26-0.849-1.747c-0.383-0.486-0.87-0.861-1.459-1.124C48.705,167.798,48.011,167.667,47.214,167.667z"/>
			<path d="M63.099,190.968c-0.334,1.61-0.797,2.962-1.387,4.055c-0.59,1.092-1.3,1.974-2.129,2.644 c-0.829,0.669-1.767,1.151-2.811,1.447c-1.044,0.295-2.181,0.442-3.409,0.442c-0.733,0-1.396-0.057-1.986-0.168 c-0.59-0.111-1.02-0.215-1.292-0.311l0.598-3.158c0.367,0.128,0.781,0.228,1.244,0.299c0.463,0.072,0.885,0.108,1.268,0.108 c0.925,0,1.727-0.116,2.404-0.347c0.678-0.231,1.276-0.622,1.794-1.172c0.518-0.551,0.961-1.272,1.328-2.166 c0.367-0.893,0.686-2.002,0.957-3.324l4.402-21.029h-4.187l0.67-3.182h4.187l0.813-3.947c0.606-2.902,1.734-5.055,3.385-6.459 c1.651-1.402,3.656-2.105,6.017-2.105c0.766,0,1.463,0.057,2.093,0.168s1.121,0.231,1.472,0.359l-0.574,3.086 c-0.479-0.128-0.957-0.224-1.436-0.287c-0.479-0.064-0.949-0.096-1.412-0.096c-1.595,0-2.875,0.458-3.839,1.375 c-0.965,0.918-1.647,2.341-2.045,4.271l-0.742,3.636h6.244l-0.67,3.182h-6.244L63.099,190.968z"/>
			<path d="M85.993,187.978c-0.383,0.111-0.933,0.215-1.651,0.311s-1.436,0.144-2.153,0.144 c-2.01,0-3.477-0.403-4.402-1.208c-0.925-0.805-1.388-1.91-1.388-3.313c0-0.526,0.08-1.188,0.239-1.985l2.823-13.637H75.06 l0.67-3.182h4.402l1.292-6.22h3.732l-1.292,6.22h6.005l-0.646,3.182h-6.029l-2.655,12.728c-0.08,0.415-0.144,0.773-0.191,1.076 c-0.048,0.304-0.072,0.599-0.072,0.886c0,0.829,0.219,1.407,0.658,1.734c0.438,0.326,1.185,0.49,2.237,0.49 c0.479,0,1.049-0.044,1.71-0.132c0.662-0.087,1.248-0.194,1.758-0.323L85.993,187.978z"/>
			<path d="M107.763,169.294c-0.144,0.43-0.319,0.924-0.526,1.482c-0.207,0.559-0.438,1.148-0.693,1.771 c-0.255,0.622-0.523,1.269-0.802,1.938c-0.279,0.67-0.562,1.332-0.849,1.985l-4.952,11.363h-3.899l-3.947-22.727h3.78l1.555,10.168 c0.144,0.925,0.271,1.773,0.383,2.547c0.111,0.774,0.211,1.492,0.299,2.153c0.087,0.662,0.167,1.276,0.239,1.843 s0.14,1.111,0.204,1.639h0.12c0.144-0.432,0.314-0.901,0.514-1.412c0.199-0.51,0.402-1.028,0.61-1.555 c0.207-0.526,0.415-1.045,0.622-1.555c0.207-0.511,0.407-0.98,0.598-1.412l5.407-12.416h4.019l1.268,12.369 c0.048,0.43,0.092,0.9,0.132,1.41c0.04,0.512,0.083,1.029,0.131,1.556s0.092,1.049,0.132,1.567c0.04,0.518,0.067,1,0.083,1.447 h0.12c0.398-1.006,0.853-2.025,1.364-3.063c0.51-1.037,0.997-1.986,1.459-2.847l6.627-12.44h4.21l-12.655,22.727h-3.828 l-1.101-11.435c-0.064-0.622-0.124-1.264-0.179-1.926c-0.056-0.661-0.104-1.308-0.144-1.938c-0.04-0.629-0.076-1.223-0.108-1.781 c-0.032-0.559-0.048-1.045-0.048-1.459H107.763z"/>
			<path d="M139.724,184.102c-0.542,0.798-1.125,1.472-1.747,2.021c-0.622,0.55-1.252,0.997-1.89,1.34 c-0.638,0.343-1.272,0.59-1.902,0.741c-0.63,0.151-1.232,0.228-1.806,0.228c-0.989,0-1.866-0.18-2.631-0.538 c-0.766-0.359-1.412-0.873-1.938-1.543s-0.925-1.475-1.196-2.416s-0.407-1.986-0.407-3.135c0-1.291,0.112-2.587,0.335-3.887 s0.554-2.557,0.993-3.768c0.438-1.213,0.984-2.341,1.639-3.386c0.654-1.044,1.403-1.958,2.249-2.739s1.786-1.395,2.823-1.842 c1.037-0.446,2.169-0.67,3.397-0.67c1.211,0,2.28,0.251,3.206,0.754c0.925,0.502,1.634,1.207,2.129,2.117h0.096l1.101-2.273h3.014 l-3.66,17.488c-0.112,0.605-0.167,1.061-0.167,1.363c0,0.383,0.108,0.662,0.323,0.838c0.215,0.176,0.594,0.263,1.136,0.263 c0.446,0,0.973-0.048,1.579-0.144l-0.646,3.063c-0.67,0.143-1.412,0.215-2.225,0.215c-1.324,0-2.281-0.311-2.871-0.934 c-0.59-0.621-0.87-1.674-0.837-3.157H139.724z M142.403,170.202c-0.208-0.287-0.451-0.582-0.729-0.885 c-0.279-0.303-0.602-0.578-0.969-0.826c-0.367-0.246-0.778-0.445-1.232-0.598c-0.455-0.15-0.969-0.227-1.543-0.227 c-0.941,0-1.794,0.207-2.56,0.621c-0.766,0.416-1.443,0.961-2.033,1.639c-0.59,0.679-1.101,1.456-1.531,2.333 c-0.431,0.878-0.786,1.782-1.064,2.716c-0.279,0.933-0.487,1.854-0.622,2.763c-0.136,0.909-0.203,1.738-0.203,2.487 c0,1.006,0.091,1.834,0.275,2.488c0.183,0.654,0.435,1.168,0.753,1.543s0.686,0.639,1.101,0.789 c0.415,0.152,0.845,0.229,1.292,0.229c0.781,0,1.575-0.204,2.38-0.611c0.805-0.406,1.559-0.996,2.26-1.77s1.332-1.723,1.89-2.848 c0.558-1.123,0.989-2.403,1.292-3.839L142.403,170.202z"/>
			<path d="M165.967,168.265c-0.495-0.063-0.981-0.096-1.459-0.096c-1.117,0-2.121,0.188-3.014,0.563 c-0.894,0.375-1.667,0.885-2.321,1.531c-0.654,0.646-1.192,1.403-1.615,2.271c-0.422,0.87-0.738,1.791-0.945,2.764l-2.607,12.535 h-3.708l4.736-22.727h3.039v3.086h0.096c0.383-0.51,0.805-0.988,1.268-1.436c0.462-0.445,0.981-0.836,1.555-1.172 c0.574-0.334,1.2-0.598,1.878-0.789c0.678-0.191,1.415-0.287,2.213-0.287c0.287,0,0.566,0.012,0.837,0.035 c0.271,0.024,0.534,0.061,0.789,0.108L165.967,168.265z"/>
			<path d="M185.943,170.394c0,1.42-0.351,2.607-1.053,3.564c-0.702,0.957-1.719,1.73-3.05,2.32 c-1.332,0.591-2.962,1.025-4.892,1.305c-1.93,0.279-4.131,0.45-6.603,0.514c-0.016,0.176-0.028,0.352-0.036,0.526 c-0.008,0.176-0.012,0.367-0.012,0.574c0,2.073,0.518,3.589,1.555,4.546s2.592,1.436,4.665,1.436c0.542,0,1.104-0.037,1.687-0.108 c0.582-0.071,1.16-0.175,1.734-0.312c0.574-0.135,1.128-0.29,1.663-0.466c0.534-0.175,1.017-0.366,1.447-0.574l-0.67,3.397 c-0.813,0.367-1.774,0.678-2.882,0.933c-1.109,0.255-2.309,0.383-3.601,0.383c-1.626,0-3.026-0.224-4.198-0.67 c-1.172-0.446-2.138-1.072-2.895-1.878c-0.757-0.805-1.315-1.762-1.674-2.871c-0.359-1.107-0.539-2.324-0.539-3.648 c0-1.211,0.12-2.424,0.359-3.636s0.594-2.368,1.065-3.469c0.47-1.101,1.052-2.121,1.746-3.062c0.694-0.941,1.495-1.759,2.404-2.453 c0.909-0.693,1.926-1.239,3.05-1.639c1.125-0.398,2.34-0.598,3.648-0.598c0.941,0,1.838,0.115,2.691,0.347 c0.853,0.231,1.606,0.591,2.261,1.077c0.654,0.486,1.172,1.1,1.555,1.842C185.751,168.516,185.943,169.39,185.943,170.394z M171.039,174.771c1.754,0,3.326-0.087,4.713-0.263c1.388-0.176,2.56-0.443,3.517-0.802c0.957-0.358,1.69-0.821,2.201-1.388 c0.51-0.566,0.766-1.256,0.766-2.069c0-0.335-0.072-0.657-0.215-0.969s-0.359-0.586-0.646-0.825s-0.642-0.431-1.065-0.574 c-0.422-0.144-0.905-0.215-1.447-0.215c-0.909,0-1.774,0.167-2.595,0.502c-0.822,0.335-1.571,0.813-2.249,1.436 c-0.678,0.621-1.272,1.371-1.782,2.248C171.724,172.73,171.326,173.703,171.039,174.771z"/>
			<path d="M203.119,184.317h15.287l-0.717,3.516h-19.186l6.65-32.008h18.301l-0.742,3.516h-14.401l-2.153,10.336 h12.87l-0.717,3.516H205.44L203.119,184.317z"/>
			<path d="M227.401,187.833h-3.708l4.736-22.727h3.039v3.086h0.096c0.973-1.148,2.117-2.049,3.433-2.703 c1.316-0.653,2.795-0.98,4.438-0.98c0.909,0,1.742,0.123,2.5,0.371c0.757,0.247,1.403,0.602,1.938,1.064 c0.534,0.463,0.953,1.037,1.256,1.723c0.303,0.686,0.455,1.467,0.455,2.344c0,0.622-0.052,1.284-0.155,1.986 c-0.104,0.701-0.236,1.42-0.395,2.152l-2.847,13.684h-3.708l2.918-14.113c0.255-1.164,0.383-2.121,0.383-2.871 c0-0.574-0.083-1.064-0.251-1.472s-0.403-0.733-0.706-0.981c-0.303-0.246-0.666-0.43-1.088-0.549 c-0.423-0.12-0.881-0.18-1.375-0.18c-1.069,0-2.065,0.195-2.99,0.586c-0.925,0.391-1.747,0.93-2.464,1.615 c-0.717,0.686-1.324,1.49-1.818,2.416c-0.495,0.925-0.854,1.93-1.077,3.014L227.401,187.833z"/>
			<path d="M263.668,184.222h-0.096c-0.542,0.797-1.121,1.467-1.734,2.009c-0.614,0.542-1.232,0.978-1.854,1.304 c-0.622,0.327-1.244,0.559-1.866,0.693c-0.622,0.137-1.22,0.204-1.794,0.204c-1.005,0-1.898-0.18-2.68-0.538 c-0.781-0.359-1.439-0.873-1.974-1.543s-0.945-1.475-1.232-2.416s-0.431-1.986-0.431-3.135c0-1.291,0.116-2.587,0.347-3.887 c0.231-1.3,0.57-2.557,1.017-3.768c0.446-1.213,1-2.341,1.663-3.386c0.662-1.044,1.423-1.958,2.285-2.739s1.814-1.395,2.859-1.842 c1.044-0.446,2.181-0.67,3.409-0.67c1.212,0,2.297,0.256,3.254,0.766c0.957,0.51,1.682,1.22,2.177,2.129h0.096l1.101-2.297h3.014 l-4.976,24.115c-0.383,1.85-0.953,3.424-1.71,4.725c-0.757,1.299-1.679,2.367-2.763,3.205s-2.316,1.447-3.696,1.83 c-1.38,0.383-2.891,0.574-4.533,0.574c-1.292,0-2.508-0.111-3.648-0.335c-1.141-0.224-2.221-0.519-3.242-0.886l0.646-3.253 c0.909,0.366,1.894,0.666,2.955,0.897c1.061,0.23,2.101,0.347,3.122,0.347c1.451,0,2.719-0.176,3.804-0.526 c1.084-0.352,1.998-0.894,2.739-1.627c0.742-0.733,1.355-1.662,1.842-2.787c0.486-1.124,0.897-2.46,1.232-4.007L263.668,184.222z M266.419,170.202c-0.208-0.287-0.455-0.582-0.742-0.885c-0.287-0.303-0.622-0.578-1.004-0.826c-0.383-0.246-0.81-0.445-1.28-0.598 c-0.471-0.15-1.001-0.227-1.591-0.227c-0.925,0-1.77,0.207-2.536,0.621c-0.766,0.416-1.447,0.961-2.045,1.639 c-0.598,0.679-1.117,1.456-1.555,2.333c-0.438,0.878-0.801,1.782-1.088,2.716c-0.287,0.933-0.502,1.854-0.646,2.763 s-0.215,1.738-0.215,2.487c0,1.006,0.1,1.834,0.299,2.488c0.199,0.654,0.466,1.168,0.801,1.543s0.718,0.639,1.148,0.789 c0.431,0.152,0.869,0.229,1.316,0.229c0.781,0,1.579-0.204,2.392-0.611c0.813-0.406,1.579-0.996,2.296-1.77 c0.718-0.773,1.364-1.723,1.938-2.848c0.574-1.123,1.005-2.403,1.292-3.839L266.419,170.202z"/>
			<path d="M273.5,187.833l4.712-22.727h3.708l-4.713,22.727H273.5z M279.217,159.819l0.837-4.09h3.899l-0.837,4.09 H279.217z"/>
			<path d="M287.663,187.833h-3.708l4.736-22.727h3.038v3.086h0.096c0.973-1.148,2.117-2.049,3.434-2.703 c1.315-0.653,2.795-0.98,4.438-0.98c0.909,0,1.742,0.123,2.5,0.371c0.757,0.247,1.403,0.602,1.938,1.064s0.953,1.037,1.256,1.723 s0.455,1.467,0.455,2.344c0,0.622-0.053,1.284-0.156,1.986c-0.104,0.701-0.235,1.42-0.395,2.152l-2.847,13.684h-3.708l2.919-14.113 c0.255-1.164,0.383-2.121,0.383-2.871c0-0.574-0.084-1.064-0.252-1.472c-0.167-0.407-0.402-0.733-0.705-0.981 c-0.304-0.246-0.666-0.43-1.089-0.549c-0.423-0.12-0.882-0.18-1.376-0.18c-1.068,0-2.065,0.195-2.99,0.586s-1.746,0.93-2.464,1.615 s-1.324,1.49-1.818,2.416c-0.494,0.925-0.853,1.93-1.076,3.014L287.663,187.833z"/>
			<path d="M329.383,170.394c0,1.42-0.351,2.607-1.053,3.564c-0.701,0.957-1.719,1.73-3.05,2.32 c-1.332,0.591-2.963,1.025-4.893,1.305s-4.131,0.45-6.603,0.514c-0.016,0.176-0.027,0.352-0.035,0.526 c-0.009,0.176-0.013,0.367-0.013,0.574c0,2.073,0.519,3.589,1.556,4.546c1.036,0.957,2.591,1.436,4.664,1.436 c0.542,0,1.104-0.037,1.688-0.108c0.581-0.071,1.16-0.175,1.734-0.312c0.573-0.135,1.128-0.29,1.662-0.466 c0.534-0.175,1.017-0.366,1.447-0.574l-0.67,3.397c-0.813,0.367-1.774,0.678-2.883,0.933s-2.309,0.383-3.6,0.383 c-1.627,0-3.026-0.224-4.199-0.67c-1.172-0.446-2.137-1.072-2.895-1.878c-0.758-0.805-1.315-1.762-1.675-2.871 c-0.358-1.107-0.538-2.324-0.538-3.648c0-1.211,0.12-2.424,0.359-3.636s0.594-2.368,1.064-3.469 c0.47-1.101,1.053-2.121,1.746-3.062c0.694-0.941,1.495-1.759,2.404-2.453c0.909-0.693,1.926-1.239,3.05-1.639 c1.125-0.398,2.341-0.598,3.648-0.598c0.941,0,1.838,0.115,2.691,0.347s1.606,0.591,2.261,1.077s1.172,1.1,1.555,1.842 C329.192,168.516,329.383,169.39,329.383,170.394z M314.48,174.771c1.754,0,3.325-0.087,4.713-0.263 c1.387-0.176,2.56-0.443,3.517-0.802s1.689-0.821,2.2-1.388s0.766-1.256,0.766-2.069c0-0.335-0.071-0.657-0.215-0.969 s-0.359-0.586-0.646-0.825s-0.642-0.431-1.064-0.574s-0.905-0.215-1.447-0.215c-0.909,0-1.774,0.167-2.596,0.502 s-1.57,0.813-2.248,1.436c-0.679,0.621-1.272,1.371-1.782,2.248C315.166,172.73,314.767,173.703,314.48,174.771z"/>
			<path d="M351.727,170.394c0,1.42-0.351,2.607-1.053,3.564c-0.701,0.957-1.719,1.73-3.05,2.32 c-1.332,0.591-2.963,1.025-4.893,1.305s-4.131,0.45-6.603,0.514c-0.016,0.176-0.027,0.352-0.035,0.526 c-0.009,0.176-0.013,0.367-0.013,0.574c0,2.073,0.519,3.589,1.556,4.546c1.036,0.957,2.591,1.436,4.664,1.436 c0.542,0,1.104-0.037,1.688-0.108c0.581-0.071,1.16-0.175,1.734-0.312c0.573-0.135,1.128-0.29,1.662-0.466 c0.534-0.175,1.017-0.366,1.447-0.574l-0.67,3.397c-0.813,0.367-1.774,0.678-2.883,0.933s-2.309,0.383-3.6,0.383 c-1.627,0-3.026-0.224-4.199-0.67c-1.172-0.446-2.137-1.072-2.895-1.878c-0.758-0.805-1.315-1.762-1.675-2.871 c-0.358-1.107-0.538-2.324-0.538-3.648c0-1.211,0.12-2.424,0.359-3.636s0.594-2.368,1.064-3.469 c0.47-1.101,1.053-2.121,1.746-3.062c0.694-0.941,1.495-1.759,2.404-2.453c0.909-0.693,1.926-1.239,3.05-1.639 c1.125-0.398,2.341-0.598,3.648-0.598c0.941,0,1.838,0.115,2.691,0.347s1.606,0.591,2.261,1.077s1.172,1.1,1.555,1.842 C351.536,168.516,351.727,169.39,351.727,170.394z M336.824,174.771c1.754,0,3.325-0.087,4.713-0.263 c1.387-0.176,2.56-0.443,3.517-0.802s1.689-0.821,2.2-1.388s0.766-1.256,0.766-2.069c0-0.335-0.071-0.657-0.215-0.969 s-0.359-0.586-0.646-0.825s-0.642-0.431-1.064-0.574s-0.905-0.215-1.447-0.215c-0.909,0-1.774,0.167-2.596,0.502 s-1.57,0.813-2.248,1.436c-0.679,0.621-1.272,1.371-1.782,2.248C337.509,172.73,337.111,173.703,336.824,174.771z"/>
			<path d="M369.669,168.265c-0.495-0.063-0.981-0.096-1.459-0.096c-1.117,0-2.122,0.188-3.015,0.563 c-0.894,0.375-1.667,0.885-2.32,1.531c-0.654,0.646-1.192,1.403-1.615,2.271c-0.423,0.87-0.737,1.791-0.944,2.764l-2.608,12.535 H354l4.737-22.727h3.038v3.086h0.096c0.383-0.51,0.805-0.988,1.268-1.436c0.463-0.445,0.981-0.836,1.555-1.172 c0.574-0.334,1.2-0.598,1.878-0.789s1.416-0.287,2.213-0.287c0.287,0,0.566,0.012,0.838,0.035c0.271,0.024,0.534,0.061,0.789,0.108 L369.669,168.265z"/>
			<path d="M369.574,187.833l4.713-22.727h3.708l-4.713,22.727H369.574z M375.292,159.819l0.837-4.09h3.9l-0.838,4.09 H375.292z"/>
			<path d="M383.736,187.833h-3.708l4.737-22.727h3.038v3.086h0.096c0.973-1.148,2.117-2.049,3.433-2.703 c1.315-0.653,2.795-0.98,4.438-0.98c0.909,0,1.742,0.123,2.5,0.371c0.758,0.247,1.403,0.602,1.938,1.064 c0.533,0.463,0.952,1.037,1.256,1.723c0.303,0.686,0.454,1.467,0.454,2.344c0,0.622-0.052,1.284-0.155,1.986 c-0.104,0.701-0.235,1.42-0.395,2.152l-2.848,13.684h-3.708l2.919-14.113c0.255-1.164,0.383-2.121,0.383-2.871 c0-0.574-0.084-1.064-0.251-1.472c-0.168-0.407-0.403-0.733-0.706-0.981c-0.303-0.246-0.666-0.43-1.088-0.549 c-0.423-0.12-0.882-0.18-1.376-0.18c-1.068,0-2.065,0.195-2.99,0.586s-1.746,0.93-2.464,1.615s-1.324,1.49-1.818,2.416 c-0.495,0.925-0.854,1.93-1.076,3.014L383.736,187.833z"/>
			<path d="M420.003,184.222h-0.096c-0.542,0.797-1.121,1.467-1.734,2.009c-0.614,0.542-1.232,0.978-1.854,1.304 c-0.621,0.327-1.243,0.559-1.865,0.693c-0.622,0.137-1.221,0.204-1.795,0.204c-1.004,0-1.897-0.18-2.679-0.538 c-0.782-0.359-1.439-0.873-1.974-1.543c-0.535-0.67-0.945-1.475-1.232-2.416s-0.431-1.986-0.431-3.135 c0-1.291,0.115-2.587,0.347-3.887s0.57-2.557,1.018-3.768c0.446-1.213,1-2.341,1.662-3.386c0.662-1.044,1.424-1.958,2.285-2.739 c0.86-0.781,1.813-1.395,2.858-1.842c1.044-0.446,2.181-0.67,3.409-0.67c1.212,0,2.296,0.256,3.253,0.766s1.683,1.22,2.178,2.129 h0.096l1.1-2.297h3.015l-4.976,24.115c-0.383,1.85-0.953,3.424-1.711,4.725c-0.758,1.299-1.679,2.367-2.763,3.205 c-1.085,0.838-2.317,1.447-3.696,1.83c-1.38,0.383-2.891,0.574-4.533,0.574c-1.292,0-2.509-0.111-3.648-0.335 c-1.141-0.224-2.221-0.519-3.241-0.886l0.646-3.253c0.909,0.366,1.894,0.666,2.954,0.897c1.061,0.23,2.102,0.347,3.122,0.347 c1.451,0,2.72-0.176,3.804-0.526c1.085-0.352,1.998-0.894,2.739-1.627c0.742-0.733,1.355-1.662,1.842-2.787 c0.486-1.124,0.897-2.46,1.232-4.007L420.003,184.222z M422.754,170.202c-0.207-0.287-0.454-0.582-0.741-0.885 s-0.622-0.578-1.005-0.826c-0.383-0.246-0.81-0.445-1.28-0.598c-0.471-0.15-1.001-0.227-1.591-0.227 c-0.925,0-1.771,0.207-2.535,0.621c-0.766,0.416-1.448,0.961-2.046,1.639c-0.598,0.679-1.116,1.456-1.555,2.333 c-0.439,0.878-0.802,1.782-1.089,2.716c-0.287,0.933-0.502,1.854-0.646,2.763s-0.216,1.738-0.216,2.487 c0,1.006,0.1,1.834,0.299,2.488s0.467,1.168,0.802,1.543s0.718,0.639,1.148,0.789c0.431,0.152,0.869,0.229,1.315,0.229 c0.781,0,1.579-0.204,2.393-0.611c0.813-0.406,1.579-0.996,2.297-1.77s1.363-1.723,1.938-2.848 c0.574-1.123,1.005-2.403,1.292-3.839L422.754,170.202z"/>
			<path d="M435.936,187.833l17.727-32.008h3.277l6.316,32.008h-3.947l-1.843-9.641h-11.938l-5.286,9.641H435.936z M447.443,174.676h9.354l-1.147-6.147c-0.526-2.823-0.926-5.16-1.196-7.01h-0.096c-0.846,1.945-2.121,4.465-3.828,7.56 L447.443,174.676z"/>
			<path d="M482.059,184.222h-0.096c-0.542,0.797-1.121,1.467-1.734,2.009c-0.614,0.542-1.232,0.978-1.854,1.304 c-0.621,0.327-1.243,0.559-1.865,0.693c-0.622,0.137-1.221,0.204-1.795,0.204c-1.004,0-1.897-0.18-2.679-0.538 c-0.782-0.359-1.439-0.873-1.974-1.543c-0.535-0.67-0.945-1.475-1.232-2.416s-0.431-1.986-0.431-3.135 c0-1.291,0.115-2.587,0.347-3.887s0.57-2.557,1.018-3.768c0.446-1.213,1-2.341,1.662-3.386c0.662-1.044,1.424-1.958,2.285-2.739 c0.86-0.781,1.813-1.395,2.858-1.842c1.044-0.446,2.181-0.67,3.409-0.67c1.212,0,2.296,0.256,3.253,0.766s1.683,1.22,2.178,2.129 h0.096l1.1-2.297h3.015l-4.976,24.115c-0.383,1.85-0.953,3.424-1.711,4.725c-0.758,1.299-1.679,2.367-2.763,3.205 c-1.085,0.838-2.317,1.447-3.696,1.83c-1.38,0.383-2.891,0.574-4.533,0.574c-1.292,0-2.509-0.111-3.648-0.335 c-1.141-0.224-2.221-0.519-3.241-0.886l0.646-3.253c0.909,0.366,1.894,0.666,2.954,0.897c1.061,0.23,2.102,0.347,3.122,0.347 c1.451,0,2.72-0.176,3.804-0.526c1.085-0.352,1.998-0.894,2.739-1.627c0.742-0.733,1.355-1.662,1.842-2.787 c0.486-1.124,0.897-2.46,1.232-4.007L482.059,184.222z M484.81,170.202c-0.207-0.287-0.454-0.582-0.741-0.885 s-0.622-0.578-1.005-0.826c-0.383-0.246-0.81-0.445-1.28-0.598c-0.471-0.15-1.001-0.227-1.591-0.227 c-0.925,0-1.771,0.207-2.535,0.621c-0.766,0.416-1.448,0.961-2.046,1.639c-0.598,0.679-1.116,1.456-1.555,2.333 c-0.439,0.878-0.802,1.782-1.089,2.716c-0.287,0.933-0.502,1.854-0.646,2.763s-0.216,1.738-0.216,2.487 c0,1.006,0.1,1.834,0.299,2.488s0.467,1.168,0.802,1.543s0.718,0.639,1.148,0.789c0.431,0.152,0.869,0.229,1.315,0.229 c0.781,0,1.579-0.204,2.393-0.611c0.813-0.406,1.579-0.996,2.297-1.77s1.363-1.723,1.938-2.848 c0.574-1.123,1.005-2.403,1.292-3.839L484.81,170.202z"/>
			<path d="M511.962,170.394c0,1.42-0.351,2.607-1.053,3.564c-0.701,0.957-1.719,1.73-3.05,2.32 c-1.332,0.591-2.963,1.025-4.893,1.305s-4.131,0.45-6.603,0.514c-0.016,0.176-0.027,0.352-0.035,0.526 c-0.009,0.176-0.013,0.367-0.013,0.574c0,2.073,0.519,3.589,1.556,4.546c1.036,0.957,2.591,1.436,4.664,1.436 c0.542,0,1.104-0.037,1.688-0.108c0.581-0.071,1.16-0.175,1.734-0.312c0.573-0.135,1.128-0.29,1.662-0.466 c0.534-0.175,1.017-0.366,1.447-0.574l-0.67,3.397c-0.813,0.367-1.774,0.678-2.883,0.933s-2.309,0.383-3.6,0.383 c-1.627,0-3.026-0.224-4.199-0.67c-1.172-0.446-2.137-1.072-2.895-1.878c-0.758-0.805-1.315-1.762-1.675-2.871 c-0.358-1.107-0.538-2.324-0.538-3.648c0-1.211,0.12-2.424,0.359-3.636s0.594-2.368,1.064-3.469 c0.47-1.101,1.053-2.121,1.746-3.062c0.694-0.941,1.495-1.759,2.404-2.453c0.909-0.693,1.926-1.239,3.05-1.639 c1.125-0.398,2.341-0.598,3.648-0.598c0.941,0,1.838,0.115,2.691,0.347s1.606,0.591,2.261,1.077s1.172,1.1,1.555,1.842 C511.771,168.516,511.962,169.39,511.962,170.394z M497.059,174.771c1.754,0,3.325-0.087,4.713-0.263 c1.387-0.176,2.56-0.443,3.517-0.802s1.689-0.821,2.2-1.388s0.766-1.256,0.766-2.069c0-0.335-0.071-0.657-0.215-0.969 s-0.359-0.586-0.646-0.825s-0.642-0.431-1.064-0.574s-0.905-0.215-1.447-0.215c-0.909,0-1.774,0.167-2.596,0.502 s-1.57,0.813-2.248,1.436c-0.679,0.621-1.272,1.371-1.782,2.248C497.745,172.73,497.346,173.703,497.059,174.771z"/>
			<path d="M517.943,187.833h-3.708l4.737-22.727h3.038v3.086h0.096c0.973-1.148,2.117-2.049,3.433-2.703 c1.315-0.653,2.795-0.98,4.438-0.98c0.909,0,1.742,0.123,2.5,0.371c0.758,0.247,1.403,0.602,1.938,1.064 c0.533,0.463,0.952,1.037,1.256,1.723c0.303,0.686,0.454,1.467,0.454,2.344c0,0.622-0.052,1.284-0.155,1.986 c-0.104,0.701-0.235,1.42-0.395,2.152l-2.848,13.684h-3.708l2.919-14.113c0.255-1.164,0.383-2.121,0.383-2.871 c0-0.574-0.084-1.064-0.251-1.472c-0.168-0.407-0.403-0.733-0.706-0.981c-0.303-0.246-0.666-0.43-1.088-0.549 c-0.423-0.12-0.882-0.18-1.376-0.18c-1.068,0-2.065,0.195-2.99,0.586s-1.746,0.93-2.464,1.615s-1.324,1.49-1.818,2.416 c-0.495,0.925-0.854,1.93-1.076,3.014L517.943,187.833z"/>
			<path d="M558.062,168.935c-0.766-0.351-1.607-0.638-2.523-0.861c-0.918-0.223-1.774-0.335-2.572-0.335 c-1.068,0-2.045,0.191-2.931,0.574c-0.885,0.383-1.658,0.89-2.32,1.519c-0.662,0.631-1.229,1.352-1.698,2.166 c-0.471,0.813-0.854,1.654-1.148,2.523s-0.511,1.727-0.646,2.572c-0.135,0.845-0.203,1.618-0.203,2.32 c0,1.116,0.136,2.049,0.407,2.799c0.271,0.75,0.649,1.344,1.136,1.781c0.486,0.439,1.068,0.75,1.747,0.934 c0.678,0.184,1.415,0.275,2.213,0.275c1.132,0,2.232-0.147,3.301-0.443c1.068-0.295,1.97-0.641,2.703-1.04l-0.67,3.397 c-0.318,0.176-0.701,0.343-1.147,0.502c-0.447,0.16-0.934,0.299-1.46,0.418c-0.526,0.12-1.072,0.216-1.639,0.287 c-0.566,0.072-1.136,0.108-1.71,0.108c-1.148,0-2.241-0.159-3.277-0.479c-1.037-0.319-1.95-0.833-2.739-1.543 c-0.79-0.71-1.416-1.618-1.878-2.728c-0.463-1.107-0.694-2.451-0.694-4.031c0-1.068,0.104-2.176,0.312-3.324 c0.207-1.148,0.529-2.289,0.969-3.422c0.438-1.132,0.992-2.204,1.662-3.217c0.67-1.014,1.472-1.902,2.404-2.668 c0.934-0.766,2.006-1.375,3.218-1.83s2.552-0.682,4.02-0.682c0.574,0,1.14,0.04,1.698,0.119c0.558,0.08,1.089,0.18,1.591,0.299 c0.502,0.12,0.973,0.256,1.411,0.407s0.81,0.3,1.112,0.442L558.062,168.935z"/>
			<path d="M561.555,165.106h3.827l3.947,17.967h0.096l9.688-17.967h4.282l-12.99,23.373 c-0.797,1.436-1.563,2.755-2.296,3.959c-0.734,1.204-1.508,2.269-2.32,3.193c-1.101,1.276-2.317,2.249-3.648,2.919 c-1.332,0.67-2.899,1.005-4.701,1.005c-0.335,0-0.674-0.012-1.017-0.035c-0.343-0.024-0.697-0.068-1.064-0.133l0.67-3.205 c0.239,0.031,0.475,0.06,0.705,0.084c0.231,0.023,0.459,0.035,0.683,0.035c0.957,0,1.842-0.172,2.655-0.514 c0.813-0.344,1.591-0.869,2.332-1.579c0.742-0.71,1.463-1.619,2.165-2.728s1.42-2.428,2.153-3.959L561.555,165.106z"/>
		</g>
		<g fill="#00AFC4">
			<path d="M793.497,138.225l22.16,22.163c1.027,1.025,2.134,1.921,3.294,2.705c0.514-0.541,1.009-1.086,1.515-1.629 c-6.808-10.41-11.917-21.66-14.63-33.354c-0.076-0.307-0.142-0.612-0.215-0.919C801.836,131.085,797.785,134.784,793.497,138.225z"/>
			<path d="M783.502,128.229c7.212-4.443,13.912-9.633,19.942-15.311c-1.46-20.967,4.576-40.594,13.243-54.976 c6.063-10.284,12.998-18.412,19.592-24.85c-0.703-6.902-2.002-11.102-1.959-11.549c0-0.001-0.001-0.002-0.001-0.003 c0.004-0.029,0.013-0.043,0.028-0.038c-0.018-0.002-0.026,0.011-0.028,0.038c0,0.001,0.001,0.002,0.001,0.003 c-0.019,0.421,1.613,4.121,3.042,10.513c3.531-3.37,6.938-6.257,10.04-8.73l-0.195-0.195c-8.713-8.714-22.838-8.714-31.551,0 l-52.847,52.85c-8.713,8.713-8.713,22.84,0,31.554L783.502,128.229z"/>
			<path d="M837.934,34.837c1.293,6.88,2.16,16.199,0.927,27.454c-1.506,17.881-11.063,38.875-26.166,57.026 c0.492,2.154,1.076,4.307,1.762,6.453c2.884,9.568,7.566,18.684,13.568,27.11c6.782-8.167,12.591-16.524,17.228-24.913 c23.734-40.912,21.859-74.95,22.344-76.779c0.002-0.009,0.004-0.027,0.006-0.034c0.017-0.05,0.036-0.067,0.059-0.047 c-0.024-0.018-0.043,0-0.059,0.047c-0.002,0.007-0.004,0.026-0.006,0.034c-0.424,1.823,3.495,35.658-18.473,78.894 c-4.487,9.284-10.322,18.636-17.28,27.839c2.143,2.675,4.413,5.271,6.803,7.777c3.126-1.066,6.068-2.819,8.562-5.311l52.852-52.853 c8.713-8.714,8.713-22.841,0-31.554L848.426,24.35C845.173,27.298,841.589,30.767,837.934,34.837z"/>
			<path d="M836.551,36.413c-5.588,6.43-11.242,14.232-15.987,23.637c-6.55,12.656-10.682,28.686-9.798,45.373 c12.343-13.733,20.884-29.389,23.747-43.879C836.712,51.697,836.967,43.098,836.551,36.413z"/>
		</g>
	</g>
</svg>
