<svg id="Ebene_1" data-name="Ebene 1" xmlns="http://www.w3.org/2000/svg" viewBox="0 0 193.04 139.15"><defs><style>.cls-1{fill:#f39200;}.cls-2{fill:#328977;}.cls-3{fill:#fff;}</style></defs><path class="cls-1" d="M24.52,116.14a5.55,5.55,0,0,1-1.47,4.19,6.29,6.29,0,0,1-4.5,1.41A6.4,6.4,0,0,1,14,120.33a5.49,5.49,0,0,1-1.5-4.19V105.81h4.09v10.25a2.25,2.25,0,0,0,.44,1.54,2,2,0,0,0,1.5.48,1.88,1.88,0,0,0,1.48-.47,2.3,2.3,0,0,0,.42-1.55V105.81h4.07Z"/><path class="cls-1" d="M33,121.46v-8.2a1.56,1.56,0,0,0-.36-1.16,1.4,1.4,0,0,0-1-.34,2.07,2.07,0,0,0-.86.18,1.49,1.49,0,0,0-.62.51v9h-3.8V108.77l2.75-.16.5,1a4.82,4.82,0,0,1,3.14-1.11,3.8,3.8,0,0,1,3,1.23,5.16,5.16,0,0,1,1.11,3.57v8.2Z"/><path class="cls-1" d="M49.48,115a11.64,11.64,0,0,1-.34,3,5.91,5.91,0,0,1-1,2.08,3.79,3.79,0,0,1-1.52,1.19,5.25,5.25,0,0,1-2,.37,4.25,4.25,0,0,1-1.69-.31,4.07,4.07,0,0,1-1.25-.83l-.42.91H38.71V105.25l3.78-.17v2.59l0,1.67.06,0a3.76,3.76,0,0,1,1.22-.67,4.43,4.43,0,0,1,1.35-.21,4.54,4.54,0,0,1,1.84.37A3.37,3.37,0,0,1,48.3,110a5.48,5.48,0,0,1,.88,2A12.79,12.79,0,0,1,49.48,115Zm-3.9.07a14,14,0,0,0-.09-1.78,3.3,3.3,0,0,0-.29-1,.94.94,0,0,0-.51-.46,2.2,2.2,0,0,0-.72-.1,1.67,1.67,0,0,0-.86.22,1.65,1.65,0,0,0-.62.61v5.26a2.22,2.22,0,0,0,.59.63,1.46,1.46,0,0,0,.89.25,1.68,1.68,0,0,0,.7-.13,1,1,0,0,0,.5-.52,3.48,3.48,0,0,0,.31-1.09A13.34,13.34,0,0,0,45.58,115.08Z"/><path class="cls-1" d="M56.71,121.69q-3.23,0-4.71-1.71a7.39,7.39,0,0,1-1.49-5,7.65,7.65,0,0,1,1.31-4.81,5,5,0,0,1,4.11-1.66,4.87,4.87,0,0,1,3.73,1.41A6.4,6.4,0,0,1,61,114.39c0,.29,0,.6,0,.92s0,.62-.07.9H54.43A2.42,2.42,0,0,0,55.2,118a3.27,3.27,0,0,0,2,.5,8.93,8.93,0,0,0,3.08-.52l.4,3a9.71,9.71,0,0,1-1.76.54A11.1,11.1,0,0,1,56.71,121.69Zm.79-8a2.88,2.88,0,0,0-.42-1.65,1.67,1.67,0,0,0-2.28,0,3.16,3.16,0,0,0-.43,1.67Z"/><path class="cls-1" d="M67.08,117l-1,1.31,0,.06h5L71,121.46H61.9v-2.65l3.8-5.61,1-1.34,0,0H62l.12-3.13h8.73v2.61Z"/><path class="cls-1" d="M78.87,120.44l-.06,0a4.13,4.13,0,0,1-5.71.2,5.33,5.33,0,0,1-.72-4.86,3.63,3.63,0,0,1,.85-1.28,3.69,3.69,0,0,1,1.34-.82,5,5,0,0,1,1.78-.29,8.49,8.49,0,0,1,1.07.06,5,5,0,0,1,.89.19v-.5a1.38,1.38,0,0,0-.43-1.11,2.38,2.38,0,0,0-1.55-.38,8.08,8.08,0,0,0-.89.05,5.94,5.94,0,0,0-.77.11,6.77,6.77,0,0,0-.74.2c-.26.08-.52.18-.8.29l-.29-3a8.37,8.37,0,0,1,2-.61A13.32,13.32,0,0,1,77,108.5a7.6,7.6,0,0,1,2.35.31,3.41,3.41,0,0,1,1.55.94,3.71,3.71,0,0,1,.84,1.6,8.75,8.75,0,0,1,.26,2.31v7.8h-2.9Zm-.58-4.32a2.29,2.29,0,0,0-.49-.13,3.73,3.73,0,0,0-.72-.06,1.26,1.26,0,0,0-1.42,1.42A1.45,1.45,0,0,0,76,118.4a1.22,1.22,0,0,0,.89.31,1.64,1.64,0,0,0,1-.31,1,1,0,0,0,.43-.86Z"/><path class="cls-1" d="M90.58,121.46v-8.2a1.66,1.66,0,0,0-.33-1.15,1.45,1.45,0,0,0-1.07-.35,1.84,1.84,0,0,0-.86.19,1.55,1.55,0,0,0-.62.5v9H83.92V105.27l3.78-.19v2.57l0,1.67.06,0a3.53,3.53,0,0,1,1.35-.71,4.92,4.92,0,0,1,1.34-.19,3.59,3.59,0,0,1,2.9,1.26,5.41,5.41,0,0,1,1,3.54v8.2Z"/><path class="cls-1" d="M96.3,121.46V105.25l3.82-.17v16.38Z"/><path class="cls-1" d="M113,115a11.6,11.6,0,0,1-.35,3,5.91,5.91,0,0,1-1,2.08,3.72,3.72,0,0,1-1.52,1.19,5.21,5.21,0,0,1-2,.37,4.25,4.25,0,0,1-1.69-.31,4.2,4.2,0,0,1-1.25-.83l-.42.91h-2.54V105.25l3.78-.17v2.59l-.05,1.67.07,0a3.57,3.57,0,0,1,1.22-.67,4.36,4.36,0,0,1,1.34-.21,4.48,4.48,0,0,1,1.84.37,3.39,3.39,0,0,1,1.39,1.15,5.65,5.65,0,0,1,.87,2A12.23,12.23,0,0,1,113,115Zm-3.91.07a14,14,0,0,0-.09-1.78,3,3,0,0,0-.29-1,.92.92,0,0,0-.5-.46,2.2,2.2,0,0,0-.72-.1,1.71,1.71,0,0,0-.87.22,1.56,1.56,0,0,0-.61.61v5.26a2.05,2.05,0,0,0,.58.63,1.5,1.5,0,0,0,.9.25,1.75,1.75,0,0,0,.7-.13,1,1,0,0,0,.5-.52A3.81,3.81,0,0,0,109,117,13.34,13.34,0,0,0,109.09,115.08Z"/><path class="cls-1" d="M120.85,120.44l-.07,0a4.13,4.13,0,0,1-5.71.2,5.33,5.33,0,0,1-.72-4.86,3.63,3.63,0,0,1,.85-1.28,3.82,3.82,0,0,1,1.35-.82,4.94,4.94,0,0,1,1.77-.29,8.49,8.49,0,0,1,1.07.06,4.83,4.83,0,0,1,.89.19v-.5a1.38,1.38,0,0,0-.43-1.11,2.38,2.38,0,0,0-1.55-.38,8.08,8.08,0,0,0-.89.05,5.94,5.94,0,0,0-.77.11,7.44,7.44,0,0,0-.74.2c-.25.08-.52.18-.79.29l-.3-3a8.31,8.31,0,0,1,2-.61,13.11,13.11,0,0,1,2.22-.19,7.67,7.67,0,0,1,2.36.31,3.38,3.38,0,0,1,1.54.94,3.84,3.84,0,0,1,.85,1.6,9.19,9.19,0,0,1,.26,2.31v7.8h-2.9Zm-.59-4.32a2.13,2.13,0,0,0-.49-.13,3.73,3.73,0,0,0-.72-.06,1.26,1.26,0,0,0-1.42,1.42,1.45,1.45,0,0,0,.32,1.05,1.24,1.24,0,0,0,.89.31,1.6,1.6,0,0,0,1-.31,1,1,0,0,0,.43-.86Z"/><path class="cls-1" d="M125.81,121.46V108.8l3.05-.15.29,1.75h.06a3.91,3.91,0,0,1,1.34-1.46,3.3,3.3,0,0,1,1.69-.46,5.81,5.81,0,0,1,.76,0,3.29,3.29,0,0,1,.58.14l-.23,3.72a4.13,4.13,0,0,0-1.34-.19,2.27,2.27,0,0,0-1.74.7,2.83,2.83,0,0,0-.66,2v6.53Z"/><path class="cls-2" d="M144.37,117.83l-.1,3.63h-9.33V105.81h4.11v12Z"/><path class="cls-2" d="M152,120.44l-.06,0a3.67,3.67,0,0,1-3,1.25,3.62,3.62,0,0,1-2.74-1,4.48,4.48,0,0,1-1-3.22,4.32,4.32,0,0,1,.3-1.64,3.48,3.48,0,0,1,.84-1.28,3.82,3.82,0,0,1,1.35-.82,5,5,0,0,1,1.77-.29,8.66,8.66,0,0,1,1.08.06,4.72,4.72,0,0,1,.88.19v-.5A1.41,1.41,0,0,0,151,112a2.43,2.43,0,0,0-1.56-.38,8.22,8.22,0,0,0-.89.05,6.2,6.2,0,0,0-.77.11,7.44,7.44,0,0,0-.74.2c-.25.08-.51.18-.79.29l-.29-3a8.37,8.37,0,0,1,2-.61,13.11,13.11,0,0,1,2.22-.19,7.67,7.67,0,0,1,2.36.31,3.38,3.38,0,0,1,1.54.94,3.73,3.73,0,0,1,.85,1.6,9.19,9.19,0,0,1,.26,2.31v7.8h-2.9Zm-.59-4.32a2.13,2.13,0,0,0-.49-.13,3.73,3.73,0,0,0-.72-.06,1.26,1.26,0,0,0-1.42,1.42,1.41,1.41,0,0,0,.33,1.05,1.2,1.2,0,0,0,.88.31,1.65,1.65,0,0,0,1-.31,1,1,0,0,0,.42-.86Z"/><path class="cls-2" d="M163.57,121.46v-8.2a1.56,1.56,0,0,0-.35-1.16,1.41,1.41,0,0,0-1-.34,2,2,0,0,0-.86.18,1.58,1.58,0,0,0-.63.51v9h-3.79V108.77l2.75-.16.5,1a4.81,4.81,0,0,1,3.13-1.11,3.8,3.8,0,0,1,3,1.23,5.21,5.21,0,0,1,1.1,3.57v8.2Z"/><path class="cls-2" d="M176.58,121.46l-.34-1a3.76,3.76,0,0,1-1.27.88,4.35,4.35,0,0,1-1.73.31,3.89,3.89,0,0,1-3.35-1.59,8.81,8.81,0,0,1-1.16-5.09,8.66,8.66,0,0,1,1.14-4.89,3.71,3.71,0,0,1,3.28-1.66,3.83,3.83,0,0,1,2.57.94l0,0,0-1.67v-2.42l3.8-.19v16.38Zm-.86-9a1.27,1.27,0,0,0-.56-.48,1.84,1.84,0,0,0-.86-.19,1.79,1.79,0,0,0-.77.15,1.07,1.07,0,0,0-.51.52,3,3,0,0,0-.28,1,12.34,12.34,0,0,0-.09,1.65,16.5,16.5,0,0,0,.08,1.75A3,3,0,0,0,173,118a1,1,0,0,0,.51.53,1.87,1.87,0,0,0,.8.15,1.63,1.63,0,0,0,.91-.25,1.48,1.48,0,0,0,.51-.59Z"/><path class="cls-2" d="M130.41,49.7c0,7.37-.49,23.78-.76,32.2a5.37,5.37,0,0,1-5.38,5.21H93.55c-20.56,0-37.7-16.36-38-36.92a37.42,37.42,0,1,1,74.83-.49Z"/><path class="cls-3" d="M112,50.79v17a3.55,3.55,0,0,1-.88,2.49,3.44,3.44,0,0,1-2,1.07,5,5,0,0,1-.78,0H92.65a20.77,20.77,0,0,1-9.55-2.48,19,19,0,0,1-3.39-2.39,16.67,16.67,0,0,1-3.8-5A17.32,17.32,0,0,1,74.3,56.6c-.15-.88-.23-1.78-.31-2.68,0-.58,0-1.16,0-1.75V33.7c0-.34,0-.34.34-.34h6.21c.21,0,.28,0,.28.28V50.57c0,.85,0,1.69,0,2.54a12.67,12.67,0,0,0,.79,4.22,11,11,0,0,0,2.69,4,10.78,10.78,0,0,0,3.21,2,14.09,14.09,0,0,0,3.7,1.05,12.53,12.53,0,0,0,1.83.14h11.87c.21,0,.26-.07.26-.26q0-12.46,0-24.93c0-1.93,0-3.86,0-5.79,0-.2.06-.25.25-.25h6.36c.22,0,.27.08.27.28Q112,42.21,112,50.79Z"/></svg>